<svg width="448" height="472" viewBox="0 0 448 472" fill="none" xmlns="http://www.w3.org/2000/svg">
<g opacity="0.4" clip-path="url(#clip0_984_2365)">
<path fill-rule="evenodd" clip-rule="evenodd" d="M139.749 225.543H137.32C123.903 225.543 113.03 232.476 113.03 241.026V303.305H164.039V241.026C164.039 232.476 153.166 225.543 139.749 225.543Z" fill="#5EC1E2"/>
<path fill-rule="evenodd" clip-rule="evenodd" d="M139.749 225.543H137.32C123.903 225.543 113.03 232.476 113.03 241.026V265.984C122.862 273.61 136.742 274.996 148.193 268.41C158.256 262.633 163.923 252.118 164.039 241.373V241.026C164.039 232.476 153.166 225.543 139.749 225.543Z" fill="#5EC1E2"/>
<path fill-rule="evenodd" clip-rule="evenodd" d="M116.036 233.516C114.07 235.711 113.029 238.253 113.029 241.026V303.305H156.982V246.11C156.982 237.56 146.11 230.627 132.692 230.627H130.263C124.943 230.627 120.085 231.667 116.036 233.516Z" fill="#0086BA"/>
<path fill-rule="evenodd" clip-rule="evenodd" d="M99.2656 203.936L-64.1714 136.111L-73.4248 158.18L90.1279 226.005L99.2656 203.936Z" fill="#5EC1E2"/>
<path fill-rule="evenodd" clip-rule="evenodd" d="M-66.2535 141.195L-73.4249 158.18L90.1279 226.005L97.1836 209.02L-66.2535 141.195Z" fill="#0086BA"/>
<path fill-rule="evenodd" clip-rule="evenodd" d="M-69.6094 149.053L-73.4264 158.181L90.1264 226.005L93.9434 216.877L-69.6094 149.053Z" fill="#375987"/>
<path fill-rule="evenodd" clip-rule="evenodd" d="M93.5963 37.8984L-72.8482 97.9817L-64.6358 120.513L101.809 60.4297L93.5963 37.8984Z" fill="#5EC1E2"/>
<path fill-rule="evenodd" clip-rule="evenodd" d="M-70.9975 102.95L-64.6358 120.513L101.809 60.43L95.4469 42.8672L-70.9975 102.95Z" fill="#0086BA"/>
<path fill-rule="evenodd" clip-rule="evenodd" d="M-68.3372 110.345L-64.6358 120.513L101.809 60.4297L98.1073 50.2617L-68.3372 110.345Z" fill="#375987"/>
<path fill-rule="evenodd" clip-rule="evenodd" d="M128.297 21.4922L92.5556 34.4332L103.197 63.7815L138.822 50.8405L128.297 21.4922Z" fill="#FAA53D"/>
<path fill-rule="evenodd" clip-rule="evenodd" d="M98.4548 50.4928L103.197 63.7804L138.244 51.0705L133.386 37.8984L98.4548 50.4928Z" fill="#F4763C"/>
<path fill-rule="evenodd" clip-rule="evenodd" d="M100.768 57.0787L103.197 63.7803L138.244 51.0704L135.815 44.4844L100.768 57.0787Z" fill="#E85E31"/>
<path fill-rule="evenodd" clip-rule="evenodd" d="M338.348 151.71L192.261 51.7637L178.728 71.5218L324.815 171.352L338.348 151.71Z" fill="#EAA785"/>
<path fill-rule="evenodd" clip-rule="evenodd" d="M371.891 170.196L340.545 148.82L322.964 174.471L354.309 195.847L371.891 170.196Z" fill="#FAA53D"/>
<path fill-rule="evenodd" clip-rule="evenodd" d="M329.442 164.998L322.964 174.473L353.732 195.502L360.209 186.027L329.442 164.998Z" fill="#F4763C"/>
<path fill-rule="evenodd" clip-rule="evenodd" d="M325.393 171.006L322.964 174.472L353.153 195.155L355.582 191.688L325.393 171.006Z" fill="#EC6334"/>
<path fill-rule="evenodd" clip-rule="evenodd" d="M194.344 48.7586L163.114 27.3828L145.417 53.1493L176.762 74.525L194.344 48.7586Z" fill="#FAA53D"/>
<path fill-rule="evenodd" clip-rule="evenodd" d="M151.314 44.4844L145.415 53.1502L176.761 74.526L182.66 65.8601L151.314 44.4844Z" fill="#F4763C"/>
<path fill-rule="evenodd" clip-rule="evenodd" d="M147.266 50.4922L145.415 53.1497L176.183 74.1789L178.033 71.5213L147.266 50.4922Z" fill="#E85E31"/>
<path fill-rule="evenodd" clip-rule="evenodd" d="M159.064 1.96392C142.639 -4.0444 124.479 4.39036 118.465 20.6822C112.45 37.0895 120.894 55.23 137.203 61.2383C153.627 67.2467 171.787 58.8119 177.802 42.5201C183.816 26.1128 175.373 7.97224 159.064 1.96392Z" fill="#F4763C"/>
<path fill-rule="evenodd" clip-rule="evenodd" d="M424.289 248.884L418.39 231.668L362.06 251.079L367.959 268.18L424.289 248.884Z" fill="white"/>
<path fill-rule="evenodd" clip-rule="evenodd" d="M424.289 248.883L418.968 233.4L362.639 252.696L367.959 268.179L424.289 248.883Z" fill="#9AB6CA"/>
<path fill-rule="evenodd" clip-rule="evenodd" d="M412.26 233.863L399.421 196.195L355.236 211.332L368.191 248.884L412.26 233.863Z" fill="#BDCFD8"/>
<path fill-rule="evenodd" clip-rule="evenodd" d="M403.006 206.71L399.42 196.195L355.235 211.332L362.87 233.401C379.526 235.596 396.066 226.006 402.081 209.598C402.428 208.559 402.775 207.634 403.006 206.594V206.71Z" fill="#9AB6CA"/>
<path fill-rule="evenodd" clip-rule="evenodd" d="M433.773 339.932L422.09 284.124L441.175 269.104L447.074 276.961L439.209 337.968L433.773 339.932Z" fill="#9AB6CA"/>
<path fill-rule="evenodd" clip-rule="evenodd" d="M412.26 345.94L388.317 294.176L364.142 293.367L364.027 303.304L406.708 347.673L412.26 345.94Z" fill="#9AB6CA"/>
<path fill-rule="evenodd" clip-rule="evenodd" d="M447.075 273.725L427.296 239.177C425.33 235.711 420.703 234.44 417.233 236.404C413.763 238.369 412.491 242.99 414.457 246.457L434.236 281.005C436.202 284.471 440.829 285.742 444.299 283.778C447.769 281.813 449.041 277.307 447.075 273.725Z" fill="#BDCFD8"/>
<path fill-rule="evenodd" clip-rule="evenodd" d="M363.91 302.265L358.358 262.864C357.78 258.82 360.556 255.123 364.604 254.545C368.653 253.967 372.354 256.74 372.932 260.784L378.484 300.185C379.063 304.229 376.287 307.926 372.238 308.504C368.19 309.082 364.489 306.309 363.91 302.265Z" fill="#BDCFD8"/>
<path fill-rule="evenodd" clip-rule="evenodd" d="M432.268 281.813L412.489 247.265C410.523 243.799 406.012 242.528 402.426 244.492C398.956 246.457 397.684 250.963 399.65 254.545L419.429 289.093C421.396 292.559 426.022 293.83 429.492 291.866C432.962 289.901 434.235 285.28 432.268 281.813Z" fill="#BDCFD8"/>
<path fill-rule="evenodd" clip-rule="evenodd" d="M380.567 299.491L375.015 260.091C374.436 256.047 377.212 252.349 381.261 251.771C385.309 251.194 389.01 253.967 389.589 258.011L395.141 297.412C395.719 301.456 392.943 305.153 388.895 305.731C384.846 306.308 381.145 303.535 380.567 299.491Z" fill="#BDCFD8"/>
<path fill-rule="evenodd" clip-rule="evenodd" d="M444.413 276.267C443.719 274.187 441.406 273.032 439.208 273.725C437.126 274.418 435.97 276.729 436.664 278.925C437.358 281.12 439.671 282.16 441.869 281.467C443.951 280.773 445.107 278.347 444.413 276.267ZM424.75 242.066C424.056 239.986 421.743 238.831 419.545 239.524C417.463 240.217 416.306 242.644 417 244.723C417.694 246.919 420.123 247.959 422.205 247.265C424.403 246.572 425.444 244.261 424.75 242.066ZM410.176 249.807C409.482 247.612 407.169 246.572 404.971 247.265C402.889 247.959 401.732 250.269 402.426 252.465C403.12 254.545 405.434 255.7 407.631 255.007C409.829 254.314 410.87 252.003 410.176 249.807ZM378.252 260.784C377.558 258.589 378.599 256.278 380.797 255.585C382.994 254.891 385.308 256.047 386.002 258.127C386.696 260.206 385.539 262.633 383.457 263.326C381.375 264.019 378.946 262.979 378.252 260.784ZM361.943 263.557C361.249 261.362 362.406 259.051 364.488 258.358C366.57 257.664 368.999 258.82 369.693 260.9C370.387 262.979 369.23 265.406 367.148 266.099C365.066 266.792 362.637 265.637 361.943 263.557ZM367.495 302.611C366.801 300.416 367.958 298.105 370.04 297.412C372.122 296.718 374.551 297.874 375.245 299.954C375.939 302.033 374.782 304.46 372.7 305.153C370.618 305.846 368.189 304.691 367.495 302.611ZM383.804 299.838C383.11 297.643 384.151 295.332 386.349 294.639C388.546 293.945 390.86 294.985 391.554 297.181C392.248 299.26 391.091 301.687 389.009 302.38C386.927 303.073 384.498 302.033 383.804 299.838ZM429.724 284.124C429.03 281.929 426.716 280.889 424.519 281.582C422.437 282.275 421.28 284.586 421.974 286.782C422.668 288.977 424.981 290.017 427.179 289.324C429.261 288.63 430.418 286.319 429.724 284.124Z" fill="#D6DDE2"/>
<path fill-rule="evenodd" clip-rule="evenodd" d="M436.665 276.152C436.318 276.961 436.318 278.001 436.665 278.81C437.359 281.005 439.672 282.045 441.87 281.352C442.679 281.121 443.258 280.659 443.72 279.965C444.067 279.156 444.067 278.117 443.72 277.192C443.026 274.997 440.713 273.957 438.515 274.65C437.706 274.881 437.127 275.343 436.665 276.037V276.152ZM424.173 243.222C423.479 241.142 421.165 239.987 418.968 240.68C418.158 240.911 417.58 241.373 417.117 242.067C416.77 242.875 416.77 243.915 417.117 244.724C417.811 246.919 420.24 247.959 422.322 247.266C423.132 247.035 423.71 246.573 424.173 245.995C424.52 245.186 424.52 244.146 424.173 243.222ZM409.599 250.964C408.905 248.768 406.591 247.728 404.394 248.422C403.584 248.653 403.006 249.115 402.543 249.808C402.196 250.617 402.196 251.657 402.543 252.466C403.237 254.545 405.55 255.701 407.748 255.008C408.558 254.777 409.136 254.314 409.599 253.737C409.946 252.928 409.946 251.888 409.599 250.964ZM378.369 258.012C378.831 257.434 379.525 256.972 380.219 256.625C382.301 255.932 384.73 257.087 385.424 259.167C385.771 260.092 385.656 261.016 385.424 261.94C384.962 262.518 384.268 262.98 383.574 263.211C381.492 263.905 379.063 262.865 378.369 260.669C378.022 259.745 378.137 258.821 378.369 258.012ZM362.06 260.785C362.522 260.207 363.216 259.745 363.91 259.398C365.992 258.705 368.421 259.86 369.115 261.94C369.462 262.865 369.347 263.789 369.115 264.713C368.653 265.291 367.959 265.753 367.265 265.984C365.183 266.678 362.754 265.522 362.06 263.442C361.713 262.518 361.828 261.594 362.06 260.785ZM367.612 299.839C368.074 299.261 368.768 298.799 369.462 298.452C371.544 297.759 373.973 298.915 374.667 300.994C375.014 301.919 374.899 302.843 374.667 303.767C374.205 304.345 373.511 304.807 372.817 305.154C370.735 305.847 368.306 304.692 367.612 302.612C367.265 301.688 367.38 300.763 367.612 299.839ZM383.921 297.066C384.383 296.488 385.077 296.026 385.771 295.679C387.969 294.986 390.282 296.026 390.976 298.221C391.323 299.146 391.208 300.07 390.976 300.994C390.514 301.572 389.82 302.034 389.126 302.381C387.044 303.074 384.615 302.034 383.921 299.839C383.574 298.915 383.689 297.99 383.921 297.066ZM429.262 285.165C428.568 282.969 426.255 281.93 424.057 282.623C423.247 282.854 422.669 283.316 422.206 284.009C421.859 284.818 421.859 285.858 422.206 286.782C422.9 288.978 425.214 290.018 427.411 289.324C428.221 289.093 428.799 288.631 429.262 287.938C429.609 287.129 429.609 286.089 429.262 285.165Z" fill="#9AB6CA"/>
<path fill-rule="evenodd" clip-rule="evenodd" d="M383.573 162.224C367.149 156.215 348.989 164.65 342.974 180.942C336.96 197.349 345.403 215.49 361.712 221.498C378.137 227.506 396.297 219.072 402.311 202.78C408.326 186.373 399.882 168.232 383.573 162.224Z" fill="#F4763C"/>
<path fill-rule="evenodd" clip-rule="evenodd" d="M166.929 18.4868C161.724 8.3189 149.232 4.39038 139.169 9.58989C134.89 11.7852 131.651 15.3671 129.8 19.4112C131.535 17.3314 133.617 15.5982 136.162 14.3272C146.341 9.12771 158.717 13.0562 163.922 23.2242C166.929 29.0014 166.929 35.5874 164.385 41.1336C169.59 35.0097 170.746 26.1128 166.929 18.4868Z" fill="#FAA63D"/>
<path fill-rule="evenodd" clip-rule="evenodd" d="M393.289 179.788C388.084 169.62 375.592 165.691 365.529 170.891C361.249 173.086 358.01 176.668 356.16 180.712C357.895 178.632 359.977 176.899 362.521 175.628C372.7 170.428 385.076 174.357 390.281 184.525C393.289 190.302 393.289 196.888 390.744 202.434C395.949 196.31 397.106 187.414 393.289 179.788Z" fill="#FAA63D"/>
<path fill-rule="evenodd" clip-rule="evenodd" d="M155.248 12.2483C144.606 8.31978 132.692 13.8659 128.76 24.496C124.827 35.1261 130.379 47.0272 141.02 50.9558C151.662 54.8843 163.576 49.3381 167.508 38.708C171.441 28.0779 165.889 16.1768 155.248 12.2483Z" fill="#F4763C"/>
<path fill-rule="evenodd" clip-rule="evenodd" d="M379.757 172.624C369.115 168.695 357.317 174.126 353.385 184.756C349.452 195.386 354.888 207.172 365.645 211.1C376.287 215.029 388.085 209.598 392.017 198.853C395.95 188.222 390.514 176.437 379.872 172.508L379.757 172.624Z" fill="#F4763C"/>
<path fill-rule="evenodd" clip-rule="evenodd" d="M167.623 281.352H11.0103V315.322H167.623V281.352Z" fill="white"/>
<path fill-rule="evenodd" clip-rule="evenodd" d="M11.0107 284.471V315.321H163.344V284.471H11.0107Z" fill="#BDCFD8"/>
<path fill-rule="evenodd" clip-rule="evenodd" d="M338.348 151.71L192.261 51.7637L178.728 71.5218L324.815 171.352L338.348 151.71Z" fill="#5EC1E2"/>
<path fill-rule="evenodd" clip-rule="evenodd" d="M189.601 55.8086L178.728 71.5227L324.815 171.353L335.572 155.755L189.601 55.8086Z" fill="#0086BA"/>
<path fill-rule="evenodd" clip-rule="evenodd" d="M184.165 63.666L178.729 71.5231L324.816 171.354L330.252 163.497L184.165 63.666Z" fill="#375987"/>
<path fill-rule="evenodd" clip-rule="evenodd" d="M130.379 21.1445C128.875 22.9932 127.603 25.073 126.793 27.3839C122.86 38.0141 128.412 49.9152 139.054 53.8437C148.538 57.31 159.064 53.3815 163.922 44.8312C158.486 51.3017 149.464 53.9592 141.02 50.8395C130.379 46.911 124.827 35.1254 128.759 24.3798C129.222 23.2243 129.685 22.0689 130.263 21.1445H130.379Z" fill="#E85C31"/>
<path fill-rule="evenodd" clip-rule="evenodd" d="M355.813 183.139C354.309 184.872 353.153 186.836 352.343 189.031C348.526 199.315 353.847 210.638 364.141 214.336C373.279 217.687 383.342 213.874 388.084 205.785C382.879 211.909 374.204 214.567 366.107 211.563C355.813 207.75 350.608 196.426 354.309 186.258C354.772 185.103 355.235 184.063 355.813 183.139Z" fill="#E65C31"/>
<path fill-rule="evenodd" clip-rule="evenodd" d="M382.995 186.142C380.45 181.289 374.435 179.325 369.577 181.867C367.495 182.907 365.992 184.64 365.066 186.604C365.876 185.564 366.917 184.755 368.189 184.178C373.047 181.636 379.062 183.6 381.607 188.453C382.995 191.226 382.995 194.461 381.838 197.119C384.267 194.115 384.961 189.839 382.995 186.257V186.142Z" fill="white"/>
<path fill-rule="evenodd" clip-rule="evenodd" d="M376.402 182.675C371.312 180.827 365.645 183.369 363.678 188.568C361.828 193.652 364.372 199.314 369.577 201.278C374.782 203.242 380.334 200.585 382.301 195.385C384.151 190.301 381.607 184.64 376.402 182.675Z" fill="#BDCFD8"/>
<path fill-rule="evenodd" clip-rule="evenodd" d="M364.837 187.76C364.143 188.569 363.564 189.493 363.217 190.648C361.367 195.617 363.911 201.047 368.885 202.896C373.28 204.514 378.138 202.665 380.336 198.737C377.791 201.741 373.627 202.896 369.81 201.51C364.837 199.661 362.292 194.23 364.143 189.262C364.374 188.684 364.605 188.222 364.837 187.76Z" fill="#E85C31"/>
<path fill-rule="evenodd" clip-rule="evenodd" d="M134.658 292.098C129.106 292.098 124.711 296.604 124.711 302.034C124.711 307.465 129.222 311.971 134.658 311.971C140.094 311.971 144.605 307.465 144.605 302.034C144.605 296.604 140.094 292.098 134.658 292.098Z" fill="#E65C31"/>
<path fill-rule="evenodd" clip-rule="evenodd" d="M136.394 290.596C130.842 290.596 126.447 295.102 126.447 300.533C126.447 305.963 130.958 310.469 136.394 310.469C141.831 310.469 146.342 305.963 146.342 300.533C146.342 295.102 141.831 290.596 136.394 290.596Z" fill="white"/>
<path fill-rule="evenodd" clip-rule="evenodd" d="M128.528 294.408C127.256 296.141 126.446 298.221 126.446 300.416C126.446 305.962 130.957 310.353 136.394 310.353C138.591 310.353 140.673 309.66 142.408 308.389C143.681 306.655 144.49 304.576 144.49 302.38C144.49 296.834 139.979 292.443 134.543 292.443C132.345 292.443 130.263 293.137 128.528 294.408Z" fill="#9AB6CA"/>
<path fill-rule="evenodd" clip-rule="evenodd" d="M143.218 307.349C144.028 305.847 144.49 304.229 144.49 302.38C144.49 296.834 139.979 292.443 134.543 292.443C132.461 292.443 130.61 293.021 128.991 294.061C128.181 295.563 127.719 297.181 127.719 299.029C127.719 304.576 132.23 308.966 137.666 308.966C139.748 308.966 141.599 308.389 143.218 307.349Z" fill="#BDCFD8"/>
<path fill-rule="evenodd" clip-rule="evenodd" d="M134.658 292.098C129.106 292.098 124.711 296.604 124.711 302.034C124.711 307.465 129.222 311.971 134.658 311.971C140.094 311.971 144.605 307.465 144.605 302.034C144.605 296.604 140.094 292.098 134.658 292.098Z" fill="#9AB6CA"/>
<path fill-rule="evenodd" clip-rule="evenodd" d="M136.394 290.596C130.842 290.596 126.447 295.102 126.447 300.533C126.447 305.963 130.958 310.469 136.394 310.469C141.831 310.469 146.342 305.963 146.342 300.533C146.342 295.102 141.831 290.596 136.394 290.596Z" fill="white"/>
<path fill-rule="evenodd" clip-rule="evenodd" d="M128.528 294.408C127.256 296.141 126.446 298.221 126.446 300.416C126.446 305.962 130.957 310.353 136.394 310.353C138.591 310.353 140.673 309.66 142.408 308.389C143.681 306.655 144.49 304.576 144.49 302.38C144.49 296.834 139.979 292.443 134.543 292.443C132.345 292.443 130.263 293.137 128.528 294.408Z" fill="#9AB6CA"/>
<path fill-rule="evenodd" clip-rule="evenodd" d="M143.218 307.349C144.028 305.847 144.49 304.229 144.49 302.38C144.49 296.834 139.979 292.443 134.543 292.443C132.461 292.443 130.61 293.021 128.991 294.061C128.181 295.563 127.719 297.181 127.719 299.029C127.719 304.576 132.23 308.966 137.666 308.966C139.748 308.966 141.599 308.389 143.218 307.349Z" fill="#BDCFD8"/>
<path fill-rule="evenodd" clip-rule="evenodd" d="M153.975 393.314H-159.02V472H153.975V393.314Z" fill="#BDCFD8"/>
<path fill-rule="evenodd" clip-rule="evenodd" d="M153.975 393.314H-159.02V412.033H153.975V393.314Z" fill="#9AB6CA"/>
<path fill-rule="evenodd" clip-rule="evenodd" d="M167.623 314.281H-167.001V392.967H167.623V314.281Z" fill="#5EC1E2"/>
<path fill-rule="evenodd" clip-rule="evenodd" d="M-167 318.324V392.966H163.229V318.324H-167Z" fill="#0086BA"/>
<path fill-rule="evenodd" clip-rule="evenodd" d="M-167.001 362.58V392.968H7.77148V391.466C7.77148 375.637 -6.22419 362.58 -23.2272 362.58H-167.001Z" fill="#5EC1E2"/>
<path fill-rule="evenodd" clip-rule="evenodd" d="M113.723 336.234H27.0882C19.9169 336.234 14.0179 342.127 14.0179 349.291C14.0179 356.455 19.9169 362.347 27.0882 362.347H113.723C120.894 362.347 126.793 356.455 126.793 349.291C126.793 342.127 120.894 336.234 113.723 336.234Z" fill="#FDD15A"/>
<path fill-rule="evenodd" clip-rule="evenodd" d="M113.723 336.234H27.0883C24.4279 336.234 21.9989 337.043 20.0326 338.314C18.6446 340.394 17.9506 342.82 17.9506 345.362C17.9506 352.526 23.8496 358.419 31.0209 358.419H117.655C120.316 358.419 122.745 357.61 124.711 356.339C126.099 354.259 126.793 351.833 126.793 349.291C126.793 342.127 120.894 336.234 113.723 336.234Z" fill="#F4763C"/>
<path fill-rule="evenodd" clip-rule="evenodd" d="M18.4128 342.129C18.1814 343.169 17.9501 344.324 17.9501 345.364C17.9501 352.528 23.8491 358.421 31.0205 358.421H117.655C119.737 358.421 121.587 357.958 123.323 357.034C123.554 355.994 123.785 354.954 123.785 353.799C123.785 346.635 117.886 340.742 110.715 340.742H24.0804C21.9984 340.742 20.1478 341.204 18.4128 342.013V342.129Z" fill="#FAA53D"/>
<path fill-rule="evenodd" clip-rule="evenodd" d="M113.029 265.984C122.861 273.61 136.741 274.996 148.192 268.41C151.662 266.446 154.669 263.788 156.982 260.9V246.11C156.982 237.56 146.11 230.627 132.692 230.627H130.263C124.943 230.627 120.085 231.667 116.036 233.516C114.07 235.711 113.029 238.253 113.029 241.026V265.984Z" fill="#375987"/>
<path fill-rule="evenodd" clip-rule="evenodd" d="M135.816 215.26L100.885 200.701L88.8557 229.472L123.903 244.03L135.816 215.26Z" fill="#FAA53D"/>
<path fill-rule="evenodd" clip-rule="evenodd" d="M93.1344 219.305L88.8547 229.473L121.357 242.991L125.637 232.823L93.1344 219.305Z" fill="#F4763C"/>
<path fill-rule="evenodd" clip-rule="evenodd" d="M90.7064 225.082L88.8558 229.473L120.895 242.76L122.746 238.37L90.7064 225.082Z" fill="#E85C31"/>
<path fill-rule="evenodd" clip-rule="evenodd" d="M123.323 207.517C108.17 216.183 102.965 235.595 111.756 250.616C120.431 265.752 139.863 270.951 154.9 262.17C170.052 253.504 175.257 234.093 166.466 219.072C157.791 203.936 138.359 198.736 123.323 207.517Z" fill="#F4763C"/>
<path fill-rule="evenodd" clip-rule="evenodd" d="M128.528 216.415C118.35 222.307 114.88 235.248 120.779 245.416C126.678 255.584 139.632 259.051 149.811 253.158C159.99 247.265 163.46 234.324 157.561 224.156C151.662 213.988 138.707 210.522 128.528 216.415Z" fill="#E85C31"/>
<path fill-rule="evenodd" clip-rule="evenodd" d="M120.431 224.85C117.077 231.09 116.961 238.947 120.778 245.533C126.677 255.701 139.632 259.167 149.811 253.274C151.199 252.465 152.587 251.425 153.743 250.386C157.098 244.146 157.213 236.405 153.396 229.703C147.497 219.535 134.543 216.069 124.364 221.962C122.976 222.77 121.588 223.81 120.431 224.85Z" fill="#F4763C"/>
<path fill-rule="evenodd" clip-rule="evenodd" d="M146.34 231.32C143.796 226.467 137.781 224.503 132.923 227.045C130.841 228.084 129.337 229.818 128.412 231.782C129.222 230.742 130.263 229.933 131.535 229.355C136.393 226.813 142.408 228.778 144.952 233.631C146.34 236.404 146.34 239.639 145.184 242.296C147.613 239.292 148.307 235.017 146.34 231.435V231.32Z" fill="white"/>
<path fill-rule="evenodd" clip-rule="evenodd" d="M139.865 227.855C134.775 226.006 129.108 228.548 127.141 233.748C125.291 238.832 127.835 244.493 133.04 246.458C138.13 248.306 143.797 245.764 145.764 240.565C147.614 235.481 145.07 229.819 139.865 227.855Z" fill="#BDCFD8"/>
<path fill-rule="evenodd" clip-rule="evenodd" d="M128.298 232.938C127.604 233.746 127.025 234.671 126.678 235.826C124.828 240.795 127.372 246.225 132.346 248.074C136.741 249.691 141.599 247.843 143.797 243.914C141.252 246.918 137.088 248.074 133.271 246.687C128.298 244.839 125.753 239.408 127.604 234.44C127.835 233.862 128.066 233.4 128.298 232.938Z" fill="#E85C31"/>
<path fill-rule="evenodd" clip-rule="evenodd" d="M118.928 246.573C124.133 256.74 136.625 260.669 146.688 255.469C150.967 253.274 154.206 249.692 156.057 245.648C154.322 247.728 152.24 249.461 149.695 250.732C139.516 255.932 127.14 252.003 121.935 241.835C118.928 236.058 118.928 229.472 121.472 223.926C116.267 230.05 115.111 238.947 118.928 246.573Z" fill="#FAA63D"/>
<path fill-rule="evenodd" clip-rule="evenodd" d="M5.80623 392.967C3.72423 378.986 -9.23047 368.125 -24.8455 368.125H-167V392.967H5.92188H5.80623Z" fill="#0086BA"/>
</g>
<defs>
<clipPath id="clip0_984_2365">
<rect width="615" height="472" fill="white" transform="matrix(-1 0 0 1 448 0)"/>
</clipPath>
</defs>
</svg>
