<svg width="1920" height="1110" viewBox="0 0 1920 1110" fill="none" xmlns="http://www.w3.org/2000/svg">
<path d="M0 0C0 0 584.914 30 960 30C1335.09 30 1920 0 1920 0V1110C1920 1110 1335.09 1080 960 1080C584.914 1080 0 1110 0 1110L0 0Z" fill="#2E437C"/>
<path opacity="0.05" fill-rule="evenodd" clip-rule="evenodd" d="M208.098 52.5669C196.751 34.7168 179.732 23.9501 157.669 19.7C151.681 18.5667 146.008 18 140.65 18C110.393 18 85.8094 32.1668 66.5837 60.5003C50.1946 84.5838 42 111.217 42 140.401C42 162.218 47.0428 180.918 57.1284 196.501C68.4748 214.351 85.1791 225.118 107.557 229.368C113.545 230.501 119.218 231.068 124.576 231.068C155.148 231.068 179.732 216.901 198.642 188.568C215.031 164.201 223.226 137.567 223.226 108.384C223.226 86.2838 218.183 67.8671 208.098 52.5669ZM168.385 131.051C163.973 149.751 156.094 163.634 144.432 172.984C135.292 180.351 126.782 183.468 118.903 182.051C111.339 180.634 105.035 174.684 100.307 163.634C96.5253 154.851 94.6343 146.068 94.6343 137.851C94.6343 130.768 95.2647 123.684 96.8406 117.167C99.6772 105.551 105.035 94.2172 113.545 83.4505C123.946 69.567 134.977 63.9003 146.323 65.8836C153.887 67.3003 160.191 73.2504 164.918 84.3004C168.701 93.0838 170.592 101.867 170.592 110.084C170.592 117.451 169.961 124.534 168.385 131.051ZM1395.3 67.4007C1386.49 67.9658 1379.87 70.7913 1375.46 76.1597C1371.05 81.2456 1369.48 87.7442 1370.42 95.0905C1389 201.046 1406.33 272.531 1422.39 309.545C1428.69 323.107 1435.93 329.606 1444.43 329.041C1457.66 328.193 1473.4 311.805 1491.99 279.877C1496 272.45 1502.56 290.733 1510.31 312.354C1521.44 343.371 1535.04 381.255 1547.1 359.944C1555.59 386.599 1563.21 369.723 1572.36 349.47C1581.55 329.148 1592.26 305.425 1606.93 318.869C1615.12 326.498 1623.62 329.889 1631.81 329.323C1639.06 328.758 1644.72 325.368 1648.5 319.152C1651.65 313.783 1652.91 307.567 1652.28 300.503C1650.39 274.792 1653.23 238.908 1661.1 192.852C1669.29 145.384 1679.37 111.196 1691.65 90.8523C1694.17 86.6141 1695.11 82.3758 1694.8 77.2899C1694.17 70.7913 1691.02 65.4229 1685.04 61.1847C1679.05 56.9464 1672.44 54.9686 1665.2 55.5337C1656.06 56.0988 1649.13 60.0544 1644.41 67.9658C1624.88 99.8938 1611.03 151.6 1602.84 223.368C1590.87 196.243 1580.79 164.315 1572.92 126.736C1569.46 110.066 1560.95 102.154 1547.1 103.002C1537.65 103.567 1529.78 109.218 1523.48 119.955L1454.51 237.778C1443.17 196.808 1432.46 146.797 1422.7 87.7442C1420.5 73.0517 1411.36 66.2705 1395.3 67.4007ZM1854.44 98.3932C1876.82 102.643 1893.53 113.41 1904.87 131.26C1914.96 146.56 1920 164.977 1920 187.077C1920 216.261 1911.81 242.894 1895.42 267.261C1876.51 295.595 1851.92 309.761 1821.35 309.761C1815.99 309.761 1810.32 309.195 1804.33 308.061C1781.95 303.811 1765.25 293.045 1753.9 275.194C1743.82 259.611 1738.77 240.911 1738.77 219.094C1738.77 189.911 1746.97 163.277 1763.36 139.193C1782.58 110.86 1807.17 96.6932 1837.42 96.6932C1842.78 96.6932 1848.46 97.2599 1854.44 98.3932ZM1841.21 251.678C1852.87 242.328 1860.75 228.444 1865.16 209.744C1866.42 203.227 1867.37 196.144 1867.37 188.777C1867.37 180.56 1865.47 171.777 1861.69 162.994C1856.97 151.944 1850.66 145.994 1843.1 144.577C1831.75 142.593 1820.72 148.26 1810.32 162.144C1801.81 172.91 1796.45 184.244 1793.61 195.861C1792.04 202.377 1791.41 209.461 1791.41 216.544C1791.41 224.761 1793.3 233.544 1797.08 242.328C1801.81 253.378 1808.11 259.328 1815.68 260.744C1823.56 262.161 1832.07 259.044 1841.21 251.678ZM157.669 881.632C179.732 885.882 196.751 896.649 208.098 914.499C218.183 929.799 223.226 948.216 223.226 970.316C223.226 999.499 215.031 1026.13 198.642 1050.5C179.732 1078.83 155.148 1093 124.576 1093C119.218 1093 113.545 1092.43 107.557 1091.3C85.1791 1087.05 68.4748 1076.28 57.1284 1058.43C47.0428 1042.85 42 1024.15 42 1002.33C42 973.149 50.1946 946.516 66.5837 922.432C85.8094 894.099 110.393 879.932 140.65 879.932C146.008 879.932 151.681 880.499 157.669 881.632ZM144.432 1034.92C156.094 1025.57 163.973 1011.68 168.385 992.983C169.961 986.466 170.592 979.383 170.592 972.016C170.592 963.799 168.701 955.016 164.918 946.232C160.191 935.182 153.887 929.232 146.323 927.816C134.977 925.832 123.946 931.499 113.545 945.382C105.035 956.149 99.6772 967.482 96.8406 979.099C95.2647 985.616 94.6343 992.699 94.6343 999.783C94.6343 1008 96.5253 1016.78 100.307 1025.57C105.035 1036.62 111.339 1042.57 118.903 1043.98C126.782 1045.4 135.292 1042.28 144.432 1034.92Z" fill="white"/>
<circle cx="460.24" cy="844.636" r="3.52358" transform="rotate(-180 460.24 844.636)" fill="#70C217"/>
<circle cx="408.56" cy="844.636" r="3.52358" transform="rotate(-180 408.56 844.636)" fill="#70C217"/>
<circle cx="356.883" cy="844.636" r="3.52358" transform="rotate(-180 356.883 844.636)" fill="#70C217"/>
<circle cx="305.203" cy="844.636" r="3.52358" transform="rotate(-180 305.203 844.636)" fill="#70C217"/>
<circle cx="253.523" cy="844.636" r="3.52358" transform="rotate(-180 253.523 844.636)" fill="#70C217"/>
<circle cx="460.24" cy="792.957" r="3.52358" transform="rotate(-180 460.24 792.957)" fill="#70C217"/>
<circle cx="408.56" cy="792.957" r="3.52358" transform="rotate(-180 408.56 792.957)" fill="#70C217"/>
<circle cx="356.883" cy="792.957" r="3.52358" transform="rotate(-180 356.883 792.957)" fill="#70C217"/>
<circle cx="305.203" cy="792.957" r="3.52358" transform="rotate(-180 305.203 792.957)" fill="#70C217"/>
<circle cx="253.523" cy="792.957" r="3.52358" transform="rotate(-180 253.523 792.957)" fill="#70C217"/>
<circle cx="460.24" cy="741.278" r="3.52358" transform="rotate(-180 460.24 741.278)" fill="#70C217"/>
<circle cx="408.56" cy="741.278" r="3.52358" transform="rotate(-180 408.56 741.278)" fill="#70C217"/>
<circle cx="356.883" cy="741.278" r="3.52358" transform="rotate(-180 356.883 741.278)" fill="#70C217"/>
<circle cx="305.203" cy="741.278" r="3.52358" transform="rotate(-180 305.203 741.278)" fill="#70C217"/>
<circle cx="253.523" cy="741.278" r="3.52358" transform="rotate(-180 253.523 741.278)" fill="#70C217"/>
<circle cx="460.24" cy="689.599" r="3.52358" transform="rotate(-180 460.24 689.599)" fill="#70C217"/>
<circle cx="408.56" cy="689.599" r="3.52358" transform="rotate(-180 408.56 689.599)" fill="#70C217"/>
<circle cx="356.883" cy="689.599" r="3.52358" transform="rotate(-180 356.883 689.599)" fill="#70C217"/>
<circle cx="305.203" cy="689.599" r="3.52358" transform="rotate(-180 305.203 689.599)" fill="#70C217"/>
<circle cx="253.523" cy="689.599" r="3.52358" transform="rotate(-180 253.523 689.599)" fill="#70C217"/>
<circle cx="460.24" cy="637.92" r="3.52358" transform="rotate(-180 460.24 637.92)" fill="#70C217"/>
<circle cx="408.56" cy="637.92" r="3.52358" transform="rotate(-180 408.56 637.92)" fill="#70C217"/>
<circle cx="356.883" cy="637.92" r="3.52358" transform="rotate(-180 356.883 637.92)" fill="#70C217"/>
<circle cx="305.203" cy="637.92" r="3.52358" transform="rotate(-180 305.203 637.92)" fill="#70C217"/>
<circle cx="253.523" cy="637.92" r="3.52358" transform="rotate(-180 253.523 637.92)" fill="#70C217"/>
<circle cx="460.24" cy="586.24" r="3.52358" transform="rotate(-180 460.24 586.24)" fill="#70C217"/>
<circle cx="408.56" cy="586.24" r="3.52358" transform="rotate(-180 408.56 586.24)" fill="#70C217"/>
<circle cx="356.883" cy="586.24" r="3.52358" transform="rotate(-180 356.883 586.24)" fill="#70C217"/>
<circle cx="305.203" cy="586.24" r="3.52358" transform="rotate(-180 305.203 586.24)" fill="#70C217"/>
<circle cx="253.523" cy="586.24" r="3.52358" transform="rotate(-180 253.523 586.24)" fill="#70C217"/>
<circle cx="460.24" cy="534.561" r="3.52358" transform="rotate(-180 460.24 534.561)" fill="#70C217"/>
<circle cx="408.56" cy="534.561" r="3.52358" transform="rotate(-180 408.56 534.561)" fill="#70C217"/>
<circle cx="356.883" cy="534.561" r="3.52358" transform="rotate(-180 356.883 534.561)" fill="#70C217"/>
<circle cx="305.203" cy="534.561" r="3.52358" transform="rotate(-180 305.203 534.561)" fill="#70C217"/>
<circle cx="253.523" cy="534.561" r="3.52358" transform="rotate(-180 253.523 534.561)" fill="#70C217"/>
<circle cx="460.24" cy="482.882" r="3.52358" transform="rotate(-180 460.24 482.882)" fill="#70C217"/>
<circle cx="408.56" cy="482.882" r="3.52358" transform="rotate(-180 408.56 482.882)" fill="#70C217"/>
<circle cx="356.883" cy="482.882" r="3.52358" transform="rotate(-180 356.883 482.882)" fill="#70C217"/>
<circle cx="305.203" cy="482.882" r="3.52358" transform="rotate(-180 305.203 482.882)" fill="#70C217"/>
<circle cx="253.523" cy="482.882" r="3.52358" transform="rotate(-180 253.523 482.882)" fill="#70C217"/>
<circle cx="460.24" cy="431.203" r="3.52358" transform="rotate(-180 460.24 431.203)" fill="#70C217"/>
<circle cx="408.56" cy="431.203" r="3.52358" transform="rotate(-180 408.56 431.203)" fill="#70C217"/>
<circle cx="356.883" cy="431.203" r="3.52358" transform="rotate(-180 356.883 431.203)" fill="#70C217"/>
<circle cx="305.203" cy="431.203" r="3.52358" transform="rotate(-180 305.203 431.203)" fill="#70C217"/>
<circle cx="253.523" cy="431.203" r="3.52358" transform="rotate(-180 253.523 431.203)" fill="#70C217"/>
<circle cx="460.24" cy="379.524" r="3.52358" transform="rotate(-180 460.24 379.524)" fill="#70C217"/>
<circle cx="408.56" cy="379.524" r="3.52358" transform="rotate(-180 408.56 379.524)" fill="#70C217"/>
<circle cx="356.883" cy="379.524" r="3.52358" transform="rotate(-180 356.883 379.524)" fill="#70C217"/>
<circle cx="305.203" cy="379.524" r="3.52358" transform="rotate(-180 305.203 379.524)" fill="#70C217"/>
<circle cx="253.523" cy="379.524" r="3.52358" transform="rotate(-180 253.523 379.524)" fill="#70C217"/>
<circle cx="1288.52" cy="962.24" r="3.52358" transform="rotate(-90 1288.52 962.24)" fill="#70C217"/>
<circle cx="1288.52" cy="910.561" r="3.52358" transform="rotate(-90 1288.52 910.561)" fill="#70C217"/>
<circle cx="1288.52" cy="858.882" r="3.52358" transform="rotate(-90 1288.52 858.882)" fill="#70C217"/>
<circle cx="1288.52" cy="807.203" r="3.52358" transform="rotate(-90 1288.52 807.203)" fill="#70C217"/>
<circle cx="1288.52" cy="755.524" r="3.52358" transform="rotate(-90 1288.52 755.524)" fill="#70C217"/>
<circle cx="1340.2" cy="962.241" r="3.52358" transform="rotate(-90 1340.2 962.241)" fill="#70C217"/>
<circle cx="1340.2" cy="910.561" r="3.52358" transform="rotate(-90 1340.2 910.561)" fill="#70C217"/>
<circle cx="1340.2" cy="858.882" r="3.52358" transform="rotate(-90 1340.2 858.882)" fill="#70C217"/>
<circle cx="1340.2" cy="807.203" r="3.52358" transform="rotate(-90 1340.2 807.203)" fill="#70C217"/>
<circle cx="1340.2" cy="755.524" r="3.52358" transform="rotate(-90 1340.2 755.524)" fill="#70C217"/>
<circle cx="1391.88" cy="962.241" r="3.52358" transform="rotate(-90 1391.88 962.241)" fill="#70C217"/>
<circle cx="1391.88" cy="910.561" r="3.52358" transform="rotate(-90 1391.88 910.561)" fill="#70C217"/>
<circle cx="1391.88" cy="858.882" r="3.52358" transform="rotate(-90 1391.88 858.882)" fill="#70C217"/>
<circle cx="1391.88" cy="807.203" r="3.52358" transform="rotate(-90 1391.88 807.203)" fill="#70C217"/>
<circle cx="1391.88" cy="755.524" r="3.52358" transform="rotate(-90 1391.88 755.524)" fill="#70C217"/>
<circle cx="1443.56" cy="962.241" r="3.52358" transform="rotate(-90 1443.56 962.241)" fill="#70C217"/>
<circle cx="1443.56" cy="910.561" r="3.52358" transform="rotate(-90 1443.56 910.561)" fill="#70C217"/>
<circle cx="1443.56" cy="858.882" r="3.52358" transform="rotate(-90 1443.56 858.882)" fill="#70C217"/>
<circle cx="1443.56" cy="807.203" r="3.52358" transform="rotate(-90 1443.56 807.203)" fill="#70C217"/>
<circle cx="1443.56" cy="755.524" r="3.52358" transform="rotate(-90 1443.56 755.524)" fill="#70C217"/>
<circle cx="1495.24" cy="962.241" r="3.52358" transform="rotate(-90 1495.24 962.241)" fill="#70C217"/>
<circle cx="1495.24" cy="910.561" r="3.52358" transform="rotate(-90 1495.24 910.561)" fill="#70C217"/>
<circle cx="1495.24" cy="858.882" r="3.52358" transform="rotate(-90 1495.24 858.882)" fill="#70C217"/>
<circle cx="1495.24" cy="807.203" r="3.52358" transform="rotate(-90 1495.24 807.203)" fill="#70C217"/>
<circle cx="1495.24" cy="755.524" r="3.52358" transform="rotate(-90 1495.24 755.524)" fill="#70C217"/>
<circle cx="1546.92" cy="962.241" r="3.52358" transform="rotate(-90 1546.92 962.241)" fill="#70C217"/>
<circle cx="1546.92" cy="910.561" r="3.52358" transform="rotate(-90 1546.92 910.561)" fill="#70C217"/>
<circle cx="1546.92" cy="858.882" r="3.52358" transform="rotate(-90 1546.92 858.882)" fill="#70C217"/>
<circle cx="1546.92" cy="807.203" r="3.52358" transform="rotate(-90 1546.92 807.203)" fill="#70C217"/>
<circle cx="1546.92" cy="755.524" r="3.52358" transform="rotate(-90 1546.92 755.524)" fill="#70C217"/>
<circle cx="1598.6" cy="962.241" r="3.52358" transform="rotate(-90 1598.6 962.241)" fill="#70C217"/>
<circle cx="1598.6" cy="910.561" r="3.52358" transform="rotate(-90 1598.6 910.561)" fill="#70C217"/>
<circle cx="1598.6" cy="858.882" r="3.52358" transform="rotate(-90 1598.6 858.882)" fill="#70C217"/>
<circle cx="1598.6" cy="807.203" r="3.52358" transform="rotate(-90 1598.6 807.203)" fill="#70C217"/>
<circle cx="1598.6" cy="755.524" r="3.52358" transform="rotate(-90 1598.6 755.524)" fill="#70C217"/>
<circle cx="1650.28" cy="962.241" r="3.52358" transform="rotate(-90 1650.28 962.241)" fill="#70C217"/>
<circle cx="1650.28" cy="910.561" r="3.52358" transform="rotate(-90 1650.28 910.561)" fill="#70C217"/>
<circle cx="1650.28" cy="858.882" r="3.52358" transform="rotate(-90 1650.28 858.882)" fill="#70C217"/>
<circle cx="1650.28" cy="807.203" r="3.52358" transform="rotate(-90 1650.28 807.203)" fill="#70C217"/>
<circle cx="1650.28" cy="755.524" r="3.52358" transform="rotate(-90 1650.28 755.524)" fill="#70C217"/>
<circle cx="1701.96" cy="962.241" r="3.52358" transform="rotate(-90 1701.96 962.241)" fill="#70C217"/>
<circle cx="1701.96" cy="910.561" r="3.52358" transform="rotate(-90 1701.96 910.561)" fill="#70C217"/>
<circle cx="1701.96" cy="858.882" r="3.52358" transform="rotate(-90 1701.96 858.882)" fill="#70C217"/>
<circle cx="1701.96" cy="807.203" r="3.52358" transform="rotate(-90 1701.96 807.203)" fill="#70C217"/>
<circle cx="1701.96" cy="755.524" r="3.52358" transform="rotate(-90 1701.96 755.524)" fill="#70C217"/>
<circle cx="1753.64" cy="962.241" r="3.52358" transform="rotate(-90 1753.64 962.241)" fill="#70C217"/>
<circle cx="1753.64" cy="910.561" r="3.52358" transform="rotate(-90 1753.64 910.561)" fill="#70C217"/>
<circle cx="1753.64" cy="858.882" r="3.52358" transform="rotate(-90 1753.64 858.882)" fill="#70C217"/>
<circle cx="1753.64" cy="807.203" r="3.52358" transform="rotate(-90 1753.64 807.203)" fill="#70C217"/>
<circle cx="1753.64" cy="755.524" r="3.52358" transform="rotate(-90 1753.64 755.524)" fill="#70C217"/>
<circle cx="437.5" cy="372.5" r="198" stroke="#FFBA49" stroke-width="5"/>
<circle cx="1572" cy="667" r="128.5" stroke="#FFBA49" stroke-width="5"/>
<circle cx="249.5" cy="159.5" r="30" stroke="#FFBA49" stroke-width="5"/>
<circle cx="1268.5" cy="546.5" r="30" stroke="#FFBA49" stroke-width="5"/>
</svg>
