<svg width="1530" height="1538" viewBox="0 0 1530 1538" fill="none" xmlns="http://www.w3.org/2000/svg">
<path d="M-0.479429 0L-0.479482 1538M190.83 0L190.83 1538M382.14 0L382.14 1538M573.45 0L573.45 1538M764.76 0L764.76 1538M956.07 0L956.07 1538M1147.38 0L1147.38 1538M1338.69 0L1338.69 1538M1530 0L1530 1538M-1 1495H1529.48M-1 1253.03L1529.48 1253.03M-1 1011.06L1529.48 1011.06M-1 769.098L1529.48 769.098M-1 527.131L1529.48 527.131M-1 285.165L1529.48 285.165M-1 43.198L1529.48 43.1981" stroke="url(#paint0_radial_984_2362)" stroke-opacity="0.1"/>
<defs>
<radialGradient id="paint0_radial_984_2362" cx="0" cy="0" r="1" gradientUnits="userSpaceOnUse" gradientTransform="translate(764.5 769) rotate(90) scale(769 765.5)">
<stop stop-color="#3D3D3D"/>
<stop offset="1" stop-color="#3D3D3D"/>
</radialGradient>
</defs>
</svg>
