<svg width="1531" height="611" viewBox="0 0 1531 611" fill="none" xmlns="http://www.w3.org/2000/svg">
<g clip-path="url(#clip0_2663_674)">
<path d="M1682 0H-151V611H1682V0Z" fill="#E9F0F2"/>
<g opacity="0.7">
<path d="M338.457 326.905C402.555 300.354 432.993 226.87 406.443 162.772C379.893 98.6742 306.408 68.2359 242.31 94.7861C178.212 121.336 147.774 194.821 174.324 258.919C200.874 323.016 274.359 353.455 338.457 326.905Z" fill="white"/>
<path d="M440.081 134.582C461.25 134.582 478.411 117.422 478.411 96.2524C478.411 75.0833 461.25 57.9224 440.081 57.9224C418.912 57.9224 401.751 75.0833 401.751 96.2524C401.751 117.422 418.912 134.582 440.081 134.582Z" fill="white"/>
<path d="M875.643 91.6498C875.643 105.54 864.36 116.823 850.47 116.823C836.58 116.823 825.297 105.54 825.297 91.6498C825.297 77.7597 836.58 66.4766 850.47 66.4766C864.36 66.4766 875.643 77.7597 875.643 91.6498Z" fill="white"/>
<path d="M692.017 96.66C692.017 111.568 679.92 123.666 665.011 123.666C650.103 123.666 638.005 111.568 638.005 96.66C638.005 81.7516 650.103 69.6538 665.011 69.6538C679.92 69.6538 692.017 81.7516 692.017 96.66Z" fill="white"/>
<path d="M804.808 415.521C882.623 415.521 945.704 352.439 945.704 274.624C945.704 196.809 882.623 133.728 804.808 133.728C726.993 133.728 663.911 196.809 663.911 274.624C663.911 352.439 726.993 415.521 804.808 415.521Z" fill="white"/>
<path d="M1133 356.783C1218.19 356.783 1287.25 287.72 1287.25 202.526C1287.25 117.332 1218.19 48.2686 1133 48.2686C1047.8 48.2686 978.739 117.332 978.739 202.526C978.739 287.72 1047.8 356.783 1133 356.783Z" fill="white"/>
<path d="M1390.63 196.945C1427.48 196.945 1457.36 167.073 1457.36 130.224C1457.36 93.375 1427.48 63.5029 1390.63 63.5029C1353.79 63.5029 1323.91 93.375 1323.91 130.224C1323.91 167.073 1353.79 196.945 1390.63 196.945Z" fill="white"/>
<path opacity="0.5" d="M159.47 579.146L660.327 289.288L553.483 223.626L52.626 513.525L159.47 579.146Z" fill="#9CAAAD"/>
<path opacity="0.5" d="M941.549 574.34L678.819 421.305L785.663 355.683L1052.55 511.081L941.549 574.34Z" fill="#9CAAAD"/>
<path opacity="0.5" d="M560.855 507.904C523.788 507.904 493.768 524.808 493.768 545.664C493.768 566.519 523.829 583.423 560.855 583.423C597.882 583.423 627.943 566.519 627.943 545.664C627.943 524.808 597.882 507.904 560.855 507.904V507.904Z" fill="#9CAAAD"/>
<path opacity="0.5" d="M740.164 478.901C709.329 478.901 684.359 492.954 684.359 510.307C684.359 527.659 709.37 541.712 740.164 541.712C770.958 541.712 795.969 527.659 795.969 510.307C795.969 492.954 770.958 478.901 740.164 478.901Z" fill="#9CAAAD"/>
<path opacity="0.5" d="M1436.99 587.415L1369.45 548.067C1399.84 529.451 1418.41 504.645 1418.41 477.354C1418.41 419.634 1335.28 372.791 1232.67 372.791C1130.06 372.791 1046.93 419.594 1046.93 477.354C1046.93 535.113 1130.1 581.875 1232.67 581.875C1270.63 581.875 1305.91 575.439 1335.32 564.441L1405.5 605.297L1436.99 587.374V587.415Z" fill="#9CAAAD"/>
<path d="M290.78 202.165C290.78 202.165 294.934 199.355 302.266 202.165C309.598 204.976 317.501 222.328 330.291 242.41C337.053 248.601 346.096 254.996 350.087 261.717C353.672 267.827 347.725 270.801 344.914 270.801C335.016 268.642 321.208 257.359 319.334 255.811C307.195 245.791 290.698 202.165 290.698 202.165H290.78Z" fill="#659DE0"/>
<path d="M305.933 324.935C305.933 324.935 303.733 338.703 303.652 344.854C303.571 351.004 303.448 353.734 302.104 361.31C300.841 368.438 298.927 397.115 298.886 406.605C298.845 416.096 304.63 424.895 306.829 428.316C308.988 431.738 302.104 437.074 296.89 432.104C291.676 427.135 291.147 426.157 288.173 424.569C285.241 423.021 283.041 416.259 285.363 408.805C287.685 401.351 286.544 386.605 284.1 373.693C281.615 360.78 285.241 344.365 283.774 340.495C282.308 336.626 305.892 324.976 305.892 324.976L305.933 324.935Z" fill="#FFC4B2"/>
<path d="M306.87 428.276C306.87 428.276 313.306 433.612 315.424 436.219C317.583 438.826 310.902 442.655 304.589 440.455C298.275 438.255 293.061 432.308 288.051 427.787C283.122 423.388 281.778 421.799 282.022 416.789C282.145 414.304 284.711 411.697 284.711 411.697C284.711 411.697 286.259 421.921 293.469 426.198C300.352 430.272 303.163 430.923 306.829 428.235L306.87 428.276Z" fill="#323D3D"/>
<path d="M285.851 336.055C285.851 336.055 285.077 349.864 284.996 356.055C284.914 362.206 283.937 364.161 282.104 371.208C280.271 378.214 278.886 408.235 278.845 417.726C278.804 427.217 284.588 436.015 286.788 439.437C288.947 442.858 282.063 448.194 276.849 443.225C271.635 438.215 271.106 437.278 268.132 435.689C265.199 434.141 263 427.38 265.322 419.925C267.643 412.471 266.503 397.726 264.059 384.813C261.615 371.901 265.688 355.404 264.792 351.371C262.592 341.473 257.216 326.239 262.796 322.899C268.621 319.395 285.851 336.096 285.851 336.096V336.055Z" fill="#FFC4B2"/>
<path d="M286.748 439.396C286.748 439.396 293.184 444.732 295.302 447.339C297.461 449.946 290.78 453.775 284.467 451.575C278.153 449.376 272.939 443.428 267.929 438.907C263 434.508 261.656 432.919 261.9 427.909C262.023 425.424 264.589 422.817 264.589 422.817C264.589 422.817 266.137 433.041 273.346 437.318C280.23 441.392 283.041 442.044 286.707 439.355L286.748 439.396Z" fill="#323D3D"/>
<path d="M309.721 278.01C309.721 278.01 310.291 287.827 310.536 300.495C310.862 316.055 308.458 334.63 308.458 334.63C308.458 334.63 285.322 352.512 277.134 349.62C263.855 344.894 257.257 334.467 257.257 334.467C257.257 334.467 256.931 298.988 263.489 275.811C270.047 252.633 309.273 265.953 309.762 278.051L309.721 278.01Z" fill="#323D3D"/>
<path d="M312.98 321.88C312.898 318.214 312.572 298.295 310.984 279.599C310.128 269.782 307.073 258.947 307.562 253.896C308.458 244.487 309.477 240.739 310.576 234.955C311.717 228.927 310.413 222.287 300.312 209.212C297.827 205.994 292.654 198.702 290.128 195.933C288.458 196.218 287.277 196.503 287.277 196.503C287.277 196.503 285.892 203.794 286.788 206.279C289.68 214.181 290.25 221.595 290.291 222.531C290.291 222.531 290.25 222.531 290.21 222.531C289.802 222.043 285.159 216.421 282.348 214.222C279.415 211.941 271.146 205.342 271.146 205.342C271.146 205.342 256.32 215.525 255.098 220.373C251.065 236.381 267.318 245.546 267.318 245.546C267.48 248.519 267.155 252.959 266.707 257.481C264.792 257.277 263.244 256.585 263.244 256.585C263.244 256.585 257.908 277.481 255.994 287.012C253.672 298.703 253.794 351.697 253.794 351.697C253.794 351.697 254.731 361.31 277.053 366.076C299.375 370.801 313.02 355.078 313.02 355.078C313.02 355.078 313.265 337.155 313.02 321.88H312.98Z" fill="#94B9FB"/>
<path d="M288.132 197.684C288.132 197.684 288.01 206.034 289.517 210.474C290.739 212.389 292.001 218.458 291.268 223.753C288.539 222.206 284.221 217.236 281.452 215.036C275.179 210.026 271.92 205.098 271.92 205.098L274.12 183.102L288.132 197.643V197.684Z" fill="#FFA08D"/>
<path d="M279.618 167.908C285.28 164.038 298.274 163.305 302.347 176.91C306.624 191.167 293.101 208.03 286.502 204.731C282.795 202.898 275.138 196.584 273.264 189.089C271.146 180.658 275.26 170.922 279.659 167.908H279.618Z" fill="#FFC5B3"/>
<path d="M294.161 228.601C294.161 228.601 295.994 242.328 294.161 249.212C292.328 256.096 290.576 264.527 292.409 272.43C294.283 280.332 294.975 316.096 294.161 324.935C293.346 333.774 295.22 357.97 295.22 357.97C295.22 357.97 297.297 330.841 297.705 322.287C298.153 313.693 297.134 284.69 295.709 278.662C294.283 272.593 293.224 266.442 294.731 259.151C296.238 251.859 298.112 234.629 294.161 228.601V228.601Z" fill="#659DE0"/>
<path d="M272.043 201.676C272.043 201.676 270.006 202.45 268.58 204.772C267.888 205.831 266.625 208.723 266.625 208.723C266.625 208.723 270.128 214.018 274.731 218.784C277.786 221.921 280.637 226.849 280.637 226.849C280.637 226.849 284.263 224.161 285.729 223.794C287.195 223.428 292.409 225.75 292.409 225.75C292.409 225.75 290.698 221.147 287.318 217.196C283.937 213.245 272.002 201.676 272.002 201.676H272.043Z" fill="#659DE0"/>
<path d="M287.888 205.098C287.888 205.098 288.499 207.909 289.476 210.475C290.454 213.041 290.739 223.754 290.739 223.754L292.409 225.709C292.409 225.709 294.242 221.717 294.731 220.006C295.22 218.296 296.971 220.006 297.745 220.658C298.519 221.31 300.434 221.188 300.434 221.188C300.434 221.188 299.415 218.255 297.745 214.141C296.075 210.027 292.491 203.591 292.491 203.591C292.491 203.591 290.739 205.057 287.888 205.057V205.098Z" fill="#659DE0"/>
<path d="M303.082 177.114C303.082 177.114 310.536 172.104 306.87 162.206C303.245 152.267 291.921 149.945 282.878 153.692C273.835 157.399 265.77 159.232 262.267 165.749C258.764 172.267 261.493 182.98 263.856 185.831C266.177 188.682 270.577 189.253 270.577 189.253C270.577 189.253 293.754 178.295 303.082 177.155V177.114Z" fill="#94B9FB"/>
<path d="M303.081 177.114L303 179.477C303 179.477 293.183 178.458 283.57 183.55C278.764 186.116 272.979 191.371 272.979 191.371L270.576 189.212C270.576 189.212 274.161 184.894 283.733 180.943C295.912 175.973 303.081 177.073 303.081 177.073V177.114Z" fill="#79ABF2"/>
<path d="M300.312 166.523C300.312 166.523 300.841 169.741 300.108 172.674C299.375 175.607 295.953 178.01 295.953 178.01C295.953 178.01 295.179 177.684 295.953 175.973C296.768 174.262 300.271 166.482 300.271 166.482L300.312 166.523Z" fill="#79ABF2"/>
<path d="M287.807 168.356C287.807 168.356 290.495 174.629 290.169 176.707C289.843 178.784 288.744 180.495 288.744 180.495L287.766 180.332C287.766 180.332 286.788 178.377 287.114 175.811C287.44 173.244 287.807 168.356 287.807 168.356V168.356Z" fill="#79ABF2"/>
<path d="M275.424 173.448C275.424 173.448 279.619 177.277 280.882 178.825C282.145 180.373 283 182.613 283 182.613L282.145 183.346C282.145 183.346 278.641 181.269 277.582 179.721C276.523 178.173 275.383 173.489 275.383 173.489L275.424 173.448Z" fill="#79ABF2"/>
<path d="M267.155 180.087C267.155 180.087 272.247 183.102 273.713 184.242C275.179 185.383 275.505 186.931 275.505 186.931L274.854 187.908C274.854 187.908 271.269 186.931 270.21 185.301C269.151 183.672 267.114 180.087 267.114 180.087H267.155Z" fill="#79ABF2"/>
<path d="M295.18 154.14C298.764 154.589 300.923 155.525 302.552 157.481C303.734 158.906 302.186 159.762 298.56 158.377C295.831 157.318 293.387 159.11 291.432 161.432C289.477 163.754 286.666 160.21 283.53 160.658C280.434 161.106 280.801 166.971 279.456 167.868C278.112 168.764 273.143 165.668 270.821 166.523C268.499 167.379 270.373 173.489 267.766 173.611C265.118 173.733 262.348 175.607 262.104 172.552C261.86 169.497 263.774 167.134 266.177 164.161C267.766 162.165 270.129 160.902 272.124 160.943C274.406 160.943 276.157 162.124 276.972 160.536C278.56 157.44 281.004 156.096 285.159 155.566C291.106 154.833 292.328 153.815 295.18 154.181V154.14Z" fill="#B6D4FF"/>
<path d="M561.466 242.485L81.3018 517.15V395.724L563.259 117.475L561.466 242.485Z" fill="#323D3D"/>
<path d="M72.0146 390.388V511.814L81.3018 517.15V395.724L72.0146 390.388Z" fill="#5C6666"/>
<path d="M72.0146 390.388L81.3018 395.724L563.259 117.475L553.931 112.139L72.0146 390.388Z" fill="#6E7A7A"/>
<path d="M119.917 406.926L95.4366 392.547L94.3368 393.199C89.1229 396.172 85.8643 401.753 85.8643 407.781V409.492L100.447 418.087L143.42 443.341L152.993 426.396L119.877 406.926H119.917Z" fill="#DFE6E8"/>
<path d="M153.034 426.437L625.907 154.623L568.351 120.774L95.4775 392.547L153.034 426.437Z" fill="#CAD2D5"/>
<path d="M85.8643 409.492V426.396L143.461 460.245V443.341L85.8643 409.492Z" fill="#B3C0C4"/>
<path d="M625.907 154.624V183.015L143.461 460.246V441.59C143.461 435.561 146.679 429.981 151.933 427.007L625.907 154.624Z" fill="#9CAAAD"/>
<path d="M159.55 422.649L101.424 389.084L106.434 386.192L164.56 419.757L159.55 422.649Z" fill="#6E7A7A"/>
<path d="M186.679 407.17L128.593 373.606L133.603 370.714L191.689 404.278L186.679 407.17Z" fill="#6E7A7A"/>
<path d="M213.807 391.65L155.722 358.127L160.732 355.235L218.818 388.758L213.807 391.65Z" fill="#6E7A7A"/>
<path d="M240.691 376.05L182.605 342.486L187.616 339.594L245.742 373.158L240.691 376.05Z" fill="#6E7A7A"/>
<path d="M267.738 360.49L209.652 326.966L214.663 324.074L272.748 357.598L267.738 360.49Z" fill="#6E7A7A"/>
<path d="M294.866 345.011L236.78 311.487L241.79 308.595L299.876 342.119L294.866 345.011Z" fill="#6E7A7A"/>
<path d="M322.036 329.533L263.909 295.968L268.919 293.076L327.046 326.64L322.036 329.533Z" fill="#6E7A7A"/>
<path d="M348.919 313.891L290.793 280.367L295.803 277.475L353.93 310.999L348.919 313.891Z" fill="#6E7A7A"/>
<path d="M375.926 298.371L317.84 264.807L322.85 261.915L380.977 295.479L375.926 298.371Z" fill="#6E7A7A"/>
<path d="M403.095 282.893L344.847 249.247L349.857 246.355L408.065 280.001L403.095 282.893Z" fill="#6E7A7A"/>
<path d="M430.223 267.414L371.853 233.728L376.903 230.835L435.234 264.522L430.223 267.414Z" fill="#6E7A7A"/>
<path d="M457.108 251.772L398.981 218.208L403.992 215.316L462.118 248.88L457.108 251.772Z" fill="#6E7A7A"/>
<path d="M484.155 236.212L426.028 202.688L431.039 199.796L489.165 233.361L484.155 236.212Z" fill="#6E7A7A"/>
<path d="M511.283 220.733L453.156 187.21L458.166 184.318L516.293 217.841L511.283 220.733Z" fill="#6E7A7A"/>
<path d="M538.412 205.255L480.326 171.731L485.336 168.839L543.422 202.363L538.412 205.255Z" fill="#6E7A7A"/>
<path d="M565.295 189.613L507.169 156.09L512.22 153.198L570.306 186.762L565.295 189.613Z" fill="#6E7A7A"/>
<path d="M592.342 174.094L534.216 140.53L539.226 137.678L597.352 171.202L592.342 174.094Z" fill="#6E7A7A"/>
<path d="M621.385 157.23L563.259 123.666L568.269 120.774L626.395 154.338L621.385 157.23Z" fill="#6E7A7A"/>
<path d="M641.304 287.251L159.388 561.753V440.327L641.304 162.078V287.251Z" fill="#323D3D"/>
<path d="M150.06 434.991V556.417L159.387 561.753V440.327L150.06 434.991Z" fill="#5C6666"/>
<path d="M150.06 434.991L159.387 440.327L641.304 162.078L632.016 156.742L150.06 434.991Z" fill="#6E7A7A"/>
<path d="M225.742 351.976C219.551 344.074 161.995 339.797 153.685 349.206C145.009 359.023 147.249 372.75 152.3 379.268C158.369 387.088 171.852 393.524 188.512 393.524C205.172 393.524 220.162 386.722 225.416 378.086C228.879 372.384 233.278 361.63 225.742 352.017V351.976Z" fill="#FDB92A"/>
<path d="M227.331 358.127C227.331 370.103 210.06 379.797 188.797 379.797C167.535 379.797 150.264 370.103 150.264 358.127C150.264 346.152 167.535 336.457 188.797 336.457C210.06 336.457 227.331 346.152 227.331 358.127V358.127Z" fill="#FFE26C"/>
<path d="M221.75 354.991C221.75 365.215 207.005 373.524 188.797 373.524C170.589 373.524 155.844 365.215 155.844 354.991C155.844 344.767 170.589 336.457 188.797 336.457C207.005 336.457 221.75 344.767 221.75 354.991Z" fill="#FFEB99"/>
<path d="M216.618 353.687C216.618 362.322 204.154 369.329 188.797 369.329C173.441 369.329 160.977 362.322 160.977 353.687C160.977 345.052 173.441 338.045 188.797 338.045C204.154 338.045 216.618 345.052 216.618 353.687Z" fill="#FF5F5F"/>
<path d="M206.068 351.977C206.068 357.353 198.329 361.712 188.797 361.712C179.266 361.712 171.526 357.353 171.526 351.977C171.526 346.6 179.266 342.241 188.797 342.241C198.329 342.241 206.068 346.6 206.068 351.977Z" fill="white"/>
<path d="M175.233 365.989L210.467 345.989L198.654 339.431L163.42 359.471L175.233 365.989Z" fill="#454F4F"/>
<path d="M173.603 362.567L203.624 345.744L198.939 343.178L168.919 360.001L173.603 362.567Z" fill="white"/>
<path d="M314.5 300.571C308.309 292.669 250.752 288.392 242.443 297.801C233.767 307.618 236.007 321.345 241.058 327.862C247.127 335.683 260.61 342.119 277.27 342.119C293.93 342.119 308.92 335.317 314.174 326.681C317.636 320.978 322.036 310.225 314.5 300.612V300.571Z" fill="#FDB92A"/>
<path d="M316.089 306.721C316.089 318.697 298.818 328.392 277.555 328.392C256.292 328.392 239.021 318.697 239.021 306.721C239.021 294.746 256.292 285.051 277.555 285.051C298.818 285.051 316.089 294.746 316.089 306.721V306.721Z" fill="#FFE26C"/>
<path d="M310.508 303.544C310.508 313.768 295.763 322.078 277.555 322.078C259.347 322.078 244.602 313.768 244.602 303.544C244.602 293.32 259.347 285.011 277.555 285.011C295.763 285.011 310.508 293.32 310.508 303.544Z" fill="#FFEB99"/>
<path d="M305.376 302.241C305.376 310.876 292.912 317.882 277.555 317.882C262.199 317.882 249.734 310.876 249.734 302.241C249.734 293.605 262.199 286.599 277.555 286.599C292.912 286.599 305.376 293.605 305.376 302.241Z" fill="#FF5F5F"/>
<path d="M294.826 300.571C294.826 305.948 287.087 310.306 277.555 310.306C268.024 310.306 260.284 305.948 260.284 300.571C260.284 295.194 268.024 290.835 277.555 290.835C287.087 290.835 294.826 295.194 294.826 300.571Z" fill="white"/>
<path d="M264.031 314.583L299.265 294.542L287.412 288.025L252.178 308.066L264.031 314.583Z" fill="#454F4F"/>
<path d="M262.361 311.121L292.382 294.298L287.738 291.732L257.677 308.555L262.361 311.121Z" fill="white"/>
<path d="M403.299 249.328C397.107 241.426 339.551 237.149 331.242 246.558C322.565 256.375 324.806 270.102 329.857 276.62C335.926 284.441 349.409 290.876 366.069 290.876C382.729 290.876 397.718 284.074 402.973 275.438C406.435 269.736 410.835 258.982 403.299 249.369V249.328Z" fill="#FDB92A"/>
<path d="M366.313 277.149C387.595 277.149 404.847 267.447 404.847 255.479C404.847 243.511 387.595 233.809 366.313 233.809C345.031 233.809 327.779 243.511 327.779 255.479C327.779 267.447 345.031 277.149 366.313 277.149Z" fill="#FFE26C"/>
<path d="M366.313 270.876C384.512 270.876 399.266 262.579 399.266 252.343C399.266 242.107 384.512 233.809 366.313 233.809C348.113 233.809 333.359 242.107 333.359 252.343C333.359 262.579 348.113 270.876 366.313 270.876Z" fill="#FFEB99"/>
<path d="M394.134 251.039C394.134 259.675 381.67 266.681 366.313 266.681C350.957 266.681 338.492 259.675 338.492 251.039C338.492 242.404 350.957 235.397 366.313 235.397C381.67 235.397 394.134 242.404 394.134 251.039V251.039Z" fill="#FF5F5F"/>
<path d="M383.625 249.329C383.625 254.705 375.886 259.064 366.354 259.064C356.822 259.064 349.083 254.705 349.083 249.329C349.083 243.952 356.822 239.593 366.354 239.593C375.886 239.593 383.625 243.952 383.625 249.329Z" fill="white"/>
<path d="M352.789 263.341L388.024 243.3L376.17 236.783L340.977 256.824L352.789 263.341Z" fill="#454F4F"/>
<path d="M351.119 259.919L381.14 243.055L376.496 240.489L346.476 257.353L351.119 259.919Z" fill="white"/>
<path d="M490.753 198.738C484.561 190.835 427.005 186.558 418.696 195.968C410.019 205.784 412.26 219.512 417.311 226.029C423.38 233.85 436.863 240.286 453.523 240.286C470.183 240.286 485.172 233.483 490.427 224.848C493.889 219.145 498.289 208.391 490.753 198.778V198.738Z" fill="#FDB92A"/>
<path d="M453.808 226.559C475.09 226.559 492.342 216.856 492.342 204.888C492.342 192.92 475.09 183.218 453.808 183.218C432.527 183.218 415.274 192.92 415.274 204.888C415.274 216.856 432.527 226.559 453.808 226.559Z" fill="#FFE26C"/>
<path d="M453.808 220.286C472.007 220.286 486.761 211.988 486.761 201.752C486.761 191.516 472.007 183.218 453.808 183.218C435.608 183.218 420.854 191.516 420.854 201.752C420.854 211.988 435.608 220.286 453.808 220.286Z" fill="#FFEB99"/>
<path d="M481.629 200.448C481.629 209.084 469.165 216.09 453.808 216.09C438.452 216.09 425.987 209.084 425.987 200.448C425.987 191.813 438.452 184.807 453.808 184.807C469.165 184.807 481.629 191.813 481.629 200.448V200.448Z" fill="#FF5F5F"/>
<path d="M471.079 198.738C471.079 204.115 463.34 208.473 453.808 208.473C444.276 208.473 436.537 204.115 436.537 198.738C436.537 193.361 444.276 189.002 453.808 189.002C463.34 189.002 471.079 193.361 471.079 198.738Z" fill="white"/>
<path d="M440.243 212.75L475.478 192.75L463.665 186.192L428.431 206.233L440.243 212.75Z" fill="#454F4F"/>
<path d="M438.573 209.328L468.634 192.505L463.95 189.898L433.93 206.762L438.573 209.328Z" fill="white"/>
<path d="M579.511 147.495C573.319 139.593 515.763 135.316 507.454 144.725C498.777 154.542 501.018 168.269 506.069 174.786C512.138 182.648 525.621 189.043 542.281 189.043C558.94 189.043 573.93 182.24 579.185 173.605C582.647 167.902 587.046 157.149 579.511 147.536V147.495Z" fill="#FDB92A"/>
<path d="M542.566 175.316C563.848 175.316 581.1 165.614 581.1 153.646C581.1 141.678 563.848 131.976 542.566 131.976C521.284 131.976 504.032 141.678 504.032 153.646C504.032 165.614 521.284 175.316 542.566 175.316Z" fill="#FFE26C"/>
<path d="M542.566 169.043C560.765 169.043 575.519 160.745 575.519 150.509C575.519 140.273 560.765 131.976 542.566 131.976C524.366 131.976 509.612 140.273 509.612 150.509C509.612 160.745 524.366 169.043 542.566 169.043Z" fill="#FFEB99"/>
<path d="M570.387 149.206C570.387 157.841 557.922 164.847 542.566 164.847C527.21 164.847 514.745 157.841 514.745 149.206C514.745 140.57 527.21 133.564 542.566 133.564C557.922 133.564 570.387 140.57 570.387 149.206V149.206Z" fill="#FF5F5F"/>
<path d="M559.837 147.495C559.837 152.872 552.097 157.23 542.566 157.23C533.034 157.23 525.295 152.872 525.295 147.495C525.295 142.118 533.034 137.76 542.566 137.76C552.097 137.76 559.837 142.118 559.837 147.495Z" fill="white"/>
<path d="M529.042 161.548L564.276 141.507L552.423 134.949L517.188 154.99L529.042 161.548Z" fill="#454F4F"/>
<path d="M527.372 158.086L557.392 141.263L552.749 138.697L522.688 155.52L527.372 158.086Z" fill="white"/>
<path d="M253.916 219.843C257.012 213 265.362 221.106 266.543 224.283C269.191 231.493 268.498 242.776 268.946 248.56C269.272 252.389 268.498 263.143 268.498 263.143C268.498 263.143 280.107 292.756 284.71 297.399C289.313 302.084 293.875 303.591 296.116 305.505C298.397 307.46 298.112 309.864 296.319 308.723C294.364 307.46 291.187 306.279 291.187 306.279C291.187 306.279 296.116 311.167 296.604 315.281C296.89 317.807 294.69 320.373 287.399 316.503C282.226 313.733 277.052 302.532 274.649 300.047C272.246 297.562 259.863 282.613 256.971 274.629C255.993 271.941 247.969 232.959 253.916 219.884V219.843Z" fill="#FFC5B3"/>
<path d="M261.125 213.204C264.466 212.145 268.743 224.283 269.761 232.145C270.779 240.006 271.92 265.261 271.92 265.261C271.92 265.261 283.814 284.243 285.728 296.218C280.555 298.784 278.233 301.595 277.134 305.668C273.997 305.383 268.091 296.666 263.651 290.678C258.193 283.224 258.193 281.065 255.26 276.503C251.716 271.045 251.024 247.053 250.25 239.273C248.946 225.749 252.775 215.892 261.085 213.244L261.125 213.204Z" fill="#659DE0"/>
<path d="M367.78 218.86C366.151 217.882 361.466 218.86 357.434 218.86C354.704 218.86 350.02 218.045 347.21 217.516C347.413 220.489 345.947 223.666 343.91 226.07C345.01 227.088 346.476 228.473 347.821 229.654C350.305 231.935 352.831 234.909 352.749 231.772C352.668 228.636 350.468 228.351 351.772 226.558C353.075 224.807 359.063 225.296 362.607 223.585C366.151 221.874 369.409 219.837 367.78 218.819V218.86Z" fill="#FFC5B3"/>
<path d="M1112.02 366.314H1065.62V376.131H1112.02V366.314Z" fill="#8A999B"/>
<path d="M1112.02 376.09C1112.02 383.3 1101.63 389.125 1088.84 389.125C1076.05 389.125 1065.66 383.259 1065.66 376.09C1065.66 368.921 1076.05 363.056 1088.84 363.056C1101.63 363.056 1112.02 368.881 1112.02 376.09Z" fill="#8A999B"/>
<path d="M1112.02 367.414C1112.02 374.624 1101.63 380.449 1088.84 380.449C1076.05 380.449 1065.66 374.583 1065.66 367.414C1065.66 360.245 1076.05 354.379 1088.84 354.379C1101.63 354.379 1112.02 360.204 1112.02 367.414Z" fill="#9CAAAD"/>
<path d="M1099.35 365.378C1099.35 368.636 1094.67 371.284 1088.84 371.284C1083.02 371.284 1078.33 368.636 1078.33 365.378C1078.33 362.119 1083.02 359.471 1088.84 359.471C1094.67 359.471 1099.35 362.119 1099.35 365.378Z" fill="#4F5A5B"/>
<path d="M1099.31 128.228H1078.33V365.378H1099.31V128.228Z" fill="#4F5A5B"/>
<path d="M1099.35 128.228C1099.35 131.487 1094.67 134.134 1088.84 134.134C1083.02 134.134 1078.33 131.487 1078.33 128.228C1078.33 124.969 1083.02 122.322 1088.84 122.322C1094.67 122.322 1099.35 124.969 1099.35 128.228Z" fill="#4F5A5B"/>
<path d="M1063.06 328.637V460.816C1063.06 481.916 1075.03 501.428 1095.36 517.395V328.637H1063.06Z" fill="#94B9FB"/>
<path d="M1215.44 328.636V557.313C1222.12 557.761 1228.88 558.006 1235.81 558.006C1274.26 558.006 1309.78 550.918 1338.5 538.943V328.596H1215.44V328.636Z" fill="#94B9FB"/>
<path d="M1393.73 328.636V500.124C1403.18 488.107 1408.47 474.828 1408.47 460.816V328.636H1393.73V328.636Z" fill="#94B9FB"/>
<path d="M1338.46 328.636V538.983C1362.37 529.003 1381.55 515.643 1393.73 500.124V328.636H1338.46Z" fill="#94B9FB"/>
<path opacity="0.5" d="M1338.46 328.636V538.983C1362.37 529.003 1381.55 515.643 1393.73 500.124V328.636H1338.46Z" fill="#B6D4FF"/>
<path d="M1155.4 328.636V546.845C1173.73 552.262 1193.97 555.888 1215.44 557.313V328.636H1155.4V328.636Z" fill="#94B9FB"/>
<path opacity="0.5" d="M1155.4 328.636V546.845C1173.73 552.262 1193.97 555.888 1215.44 557.313V328.636H1155.4V328.636Z" fill="#7CAAED"/>
<path d="M1095.36 328.636V517.395C1099.64 520.735 1104.24 523.912 1109.21 526.926V328.636H1095.36Z" fill="#94B9FB"/>
<path opacity="0.5" d="M1095.36 328.636V517.395C1099.64 520.735 1104.24 523.912 1109.21 526.926V328.636H1095.36Z" fill="#7CAAED"/>
<path d="M1109.21 328.636V526.926C1122.45 534.951 1138.05 541.712 1155.4 546.845V328.636H1109.21Z" fill="#7CAAED"/>
<path d="M1235.77 425.826C1331.15 425.826 1408.48 382.313 1408.48 328.637C1408.48 274.96 1331.15 231.447 1235.77 231.447C1140.38 231.447 1063.06 274.96 1063.06 328.637C1063.06 382.313 1140.38 425.826 1235.77 425.826Z" fill="#B6D4FF"/>
<path d="M1235.77 274.461C1312.26 274.461 1375.97 305.174 1390.23 345.867C1392.18 340.286 1393.24 334.543 1393.24 328.637C1393.24 279.716 1322.77 240.042 1235.81 240.042C1148.84 240.042 1078.37 279.716 1078.37 328.637C1078.37 334.543 1079.43 340.286 1081.39 345.867C1095.64 305.174 1159.35 274.461 1235.85 274.461H1235.77Z" fill="#94B9FB"/>
<path d="M1235.77 417.231C1312.26 417.231 1375.97 386.519 1390.23 345.826C1375.97 305.133 1312.26 274.42 1235.77 274.42C1159.27 274.42 1095.56 305.133 1081.3 345.826C1095.56 386.519 1159.27 417.231 1235.77 417.231Z" fill="#FFE26C"/>
<path d="M1274.22 335.724C1274.22 335.724 1298.9 329.044 1321.63 343.423C1340.13 355.154 1329.62 370.836 1329.62 370.836C1329.62 370.836 1329.62 357.516 1313.65 348.433C1291.69 335.928 1274.22 335.724 1274.22 335.724V335.724Z" fill="#FDB92A"/>
<path d="M1183.3 291.406C1183.3 291.406 1207.99 284.726 1230.72 299.105C1249.21 310.836 1238.7 326.518 1238.7 326.518C1238.7 326.518 1238.7 313.198 1222.73 304.115C1200.78 291.61 1183.3 291.406 1183.3 291.406V291.406Z" fill="#FDB92A"/>
<path d="M1436.09 530.103H1389.7V539.92H1436.09V530.103Z" fill="#8A999B"/>
<path d="M1436.09 539.92C1436.09 547.13 1425.71 552.955 1412.92 552.955C1400.13 552.955 1389.74 547.13 1389.74 539.92C1389.74 532.71 1400.13 526.885 1412.92 526.885C1425.71 526.885 1436.09 532.71 1436.09 539.92Z" fill="#8A999B"/>
<path d="M1436.09 531.244C1436.09 538.453 1425.71 544.278 1412.92 544.278C1400.13 544.278 1389.74 538.413 1389.74 531.244C1389.74 524.075 1400.13 518.209 1412.92 518.209C1425.71 518.209 1436.09 524.034 1436.09 531.244Z" fill="#9CAAAD"/>
<path d="M1423.38 529.207C1423.38 532.466 1418.7 535.113 1412.87 535.113C1407.05 535.113 1402.37 532.466 1402.37 529.207C1402.37 525.948 1407.05 523.301 1412.87 523.301C1418.7 523.301 1423.38 525.948 1423.38 529.207Z" fill="#4F5A5B"/>
<path d="M1423.38 292.058H1402.41V529.207H1423.38V292.058Z" fill="#4F5A5B"/>
<path d="M1423.38 292.058C1423.38 295.316 1418.7 297.964 1412.87 297.964C1407.05 297.964 1402.37 295.316 1402.37 292.058C1402.37 288.799 1407.05 286.151 1412.87 286.151C1418.7 286.151 1423.38 288.799 1423.38 292.058Z" fill="#4F5A5B"/>
<path d="M1382.49 257.557H1329.62V282.322H1382.49V257.557Z" fill="#8A999B"/>
<path d="M1382.49 282.323C1382.49 290.551 1370.67 297.19 1356.05 297.19C1341.43 297.19 1329.62 290.51 1329.62 282.323C1329.62 274.135 1341.43 267.455 1356.05 267.455C1370.67 267.455 1382.49 274.095 1382.49 282.323Z" fill="#8A999B"/>
<path d="M1382.49 257.557C1382.49 265.785 1370.67 272.424 1356.05 272.424C1341.43 272.424 1329.62 265.744 1329.62 257.557C1329.62 249.369 1341.43 242.689 1356.05 242.689C1370.67 242.689 1382.49 249.328 1382.49 257.557Z" fill="#9CAAAD"/>
<path d="M1169.45 309.818L1173.32 307.414V284.97L1169.45 287.211V309.818Z" fill="#B3C0C4"/>
<path d="M1178.33 293.198V313.28H1181.75V293.361L1178.33 293.198Z" fill="#CAD2D5"/>
<path d="M1180.04 314.257C1180.99 314.257 1181.75 313.82 1181.75 313.28C1181.75 312.74 1180.99 312.302 1180.04 312.302C1179.1 312.302 1178.33 312.74 1178.33 313.28C1178.33 313.82 1179.1 314.257 1180.04 314.257Z" fill="#CAD2D5"/>
<path d="M1185.18 297.231V317.312H1188.6V297.435L1185.18 297.231Z" fill="#CAD2D5"/>
<path d="M1188.6 317.313C1188.6 317.842 1187.82 318.29 1186.89 318.29C1185.95 318.29 1185.18 317.842 1185.18 317.313C1185.18 316.783 1185.95 316.335 1186.89 316.335C1187.82 316.335 1188.6 316.783 1188.6 317.313Z" fill="#CAD2D5"/>
<path d="M1192.75 301.508V321.549H1196.17V301.671L1192.75 301.508Z" fill="#CAD2D5"/>
<path d="M1194.46 322.526C1195.41 322.526 1196.17 322.088 1196.17 321.548C1196.17 321.009 1195.41 320.571 1194.46 320.571C1193.52 320.571 1192.75 321.009 1192.75 321.548C1192.75 322.088 1193.52 322.526 1194.46 322.526Z" fill="#CAD2D5"/>
<path d="M1199.59 305.459V325.5H1203.02V305.622L1199.59 305.459Z" fill="#CAD2D5"/>
<path d="M1201.31 326.477C1202.25 326.477 1203.02 326.04 1203.02 325.5C1203.02 324.96 1202.25 324.522 1201.31 324.522C1200.36 324.522 1199.59 324.96 1199.59 325.5C1199.59 326.04 1200.36 326.477 1201.31 326.477Z" fill="#CAD2D5"/>
<path d="M1212.47 335.072L1209.25 333.198V314.339L1169.49 291.039V309.858L1166.23 307.985V285.459L1212.47 312.465V335.072Z" fill="#CAD2D5"/>
<path d="M1170.1 283.259L1166.23 285.5L1212.47 312.465L1216.34 310.225L1170.1 283.259Z" fill="#E1E8EA"/>
<path d="M1212.47 335.072L1216.34 332.669V310.225L1212.47 312.465V335.072Z" fill="#B3C0C4"/>
<path d="M1195.64 298.697C1195.64 299.593 1194.34 300.327 1192.75 300.327C1191.16 300.327 1189.86 299.593 1189.86 298.697C1189.86 297.801 1191.16 297.068 1192.75 297.068C1194.34 297.068 1195.64 297.801 1195.64 298.697Z" fill="#B3C0C4"/>
<path d="M1195.64 298.738H1189.9V246.233L1143.34 164.481L1148.43 161.874L1195.64 244.848V298.738Z" fill="#B3C0C4"/>
<path d="M1261.92 360.083L1265.79 357.679V335.235L1261.92 337.476V360.083Z" fill="#B3C0C4"/>
<path d="M1270.8 343.463V363.545H1274.22V343.626L1270.8 343.463Z" fill="#CAD2D5"/>
<path d="M1274.22 363.545C1274.22 364.075 1273.44 364.523 1272.51 364.523C1271.57 364.523 1270.8 364.075 1270.8 363.545C1270.8 363.015 1271.57 362.567 1272.51 362.567C1273.44 362.567 1274.22 363.015 1274.22 363.545Z" fill="#CAD2D5"/>
<path d="M1277.64 347.496V367.578H1281.06V347.659L1277.64 347.496Z" fill="#CAD2D5"/>
<path d="M1281.06 367.578C1281.06 368.107 1280.29 368.555 1279.35 368.555C1278.41 368.555 1277.64 368.107 1277.64 367.578C1277.64 367.048 1278.41 366.6 1279.35 366.6C1280.29 366.6 1281.06 367.048 1281.06 367.578Z" fill="#CAD2D5"/>
<path d="M1285.18 351.732V371.814H1288.64V351.936L1285.18 351.732Z" fill="#CAD2D5"/>
<path d="M1286.89 372.792C1287.83 372.792 1288.6 372.354 1288.6 371.814C1288.6 371.274 1287.83 370.836 1286.89 370.836C1285.94 370.836 1285.18 371.274 1285.18 371.814C1285.18 372.354 1285.94 372.792 1286.89 372.792Z" fill="#CAD2D5"/>
<path d="M1292.06 355.684V375.765H1295.48V355.887L1292.06 355.684Z" fill="#CAD2D5"/>
<path d="M1293.77 376.743C1294.72 376.743 1295.48 376.305 1295.48 375.765C1295.48 375.225 1294.72 374.788 1293.77 374.788C1292.83 374.788 1292.06 375.225 1292.06 375.765C1292.06 376.305 1292.83 376.743 1293.77 376.743Z" fill="#CAD2D5"/>
<path d="M1304.93 385.337L1301.71 383.464V364.563L1261.92 341.305V360.123L1258.7 358.25V335.724L1304.93 362.73V385.337Z" fill="#CAD2D5"/>
<path d="M1262.57 333.524L1258.7 335.724L1304.93 362.73L1308.8 360.49L1262.57 333.524Z" fill="#E1E8EA"/>
<path d="M1304.93 385.337L1308.8 382.934V360.49L1304.93 362.73V385.337Z" fill="#B3C0C4"/>
<path d="M1176.74 139.715H1123.87V164.481H1176.74V139.715Z" fill="#8A999B"/>
<path d="M1176.7 164.481C1176.7 172.709 1164.89 179.349 1150.27 179.349C1135.64 179.349 1123.83 172.668 1123.83 164.481C1123.83 156.294 1135.64 149.613 1150.27 149.613C1164.89 149.613 1176.7 156.253 1176.7 164.481Z" fill="#8A999B"/>
<path d="M1150.27 154.583C1164.87 154.583 1176.7 147.927 1176.7 139.715C1176.7 131.504 1164.87 124.848 1150.27 124.848C1135.67 124.848 1123.83 131.504 1123.83 139.715C1123.83 147.927 1135.67 154.583 1150.27 154.583Z" fill="#9CAAAD"/>
<path d="M1406.19 296.254L1057.03 94.6235V116.416L1406.19 315.317V296.254Z" fill="#B3C0C4"/>
<path d="M1451.77 269.939L1406.19 296.253V315.316L1451.77 289.369V269.939Z" fill="#9CAAAD"/>
<path d="M1102.61 68.3096L1057.03 94.6233L1406.19 296.253L1451.78 269.94L1102.61 68.3096Z" fill="#CAD2D5"/>
<path d="M1287.25 348.433C1287.25 349.329 1285.95 350.062 1284.36 350.062C1282.77 350.062 1281.47 349.329 1281.47 348.433C1281.47 347.536 1282.77 346.803 1284.36 346.803C1285.95 346.803 1287.25 347.536 1287.25 348.433Z" fill="#B3C0C4"/>
<path d="M1287.25 348.473H1281.51V289.736L1345.83 272.424V279.879L1287.25 294.583V348.473Z" fill="#B3C0C4"/>
<path d="M1156.62 308.188C1156.62 308.188 1135.89 319.186 1156.62 333.565C1175.07 346.355 1199.23 338.453 1199.23 338.453C1199.23 338.453 1173.08 338.453 1158.98 327.577C1148.68 319.634 1156.62 308.147 1156.62 308.147V308.188Z" fill="#FDB92A"/>
<path d="M1140.69 314.868C1140.69 314.868 1121.06 329.166 1141.79 343.545C1160.25 356.335 1189.98 351.04 1189.98 351.04C1189.98 351.04 1158.21 348.433 1144.16 337.557C1133.85 329.614 1140.69 314.828 1140.69 314.828V314.868Z" fill="#FDB92A"/>
<path d="M1252.79 360.164C1252.79 360.164 1232.06 371.162 1252.79 385.541C1271.25 398.331 1295.4 390.429 1295.4 390.429C1295.4 390.429 1269.25 390.429 1255.16 379.553C1244.85 371.61 1252.79 360.123 1252.79 360.123V360.164Z" fill="#FDB92A"/>
<path d="M1236.87 366.844C1236.87 366.844 1217.23 381.141 1237.97 395.52C1256.42 408.31 1286.15 403.015 1286.15 403.015C1286.15 403.015 1254.38 400.408 1240.33 389.532C1230.02 381.589 1236.87 366.803 1236.87 366.803V366.844Z" fill="#FDB92A"/>
<path d="M1405.38 488.8V601.102L1348.07 568.433V456.091L1405.38 488.8Z" fill="#CAD2D5"/>
<path d="M1425.5 477.313L1405.38 488.8V601.102L1425.5 589.615V477.313Z" fill="#9CAAAD"/>
<path d="M1420.86 485.012L1410.02 491.162V594.666L1420.86 588.474V485.012Z" fill="#8E9DA0"/>
<path d="M1351.04 472.995L1391.78 496.172V536.05L1351.04 512.873V472.995Z" fill="#9CAAAD"/>
<path d="M1403.51 596.743L1349.98 566.274V517.028L1403.51 547.496V596.743ZM1351.04 565.663L1402.41 594.91V548.148L1351.04 518.861V565.663V565.663Z" fill="#9CAAAD"/>
<path d="M1394.63 484.197L1403.63 489.37V543.912L1394.63 538.779V484.197Z" fill="#9CAAAD"/>
<path d="M1377.48 490.062L1390.51 497.476V507.782L1377.48 500.368V490.062Z" fill="white"/>
<path d="M1377.48 502.364L1390.51 509.778V533.444L1377.48 526.03V502.364Z" fill="#323D3D"/>
<path d="M1353.28 477.68V511.366L1374.91 523.22V489.533L1353.28 477.68ZM1352.59 476.499L1375.64 489.126V524.442L1352.59 511.814V476.499V476.499Z" fill="#323D3D"/>
<path d="M1389.25 481.468C1391.04 482.486 1392.47 485.256 1392.47 487.659C1392.47 490.063 1391 491.122 1389.25 490.103C1387.46 489.085 1386.03 486.315 1386.03 483.912C1386.03 481.509 1387.5 480.45 1389.25 481.468Z" fill="#323D3D"/>
<path d="M1387.5 482.527C1387.91 482.364 1388.39 482.405 1388.92 482.69C1390.23 483.464 1391.33 485.5 1391.33 487.252C1391.33 488.148 1391.04 488.8 1390.59 489.126L1388.15 490.511L1385.05 483.871L1387.5 482.486V482.527Z" fill="#FF4D4D"/>
<path d="M1386.56 484.034C1387.86 484.808 1388.96 486.845 1388.96 488.596C1388.96 490.348 1387.91 491.163 1386.56 490.389C1385.26 489.615 1384.16 487.578 1384.16 485.826C1384.16 484.075 1385.22 483.26 1386.56 484.034Z" fill="#FF5F5F"/>
<path d="M1377.89 475.48C1379.68 476.499 1381.1 479.268 1381.1 481.672C1381.1 484.075 1379.64 485.134 1377.89 484.116C1376.09 483.097 1374.67 480.327 1374.67 477.924C1374.67 475.521 1376.13 474.462 1377.89 475.48Z" fill="#323D3D"/>
<path d="M1376.13 476.499C1376.54 476.336 1377.03 476.376 1377.56 476.662C1378.86 477.435 1379.96 479.472 1379.96 481.224C1379.96 482.12 1379.68 482.772 1379.23 483.097L1376.79 484.482L1373.69 477.843L1376.13 476.458V476.499Z" fill="#FF4D4D"/>
<path d="M1375.2 478.046C1376.5 478.82 1377.6 480.857 1377.6 482.609C1377.6 484.36 1376.54 485.175 1375.2 484.401C1373.89 483.627 1372.79 481.59 1372.79 479.839C1372.79 478.087 1373.85 477.272 1375.2 478.046Z" fill="#FF5F5F"/>
<path d="M1366.28 468.515C1368.07 469.533 1369.49 472.303 1369.49 474.706C1369.49 477.11 1368.03 478.169 1366.28 477.15C1364.48 476.132 1363.06 473.362 1363.06 470.959C1363.06 468.556 1364.52 467.497 1366.28 468.515Z" fill="#323D3D"/>
<path d="M1364.53 469.574C1364.93 469.411 1365.42 469.452 1365.95 469.737C1367.25 470.511 1368.35 472.547 1368.35 474.299C1368.35 475.195 1368.07 475.847 1367.62 476.173L1365.18 477.558L1362.08 470.918L1364.53 469.533V469.574Z" fill="#FF4D4D"/>
<path d="M1363.59 471.081C1364.89 471.855 1365.99 473.892 1365.99 475.643C1365.99 477.395 1364.93 478.209 1363.59 477.435C1362.28 476.662 1361.18 474.625 1361.18 472.873C1361.18 471.122 1362.24 470.307 1363.59 471.081Z" fill="#FF5F5F"/>
<path d="M1354.83 462.527C1356.62 463.545 1358.05 466.315 1358.05 468.719C1358.05 471.122 1356.58 472.181 1354.83 471.163C1353.04 470.144 1351.61 467.374 1351.61 464.971C1351.61 462.568 1353.08 461.509 1354.83 462.527Z" fill="#323D3D"/>
<path d="M1353.08 463.546C1353.49 463.383 1353.97 463.423 1354.5 463.708C1355.81 464.482 1356.91 466.519 1356.91 468.271C1356.91 469.167 1356.62 469.818 1356.17 470.144L1353.73 471.529L1350.63 464.89L1353.08 463.505V463.546Z" fill="#FF4D4D"/>
<path d="M1352.14 465.093C1353.44 465.867 1354.54 467.904 1354.54 469.655C1354.54 471.407 1353.49 472.222 1352.14 471.448C1350.84 470.674 1349.74 468.637 1349.74 466.886C1349.74 465.134 1350.8 464.319 1352.14 465.093Z" fill="#FF5F5F"/>
<path d="M1373.93 490.592L1368.84 487.619V489.533L1373.93 492.507V490.592Z" fill="white"/>
<path d="M1373.93 495.48L1368.84 492.507V494.421L1373.93 497.436V495.48Z" fill="white"/>
<path d="M1373.93 500.613L1368.84 497.639V499.554L1373.93 502.527V500.613Z" fill="white"/>
<path d="M1359.47 483.138L1354.38 480.165V482.079L1359.47 485.053V483.138Z" fill="white"/>
<path d="M1359.47 488.026L1354.38 485.053V486.967L1359.47 489.981V488.026Z" fill="white"/>
<path d="M1359.47 493.159L1354.38 490.185V492.1L1359.47 495.073V493.159Z" fill="white"/>
<path d="M1373.93 509.492L1368.84 506.519V508.433L1373.93 511.407V509.492Z" fill="white"/>
<path d="M1373.93 514.584L1368.84 511.61V513.525L1373.93 516.539V514.584Z" fill="white"/>
<path d="M1373.93 519.513L1368.84 516.539V518.454L1373.93 521.427V519.513Z" fill="white"/>
<path d="M1359.47 502.038L1354.38 499.064V500.979L1359.47 503.952V502.038Z" fill="white"/>
<path d="M1359.47 507.13L1354.38 504.156V506.071L1359.47 509.085V507.13Z" fill="white"/>
<path d="M1359.47 512.058L1354.38 509.085V510.999L1359.47 513.973V512.058Z" fill="white"/>
<path d="M1401.39 498.576L1396.3 495.602V497.517L1401.39 500.49V498.576Z" fill="#323D3D"/>
<path d="M1398.54 487.7C1400.17 488.637 1401.51 491.203 1401.51 493.362C1401.51 495.521 1400.17 496.539 1398.54 495.602C1396.91 494.665 1395.56 492.099 1395.56 489.94C1395.56 487.781 1396.91 486.763 1398.54 487.7Z" fill="#323D3D"/>
<path d="M1398.21 488.922C1399.35 489.574 1400.29 491.366 1400.29 492.873C1400.29 494.38 1399.35 495.073 1398.21 494.421C1397.07 493.769 1396.13 491.977 1396.13 490.47C1396.13 488.963 1397.07 488.27 1398.21 488.922Z" fill="white"/>
<path d="M1401.39 512.303L1396.3 509.329V511.244L1401.39 514.258V512.303Z" fill="#323D3D"/>
<path d="M1398.54 501.427C1400.17 502.364 1401.51 504.93 1401.51 507.089C1401.51 509.248 1400.17 510.266 1398.54 509.329C1396.91 508.392 1395.56 505.826 1395.56 503.667C1395.56 501.508 1396.91 500.49 1398.54 501.427Z" fill="#323D3D"/>
<path d="M1398.21 502.649C1399.35 503.301 1400.29 505.093 1400.29 506.6C1400.29 508.107 1399.35 508.8 1398.21 508.148C1397.07 507.496 1396.13 505.704 1396.13 504.197C1396.13 502.69 1397.07 501.997 1398.21 502.649Z" fill="white"/>
<path d="M1401.39 525.704L1396.3 522.73V524.645L1401.39 527.618V525.704Z" fill="#323D3D"/>
<path d="M1398.54 514.828C1400.17 515.765 1401.51 518.331 1401.51 520.49C1401.51 522.649 1400.17 523.667 1398.54 522.731C1396.91 521.794 1395.56 519.228 1395.56 517.069C1395.56 514.91 1396.91 513.891 1398.54 514.828V514.828Z" fill="#323D3D"/>
<path d="M1398.21 516.01C1399.35 516.662 1400.29 518.454 1400.29 519.961C1400.29 521.468 1399.35 522.161 1398.21 521.509C1397.07 520.857 1396.13 519.065 1396.13 517.558C1396.13 516.051 1397.07 515.358 1398.21 516.01Z" fill="white"/>
<path d="M1401.39 539.431L1396.3 536.458V538.372L1401.39 541.346V539.431Z" fill="#323D3D"/>
<path d="M1398.54 528.555C1400.17 529.492 1401.51 532.058 1401.51 534.217C1401.51 536.376 1400.17 537.395 1398.54 536.458C1396.91 535.521 1395.56 532.955 1395.56 530.796C1395.56 528.637 1396.91 527.618 1398.54 528.555Z" fill="#323D3D"/>
<path d="M1398.21 529.777C1399.35 530.429 1400.29 532.221 1400.29 533.728C1400.29 535.236 1399.35 535.928 1398.21 535.276C1397.07 534.625 1396.13 532.832 1396.13 531.325C1396.13 529.818 1397.07 529.126 1398.21 529.777Z" fill="white"/>
<path d="M1425.5 477.313L1405.38 488.8L1348.07 456.091L1368.35 445.541L1425.5 477.313Z" fill="white"/>
<path d="M796.01 219.349L701.305 273.768V427.089L796.01 373.28V219.349Z" fill="#323D3D"/>
<path d="M691.977 268.392V421.753L701.305 427.089V273.768L691.977 268.392Z" fill="#5C6666"/>
<path d="M691.977 268.392L701.305 273.768L796.01 219.349L786.682 214.013L691.977 268.392Z" fill="#6E7A7A"/>
<path d="M766.111 345.988L700.856 383.667L958.739 531.977L1023.99 494.298L766.111 345.988Z" fill="#6E7A7A"/>
<path d="M700.856 383.667V390.673L958.739 538.983V531.977L700.856 383.667Z" fill="#5C6666"/>
<path d="M1023.99 494.298V501.264L958.739 538.983V531.977L1023.99 494.298Z" fill="#9CAAAD"/>
<path d="M832.629 394.217C832.629 408.392 812.792 419.92 788.311 419.92C763.83 419.92 743.993 408.433 743.993 394.217C743.993 380.001 763.83 368.514 788.311 368.514C812.792 368.514 832.629 380.001 832.629 394.217Z" fill="#B3C0C4"/>
<path d="M832.67 349.899H743.993V394.176H832.67V349.899Z" fill="#B3C0C4"/>
<path d="M788.311 376.742C812.787 376.742 832.629 365.235 832.629 351.04C832.629 336.844 812.787 325.337 788.311 325.337C763.835 325.337 743.993 336.844 743.993 351.04C743.993 365.235 763.835 376.742 788.311 376.742Z" fill="#CAD2D5"/>
<path d="M788.311 337.557C808.067 337.557 824.604 345.378 828.596 355.846C829.207 354.258 829.533 352.628 829.533 350.958C829.533 338.127 811.081 327.74 788.311 327.74C765.541 327.74 747.089 338.127 747.089 350.958C747.089 352.628 747.415 354.298 748.026 355.846C752.018 345.378 768.515 337.557 788.311 337.557V337.557Z" fill="#9CAAAD"/>
<path d="M788.311 374.176C808.066 374.176 824.604 366.355 828.596 355.887C824.604 345.418 808.107 337.598 788.311 337.598C768.514 337.598 752.017 345.418 748.025 355.887C752.017 366.355 768.514 374.176 788.311 374.176V374.176Z" fill="#FFE26C"/>
<path d="M897.802 433.117C897.802 447.293 877.965 458.82 853.484 458.82C829.003 458.82 809.166 447.333 809.166 433.117C809.166 418.901 829.003 407.415 853.484 407.415C877.965 407.415 897.802 418.901 897.802 433.117Z" fill="#9CAAAD"/>
<path d="M897.842 388.84H809.166V433.117H897.842V388.84Z" fill="#9CAAAD"/>
<path d="M897.802 389.981C897.802 404.156 877.965 415.683 853.484 415.683C829.003 415.683 809.166 404.196 809.166 389.981C809.166 375.765 829.003 364.278 853.484 364.278C877.965 364.278 897.802 375.765 897.802 389.981Z" fill="#CAD2D5"/>
<path d="M853.484 376.457C873.24 376.457 889.777 384.278 893.769 394.746C894.38 393.158 894.706 391.528 894.706 389.858C894.706 377.027 876.254 366.64 853.484 366.64C830.714 366.64 812.262 377.027 812.262 389.858C812.262 391.528 812.588 393.198 813.199 394.746C817.19 384.278 833.687 376.457 853.484 376.457V376.457Z" fill="#9CAAAD"/>
<path d="M853.484 413.076C873.239 413.076 889.777 405.255 893.769 394.787C889.777 384.318 873.28 376.498 853.484 376.498C833.687 376.498 817.19 384.318 813.198 394.787C817.19 405.255 833.687 413.076 853.484 413.076V413.076Z" fill="#FFE26C"/>
<path d="M917.924 493.851C942.4 493.851 962.242 482.343 962.242 468.148C962.242 453.953 942.4 442.445 917.924 442.445C893.448 442.445 873.606 453.953 873.606 468.148C873.606 482.343 893.448 493.851 917.924 493.851Z" fill="#B3C0C4"/>
<path d="M962.242 423.871H873.565V468.148H962.242V423.871Z" fill="#B3C0C4"/>
<path d="M962.242 425.011C962.242 439.187 942.405 450.714 917.924 450.714C893.444 450.714 873.606 439.227 873.606 425.011C873.606 410.795 893.444 399.309 917.924 399.309C942.405 399.309 962.242 410.795 962.242 425.011Z" fill="#CAD2D5"/>
<path d="M917.924 411.529C937.68 411.529 954.218 419.349 958.21 429.818C958.821 428.229 959.146 426.6 959.146 424.93C959.146 412.099 940.694 401.712 917.924 401.712C895.154 401.712 876.702 412.099 876.702 424.93C876.702 426.6 877.028 428.27 877.639 429.818C881.631 419.349 898.128 411.529 917.924 411.529Z" fill="#9CAAAD"/>
<path d="M917.924 448.107C937.68 448.107 954.217 440.287 958.209 429.818C954.217 419.35 937.72 411.529 917.924 411.529C898.128 411.529 881.631 419.35 877.639 429.818C881.631 440.287 898.128 448.107 917.924 448.107Z" fill="#FFE26C"/>
<path d="M766.111 261.507L700.856 299.226L958.739 447.496L1023.99 409.817L766.111 261.507Z" fill="#6E7A7A"/>
<path d="M700.856 299.227V306.233L958.739 454.502V447.496L700.856 299.227Z" fill="#5C6666"/>
<path d="M1023.99 409.817V416.824L958.739 454.502V447.496L1023.99 409.817Z" fill="#9CAAAD"/>
<path d="M832.629 309.736C832.629 323.911 812.792 335.439 788.311 335.439C763.83 335.439 743.993 323.952 743.993 309.736C743.993 295.52 763.83 284.033 788.311 284.033C812.792 284.033 832.629 295.52 832.629 309.736Z" fill="#B3C0C4"/>
<path d="M832.67 265.458H743.993V309.736H832.67V265.458Z" fill="#B3C0C4"/>
<path d="M832.629 266.599C832.629 280.774 812.792 292.302 788.311 292.302C763.83 292.302 743.993 280.815 743.993 266.599C743.993 252.383 763.83 240.896 788.311 240.896C812.792 240.896 832.629 252.383 832.629 266.599Z" fill="#CAD2D5"/>
<path d="M788.311 253.117C808.067 253.117 824.604 260.937 828.596 271.406C829.207 269.817 829.533 268.188 829.533 266.518C829.533 253.687 811.081 243.3 788.311 243.3C765.541 243.3 747.089 253.687 747.089 266.518C747.089 268.188 747.415 269.858 748.026 271.406C752.018 260.937 768.515 253.117 788.311 253.117V253.117Z" fill="#9CAAAD"/>
<path d="M788.311 289.695C808.066 289.695 824.604 281.874 828.596 271.406C824.604 260.937 808.107 253.117 788.311 253.117C768.514 253.117 752.017 260.937 748.025 271.406C752.017 281.874 768.514 289.695 788.311 289.695V289.695Z" fill="#FFE26C"/>
<path d="M853.484 374.339C877.96 374.339 897.802 362.832 897.802 348.636C897.802 334.441 877.96 322.934 853.484 322.934C829.008 322.934 809.166 334.441 809.166 348.636C809.166 362.832 829.008 374.339 853.484 374.339Z" fill="#9CAAAD"/>
<path d="M897.842 304.359H809.166V348.636H897.842V304.359Z" fill="#9CAAAD"/>
<path d="M897.802 305.5C897.802 319.675 877.965 331.202 853.484 331.202C829.003 331.202 809.166 319.716 809.166 305.5C809.166 291.284 829.003 279.797 853.484 279.797C877.965 279.797 897.802 291.284 897.802 305.5Z" fill="#CAD2D5"/>
<path d="M853.484 292.017C873.24 292.017 889.777 299.838 893.769 310.306C894.38 308.718 894.706 307.088 894.706 305.418C894.706 292.587 876.254 282.2 853.484 282.2C830.714 282.2 812.262 292.587 812.262 305.418C812.262 307.088 812.588 308.758 813.199 310.306C817.19 299.838 833.687 292.017 853.484 292.017V292.017Z" fill="#9CAAAD"/>
<path d="M853.484 328.596C873.239 328.596 889.777 320.775 893.769 310.306C889.777 299.838 873.28 292.017 853.484 292.017C833.687 292.017 817.19 299.838 813.198 310.306C817.19 320.775 833.687 328.596 853.484 328.596V328.596Z" fill="#FFE26C"/>
<path d="M962.242 383.708C962.242 397.883 942.405 409.41 917.924 409.41C893.444 409.41 873.606 397.924 873.606 383.708C873.606 369.492 893.444 358.005 917.924 358.005C942.405 358.005 962.242 369.492 962.242 383.708Z" fill="#B3C0C4"/>
<path d="M962.242 339.39H873.565V383.667H962.242V339.39Z" fill="#B3C0C4"/>
<path d="M917.924 366.274C942.4 366.274 962.242 354.766 962.242 340.571C962.242 326.376 942.4 314.868 917.924 314.868C893.448 314.868 873.606 326.376 873.606 340.571C873.606 354.766 893.448 366.274 917.924 366.274Z" fill="#CAD2D5"/>
<path d="M917.924 327.047C937.68 327.047 954.218 334.868 958.21 345.336C958.821 343.748 959.146 342.119 959.146 340.448C959.146 327.617 940.694 317.23 917.924 317.23C895.154 317.23 876.702 327.617 876.702 340.448C876.702 342.119 877.028 343.789 877.639 345.336C881.631 334.868 898.128 327.047 917.924 327.047Z" fill="#9CAAAD"/>
<path d="M917.924 363.666C937.68 363.666 954.217 355.846 958.209 345.377C954.217 334.909 937.72 327.088 917.924 327.088C898.128 327.088 881.631 334.909 877.639 345.377C881.631 355.846 898.128 363.666 917.924 363.666Z" fill="#FFE26C"/>
<path d="M1030.02 352.873L935.317 407.252V560.613L1030.02 506.763V352.873Z" fill="#323D3D"/>
<path d="M926.03 401.916V555.277L935.317 560.613V407.252L926.03 401.916Z" fill="#5C6666"/>
<path d="M926.03 401.915L935.317 407.251L1030.02 352.872L1020.74 347.496L926.03 401.915Z" fill="#6E7A7A"/>
<path d="M721.467 314.665C723.096 304.196 722.73 293.768 720.245 282.689L701.548 283.137C701.548 283.137 696.131 294.909 694.746 303.748C693.361 312.546 695.398 316.742 698.901 320.897C702.404 325.052 714.868 319.512 715.357 319.186C715.479 319.105 717.923 317.312 721.508 314.705L721.467 314.665Z" fill="#FFD0CA"/>
<path d="M752.384 511.733C752.384 511.733 766.804 505.297 773.932 505.012C781.06 504.686 781.753 513.077 773.932 519.594C766.111 526.071 760.123 526.967 753.728 529.574C747.944 531.936 745.867 532.14 741.264 529.126C735.113 525.134 740.042 514.625 740.042 514.625L752.384 511.733V511.733Z" fill="#323D3D"/>
<path d="M710.673 487.007C710.673 487.007 722.119 482.201 729.247 481.916C736.375 481.59 738.942 487.781 731.121 494.258C723.3 500.734 718.412 502.201 712.017 504.808C706.233 507.17 704.196 507.333 699.552 504.36C693.239 500.368 698.167 489.818 698.33 489.859L710.673 486.967V487.007Z" fill="#323D3D"/>
<path d="M753.28 344.93C753.28 344.93 765.867 412.914 765.867 434.299C765.867 471.936 765.541 511.611 765.541 511.611C765.541 511.611 759.309 518.169 753.24 518.169C739.553 518.169 738.209 511.325 738.209 511.325C738.209 511.325 738.005 466.437 736.824 446.071C736.01 431.895 735.154 411.895 729.451 395.439C729.288 412.384 729.329 417.802 727.944 436.213C726.926 449.818 721.264 486.315 720.938 488.678C716.62 493.892 703.178 497.517 696.376 489.859C696.906 483.871 700.694 441.712 700.205 419.838C699.757 399.757 694.624 352.18 706.111 342.934C716.05 334.909 753.321 344.93 753.321 344.93H753.28Z" fill="#454F4F"/>
<path d="M718.494 301.589C717.883 291.569 716.335 285.703 716.335 285.703L723.015 264.4C723.015 264.4 713.647 259.634 707.292 267.21C705.419 269.451 692.18 296.335 692.017 313.239C691.936 320.082 698.779 323.545 705.581 325.54C708.84 331.202 707.7 301.915 718.494 301.549V301.589Z" fill="#659DE0"/>
<path d="M737.191 222.689C732.181 219.227 722.527 220.286 718.331 229.125C716.009 234.013 719.268 247.17 719.798 256.416C720.205 263.87 717.72 268.188 717.72 268.188L724.115 270.836C730.511 273.483 737.191 270.836 737.191 270.836L736.987 259.471C736.987 259.471 743.871 258.453 745.093 257.353C747.985 254.705 749.533 246.803 748.189 236.579C746.193 221.386 739.065 223.992 737.232 222.689H737.191Z" fill="#FFD0CA"/>
<path d="M754.461 304.278C758.249 296.212 749.695 281.589 747.292 276.335C744.889 271.08 737.231 267.903 737.231 267.903L713.932 264.44C713.932 264.44 703.748 282.159 702.363 292.75C701.426 300.164 706.437 314.257 702.567 332.669C692.058 382.526 695.602 421.508 693.769 426.844C701.956 435.276 726.274 448.596 736.783 446.03C753.565 441.916 767.944 426.559 772.14 421.427C770.225 412.18 746.722 320.734 754.461 304.278V304.278Z" fill="#94B9FB"/>
<path d="M737.109 264.685C737.109 264.685 727.781 267.414 722.323 263.137C714.543 257.068 713.688 265.622 713.688 265.622C713.688 265.622 716.987 270.184 723.463 272.261C729.94 274.338 735.846 273.931 742.242 270.795C742.282 266.599 737.15 264.725 737.15 264.725L737.109 264.685Z" fill="#659DE0"/>
<path d="M737.598 239.267C740.286 236.783 743.3 234.664 745.826 232.017C746.07 231.121 746.233 230.347 746.355 229.736C746.844 226.966 747.007 222.852 743.219 218.941C739.431 214.99 726.315 213.728 721.59 216.497C716.864 219.227 706.763 224.237 710.266 240.612C713.117 253.809 719.838 256.457 719.838 256.457C719.838 256.457 722.241 256.864 725.418 252.832C727.903 249.695 729.858 245.744 729.858 245.744C729.858 245.744 730.021 241.06 732.751 238.616C734.502 236.986 736.294 237.964 737.598 239.308V239.267Z" fill="#323D3D"/>
<path d="M758.291 334.868C765.867 328.962 763.627 321.182 759.594 308.84L757.109 301.06L739.635 308.188C739.635 308.188 744.034 320.001 746.641 325.377C750.307 333.035 754.258 335.601 757.965 336.294C758.372 336.375 757.965 334.909 758.331 334.868H758.291Z" fill="#FFD0CA"/>
<path d="M759.268 339.838C767.578 341.63 760.612 324.522 765.256 318.208C761.875 302.933 752.751 274.502 745.378 272.058C741.427 270.754 734.339 284.481 735.521 294.217C735.847 296.946 739.635 337.72 759.268 339.879V339.838Z" fill="#659DE0"/>
<path d="M796.132 308.636C791.244 309.044 788.555 309.206 788.555 309.206C788.555 309.206 789.655 307.699 790.714 305.255C791.814 302.811 790.429 302.567 788.555 305.255C786.641 307.944 779.064 315.072 779.064 315.072C764.441 318.249 750.021 323.993 750.021 323.993C750.021 323.993 750.021 332.71 755.928 335.683C761.793 338.657 776.702 325.052 783.138 322.282C783.138 322.282 796.824 320.367 801.549 314.054C803.667 311.202 801.02 308.229 796.132 308.636V308.636Z" fill="#FFD0CA"/>
<path d="M776.172 314.624C776.172 314.624 761.834 316.905 754.584 318.168C747.374 319.431 745.948 331.813 749.533 334.746C753.117 337.638 759.39 342.567 765.256 339.146C769.9 336.416 782.364 327.333 782.364 327.333C782.364 327.333 784.604 317.598 776.213 314.624H776.172Z" fill="#659DE0"/>
<path d="M746.966 227.292C746.966 227.292 749.573 220.856 744.319 216.701C739.064 212.506 722.404 209.695 714.095 214.053C705.785 218.371 699.919 234.583 701.019 241.915C702.119 249.247 704.359 259.878 710.918 261.711C717.435 263.544 733.973 253.931 734.787 248.88C735.643 243.87 734.787 242.485 734.787 242.485C734.787 242.485 746.193 235.968 746.966 227.332V227.292Z" fill="#94B9FB"/>
<path d="M746.966 227.292C746.966 227.292 745.459 231.935 741.59 235.642C737.679 239.349 734.787 242.444 734.787 242.444C734.787 242.444 741.345 239.552 744.522 236.742C747.74 233.931 747.618 232.383 747.618 232.383L746.926 227.292H746.966Z" fill="#659DE0"/>
<path d="M732.099 244.155C732.099 244.155 727.537 248.229 725.011 250.55C722.486 252.831 721.834 254.583 721.834 254.583C721.834 254.583 728.229 252.75 729.858 250.021C731.488 247.292 732.099 244.196 732.099 244.196V244.155Z" fill="#79ABF2"/>
<path d="M738.29 235.642C738.29 235.642 734.542 233.809 729.614 236.05C724.726 238.29 723.056 241.752 723.056 241.752C723.056 241.752 731.121 239.878 732.791 238.575C734.461 237.272 738.29 235.642 738.29 235.642V235.642Z" fill="#79ABF2"/>
<path d="M732.099 227.292C732.099 227.292 733.728 230.591 737.109 230.184C740.49 229.777 742.608 230.184 742.608 230.184C742.608 230.184 739.512 226.518 732.099 227.292V227.292Z" fill="#79ABF2"/>
<path d="M729.899 214.909C735.316 214.909 737.475 217.597 737.027 220C736.579 222.404 733.728 223.3 730.428 225.173C727.129 227.006 722.567 233.361 721.06 240.408C719.593 247.414 717.72 253.85 712.547 253.891C707.373 253.931 704.4 252.465 703.341 247.536C702.282 242.607 703.585 241.752 706.559 243.463C712.872 247.129 714.705 244.44 716.416 236.334C718.127 228.228 722.771 226.151 726.396 222.567C730.021 218.941 723.707 214.909 729.899 214.909V214.909Z" fill="#B6D4FF"/>
<path d="M507.21 310.876C507.21 310.876 491.446 315.561 485.621 316.742C479.796 317.923 466.477 321.019 466.477 321.019L469.369 327.048C469.369 327.048 493.157 327.944 500.204 327.048C507.251 326.151 510.387 321.345 510.387 321.345L507.251 310.917L507.21 310.876Z" fill="#FFC5B3"/>
<path d="M528.962 530.999C528.962 530.999 525.459 534.788 520.775 539.35C516.457 543.586 515.113 544.767 511.08 548.718C508.718 550.999 510.673 553.118 515.153 552.955C519.105 552.792 527.984 550.877 532.954 549.085C536.498 547.822 542.974 544.238 546.274 542.12C549.573 540.042 550.225 537.109 550.225 537.109V530.062L528.921 530.959L528.962 530.999Z" fill="#4F5A5B"/>
<path d="M592.953 524.767C592.953 524.767 590.713 528.026 586.029 532.588C581.711 536.824 580.408 538.494 576.579 543.504C575.723 544.645 575.194 547.944 579.674 547.781C583.626 547.619 589.573 545.949 594.583 544.197C600.285 542.16 605.092 536.458 608.391 534.339C611.691 532.262 613.157 527.619 613.157 527.619L610.876 520.694L592.953 524.767V524.767Z" fill="#4F5A5B"/>
<path d="M591.162 410.51C592.832 384.685 578.575 371.08 578.575 371.08C579.716 362.363 539.308 374.543 539.308 374.543C539.308 374.543 530.673 421.345 527.007 445.989C522.852 474.013 525.377 531.04 525.377 531.04C525.377 531.04 525.907 537.109 536.335 537.069C544.359 537.069 550.266 530.022 550.266 530.022L551.08 465.093L560.367 419.064C560.367 419.064 569.288 456.498 572.139 469.899C575.154 484.197 586.681 526.437 586.681 526.437C586.681 526.437 594.135 535.032 603.423 530.388C612.71 525.745 610.877 520.572 610.877 520.572C610.877 520.572 609.044 490.592 597.15 463.749C596.172 443.382 590.429 422.282 591.203 410.429L591.162 410.51Z" fill="#323D3D"/>
<path d="M561.548 286.518C561.548 286.518 563.422 281.141 547.536 286.029C544.807 286.885 533.075 292.221 526.11 295.846C515.642 301.263 503.096 306.966 503.096 306.966C503.096 306.966 503.299 313.035 506.069 326.314C512.749 325.378 540.448 319.797 550.631 313.809C566.68 304.4 564.603 292.628 561.548 286.518Z" fill="#79ABF2"/>
<path d="M551.569 290.795C551.569 290.795 541.793 303.055 538.819 314.501C536.986 321.589 536.66 344.685 536.742 361.222C536.742 371.365 521.06 454.135 521.06 454.135C521.06 454.135 544.318 470.958 575.683 463.097C587.618 460.123 602.893 449.94 602.893 449.94C602.893 449.94 588.881 365.377 589.736 359.512C592.18 342.689 596.864 317.597 596.131 312.057C595.153 304.603 578.045 292.994 578.045 292.994C578.045 292.994 563.952 285.907 551.528 290.795H551.569Z" fill="#94B9FB"/>
<path d="M559.144 289.572L556.741 303.544C556.741 303.544 556.741 305.133 558.859 309.695C562.688 306.518 567.047 308.799 570.794 305.581C577.76 299.634 578.737 296.864 578.737 296.864L575.316 277.841L559.104 289.613L559.144 289.572Z" fill="#FFAD97"/>
<path d="M568.961 256.864C563.014 252.342 548.961 250.876 543.829 265.418C538.452 280.652 552.22 299.715 559.593 296.456C563.707 294.664 572.383 288.228 574.786 280.204C577.515 271.161 573.564 260.367 568.961 256.864Z" fill="#FFC5B3"/>
<path d="M566.517 271.894C570.917 270.346 575.275 268.676 578.778 265.54C578.778 265.458 578.778 265.377 578.778 265.295C577.515 259.634 569.858 248.391 559.145 249.41C548.473 250.387 542.24 257.475 540.896 263.585C540.244 266.64 541.466 269.165 542.566 270.265C545.01 272.75 548.595 275.52 555.968 274.338C561.996 273.361 566.314 270.509 566.314 270.509L566.517 271.894Z" fill="#722B0C"/>
<path d="M551.65 414.991C551.65 414.991 549.206 431.08 549.695 439.349C550.183 447.618 552.057 458.29 552.057 458.29C552.057 458.29 552.994 444.074 553.279 436.865C553.564 429.655 554.501 417.027 554.501 417.027L551.609 414.991H551.65Z" fill="#79ABF2"/>
<path d="M557.394 312.75C557.394 312.75 553.565 320.734 552.139 328.555C550.673 336.375 553.035 354.99 553.565 360.978C554.094 366.966 553.32 374.054 553.32 374.054L556.783 374.909C556.783 374.909 556.049 349.125 554.583 340.937C553.117 332.75 557.597 316.579 557.434 312.75H557.394Z" fill="#79ABF2"/>
<path d="M540 268.554C539.145 269.776 541.548 274.257 541.548 274.257C541.548 274.257 557.964 278.534 564.848 279.348C571.732 280.163 577.842 277.882 577.842 277.882C577.842 277.882 543.381 263.748 540 268.554Z" fill="#79ABF2"/>
<path d="M540.163 269.206C540.163 269.206 535.927 266.395 537.842 257.801C539.756 249.206 544.4 243.096 556.09 241.222C567.78 239.308 574.827 242.485 579.227 249.654C583.626 256.823 589.084 264.074 587.292 270.102C585.5 276.131 576.62 278.249 576.62 278.249C576.62 278.249 570.836 279.023 561.711 276.579C552.587 274.135 540.204 269.206 540.204 269.206H540.163Z" fill="#94B9FB"/>
<path d="M543.463 256.375C543.463 256.375 540.163 260.448 541.222 264.888C542.281 269.328 544.522 272.831 544.522 272.831L547.536 273.564C547.536 273.564 543.34 267.251 543.177 264.155C543.055 261.019 543.463 256.375 543.463 256.375V256.375Z" fill="#79ABF2"/>
<path d="M553.239 260.774C553.239 260.774 549.328 263.87 549.899 266.64C550.469 269.41 550.306 274.827 550.306 274.827L551.976 275.398C551.976 275.398 553.565 271.161 552.954 268.229C552.343 265.255 553.198 260.774 553.198 260.774H553.239Z" fill="#79ABF2"/>
<path d="M572.057 244.766C567.821 241.833 562.281 244.155 557.108 244.603C551.975 245.051 548.228 248.228 552.546 252.628C555.56 255.723 560.815 258.004 568.921 262.77C573.238 265.296 575.805 272.954 582.729 269.817C585.255 268.677 584.236 264.074 580.489 257.149C578.656 253.809 577.515 248.554 572.057 244.766V244.766Z" fill="#B6D4FF"/>
<path d="M567.088 269.328C567.088 269.328 564.074 270.102 561.956 272.098C559.797 274.094 558.29 276.905 558.29 276.905L559.879 277.434C559.879 277.434 560.693 275.072 562.852 273.157C565.011 271.243 567.088 269.328 567.088 269.328V269.328Z" fill="#79ABF2"/>
<path d="M497.76 307.781C497.76 307.781 501.711 305.744 504.277 306.762C506.843 307.781 511.731 311.08 512.546 317.353C513.36 323.585 510.631 326.762 508.921 328.147C507.21 329.532 500.163 327.007 500.163 327.007C500.163 327.007 503.299 322.322 500.407 317.353C498.208 313.565 494.216 314.583 494.216 314.583C494.216 314.583 495.071 309.491 497.76 307.781V307.781Z" fill="#B6D4FF"/>
<path d="M580.204 432.587L424.236 342.689V347.577L580.204 436.864V432.587Z" fill="#FDB92A"/>
<path d="M627.984 405.826L580.204 432.587V436.864L627.984 410.184V405.826Z" fill="#E99C13"/>
<path d="M472.017 315.927L424.236 342.689L580.204 432.588L627.984 405.826L472.017 315.927Z" fill="#FFEB99"/>
<path d="M463.259 317.516C458.656 318.412 463.992 323.259 467.373 323.259C470.754 323.259 468.961 319.512 468.35 318.901C467.739 318.29 463.259 317.475 463.259 317.475V317.516Z" fill="#FFC5B3"/>
<path d="M461.793 324.726V333.117C461.793 337.434 468.025 340.937 475.683 340.937C483.341 340.937 489.573 337.434 489.573 333.117V324.726H461.834H461.793Z" fill="#FDB92A"/>
<path d="M475.683 332.546C483.354 332.546 489.573 329.045 489.573 324.726C489.573 320.406 483.354 316.905 475.683 316.905C468.012 316.905 461.793 320.406 461.793 324.726C461.793 329.045 468.012 332.546 475.683 332.546Z" fill="#FFE26C"/>
<path d="M486.925 324.155C486.925 327.618 481.956 330.428 475.805 330.428C469.654 330.428 464.685 327.618 464.685 324.155C464.685 320.693 469.654 317.882 475.805 317.882C481.956 317.882 486.925 320.693 486.925 324.155Z" fill="#FFEB99"/>
<path d="M486.192 338.208V346.6C486.192 350.917 492.425 354.42 500.082 354.42C507.74 354.42 513.973 350.917 513.973 346.6V338.208H486.233H486.192Z" fill="#FDB92A"/>
<path d="M500.082 346.029C507.754 346.029 513.973 342.528 513.973 338.208C513.973 333.889 507.754 330.388 500.082 330.388C492.411 330.388 486.192 333.889 486.192 338.208C486.192 342.528 492.411 346.029 500.082 346.029Z" fill="#FFE26C"/>
<path d="M500.205 343.871C506.347 343.871 511.325 341.062 511.325 337.598C511.325 334.133 506.347 331.325 500.205 331.325C494.064 331.325 489.085 334.133 489.085 337.598C489.085 341.062 494.064 343.871 500.205 343.871Z" fill="#FFEB99"/>
<path d="M509.491 351.772V360.164C509.491 364.481 515.723 367.984 523.381 367.984C531.039 367.984 537.271 364.481 537.271 360.164V351.772H509.532H509.491Z" fill="#FDB92A"/>
<path d="M523.381 359.593C531.053 359.593 537.271 356.092 537.271 351.772C537.271 347.453 531.053 343.952 523.381 343.952C515.71 343.952 509.491 347.453 509.491 351.772C509.491 356.092 515.71 359.593 523.381 359.593Z" fill="#FFE26C"/>
<path d="M534.624 351.202C534.624 354.664 529.655 357.475 523.504 357.475C517.353 357.475 512.384 354.664 512.384 351.202C512.384 347.74 517.353 344.929 523.504 344.929C529.655 344.929 534.624 347.74 534.624 351.202Z" fill="#FFEB99"/>
<path d="M533.892 365.255V373.646C533.892 377.964 540.124 381.467 547.782 381.467C555.44 381.467 561.672 377.964 561.672 373.646V365.255H533.932H533.892Z" fill="#FDB92A"/>
<path d="M561.631 365.255C561.631 369.573 555.398 373.076 547.741 373.076C540.083 373.076 533.851 369.573 533.851 365.255C533.851 360.938 540.083 357.435 547.741 357.435C555.398 357.435 561.631 360.938 561.631 365.255Z" fill="#FFE26C"/>
<path d="M547.903 370.958C554.045 370.958 559.024 368.149 559.024 364.685C559.024 361.221 554.045 358.412 547.903 358.412C541.762 358.412 536.783 361.221 536.783 364.685C536.783 368.149 541.762 370.958 547.903 370.958Z" fill="#FFEB99"/>
<path d="M557.395 379.471V387.862C557.395 392.18 563.627 395.683 571.285 395.683C578.942 395.683 585.175 392.18 585.175 387.862V379.471H557.435H557.395Z" fill="#FDB92A"/>
<path d="M571.244 387.292C578.915 387.292 585.134 383.791 585.134 379.471C585.134 375.152 578.915 371.65 571.244 371.65C563.572 371.65 557.354 375.152 557.354 379.471C557.354 383.791 563.572 387.292 571.244 387.292Z" fill="#FFE26C"/>
<path d="M571.406 385.174C577.548 385.174 582.527 382.365 582.527 378.901C582.527 375.436 577.548 372.628 571.406 372.628C565.265 372.628 560.286 375.436 560.286 378.901C560.286 382.365 565.265 385.174 571.406 385.174Z" fill="#FFEB99"/>
<path d="M581.753 392.954V401.345C581.753 405.663 587.985 409.166 595.643 409.166C603.301 409.166 609.533 405.663 609.533 401.345V392.954H581.794H581.753Z" fill="#FDB92A"/>
<path d="M609.533 392.954C609.533 397.272 603.301 400.775 595.643 400.775C587.985 400.775 581.753 397.272 581.753 392.954C581.753 388.636 587.985 385.133 595.643 385.133C603.301 385.133 609.533 388.636 609.533 392.954Z" fill="#FFE26C"/>
<path d="M595.806 398.657C601.947 398.657 606.926 395.848 606.926 392.384C606.926 388.919 601.947 386.111 595.806 386.111C589.664 386.111 584.686 388.919 584.686 392.384C584.686 395.848 589.664 398.657 595.806 398.657Z" fill="#FFEB99"/>
<path d="M440.082 338.208V346.6C440.082 350.917 446.314 354.42 453.972 354.42C461.63 354.42 467.862 350.917 467.862 346.6V338.208H440.123H440.082Z" fill="#FDB92A"/>
<path d="M453.972 346.029C461.643 346.029 467.862 342.528 467.862 338.208C467.862 333.889 461.643 330.388 453.972 330.388C446.301 330.388 440.082 333.889 440.082 338.208C440.082 342.528 446.301 346.029 453.972 346.029Z" fill="#FFE26C"/>
<path d="M454.095 343.871C460.236 343.871 465.215 341.062 465.215 337.598C465.215 334.133 460.236 331.325 454.095 331.325C447.953 331.325 442.975 334.133 442.975 337.598C442.975 341.062 447.953 343.871 454.095 343.871Z" fill="#FFEB99"/>
<path d="M464.481 351.691V360.082C464.481 364.4 470.714 367.903 478.371 367.903C486.029 367.903 492.262 364.4 492.262 360.082V351.691H464.522H464.481Z" fill="#FDB92A"/>
<path d="M492.221 351.691C492.221 356.009 485.988 359.512 478.331 359.512C470.673 359.512 464.44 356.009 464.44 351.691C464.44 347.373 470.673 343.87 478.331 343.87C485.988 343.87 492.221 347.373 492.221 351.691Z" fill="#FFE26C"/>
<path d="M489.613 351.08C489.613 354.542 484.644 357.353 478.493 357.353C472.342 357.353 467.373 354.542 467.373 351.08C467.373 347.618 472.342 344.807 478.493 344.807C484.644 344.807 489.613 347.618 489.613 351.08Z" fill="#FFEB99"/>
<path d="M487.781 365.255V373.646C487.781 377.964 494.013 381.467 501.671 381.467C509.329 381.467 515.561 377.964 515.561 373.646V365.255H487.822H487.781Z" fill="#FDB92A"/>
<path d="M515.52 365.255C515.52 369.573 509.288 373.076 501.63 373.076C493.972 373.076 487.74 369.573 487.74 365.255C487.74 360.938 493.972 357.435 501.63 357.435C509.288 357.435 515.52 360.938 515.52 365.255Z" fill="#FFE26C"/>
<path d="M501.793 370.958C507.935 370.958 512.913 368.149 512.913 364.685C512.913 361.221 507.935 358.412 501.793 358.412C495.652 358.412 490.673 361.221 490.673 364.685C490.673 368.149 495.652 370.958 501.793 370.958Z" fill="#FFEB99"/>
<path d="M512.14 378.738V387.129C512.14 391.447 518.372 394.95 526.03 394.95C533.688 394.95 539.92 391.447 539.92 387.129V378.738H512.18H512.14Z" fill="#FDB92A"/>
<path d="M526.03 386.559C533.701 386.559 539.92 383.057 539.92 378.738C539.92 374.419 533.701 370.917 526.03 370.917C518.358 370.917 512.14 374.419 512.14 378.738C512.14 383.057 518.358 386.559 526.03 386.559Z" fill="#FFE26C"/>
<path d="M537.272 378.167C537.272 381.63 532.302 384.44 526.151 384.44C520.001 384.44 515.031 381.63 515.031 378.167C515.031 374.705 520.001 371.895 526.151 371.895C532.302 371.895 537.272 374.705 537.272 378.167Z" fill="#FFEB99"/>
<path d="M535.684 392.954V401.345C535.684 405.663 541.916 409.166 549.574 409.166C557.232 409.166 563.464 405.663 563.464 401.345V392.954H535.724H535.684Z" fill="#FDB92A"/>
<path d="M563.423 392.954C563.423 397.272 557.19 400.775 549.533 400.775C541.875 400.775 535.643 397.272 535.643 392.954C535.643 388.636 541.875 385.133 549.533 385.133C557.19 385.133 563.423 388.636 563.423 392.954Z" fill="#FFE26C"/>
<path d="M549.695 398.657C555.837 398.657 560.816 395.848 560.816 392.384C560.816 388.919 555.837 386.111 549.695 386.111C543.554 386.111 538.575 388.919 538.575 392.384C538.575 395.848 543.554 398.657 549.695 398.657Z" fill="#FFEB99"/>
<path d="M560.042 406.437V414.828C560.042 419.145 566.274 422.648 573.932 422.648C581.59 422.648 587.822 419.145 587.822 414.828V406.437H560.083H560.042Z" fill="#FDB92A"/>
<path d="M573.932 414.257C581.603 414.257 587.822 410.756 587.822 406.437C587.822 402.117 581.603 398.616 573.932 398.616C566.261 398.616 560.042 402.117 560.042 406.437C560.042 410.756 566.261 414.257 573.932 414.257Z" fill="#FFE26C"/>
<path d="M585.174 405.866C585.174 409.329 580.205 412.139 574.054 412.139C567.903 412.139 562.934 409.329 562.934 405.866C562.934 402.404 567.903 399.593 574.054 399.593C580.205 399.593 585.174 402.404 585.174 405.866Z" fill="#FFEB99"/>
<path d="M623.667 363.993C623.707 363.585 623.667 363.137 623.667 362.689C618.127 360.734 612.139 361.956 606.681 363.952C606.681 364.115 606.762 364.278 606.762 364.4C606.844 368.759 607.984 400.531 604.4 408.351C603.015 411.366 596.783 413.606 596.864 414.543C597.149 417.15 604.522 416.783 604.522 416.783C604.522 416.783 602.933 421.06 600.856 425.337C602.933 428.148 605.825 429.655 612.75 426.233C623.381 420.979 614.624 412.221 615.194 409.207C616.212 403.545 622.037 375.357 623.707 363.993H623.667Z" fill="#FFC5B3"/>
<path d="M587.618 301.263C590.062 301.223 595.031 300.449 599.675 304.889C603.341 308.392 606.6 315.398 608.555 321.589C613.28 336.661 623.708 360.978 623.708 360.978H604.074C604.074 360.978 591.406 347.414 585.581 329.736C582.241 319.593 585.174 308.269 587.618 301.263V301.263Z" fill="#79ABF2"/>
<path d="M602.892 365.092C602.689 361.874 601.589 356.457 611.202 354.176C621.996 351.569 626.396 354.787 626.925 359.43C627.455 364.074 626.721 367.17 626.029 370.102C625.296 373.198 621.956 374.013 621.956 374.013C621.956 374.013 622.2 367.495 615.723 366.681C610.917 366.07 606.884 370.306 606.884 370.306C606.884 370.306 603.218 370.184 602.892 365.051V365.092Z" fill="#B6D4FF"/>
<path d="M553.239 295.153C553.239 295.153 550.754 298.738 549.858 301.182C548.962 303.626 547.007 308.473 547.007 308.473C547.007 308.473 551.976 305.214 553.239 306.477C554.502 307.74 558.819 309.654 558.819 309.654C558.819 309.654 556.986 302.933 558.249 299.715L559.512 296.498C559.512 296.498 555.805 296.66 553.198 295.153H553.239Z" fill="#79ABF2"/>
<path d="M577.353 289.084C577.353 289.084 575.357 295.316 571.284 298.493C567.17 301.671 558.86 309.695 558.86 309.695C558.86 309.695 564.196 308.962 565.255 311.65C566.315 314.339 570.469 316.946 570.469 316.946C570.469 316.946 578.005 306.111 580.245 302.445C582.486 298.779 583.708 292.546 577.394 289.125L577.353 289.084Z" fill="#79ABF2"/>
<path d="M171.404 202.485C170.549 202.485 169.734 202.485 168.919 202.444C167.779 202.404 166.923 201.426 166.964 200.326C167.005 199.186 167.982 198.33 169.082 198.371C172.993 198.534 176.944 198.289 180.773 197.556C181.913 197.353 182.932 198.086 183.135 199.186C183.339 200.285 182.606 201.344 181.506 201.548C178.206 202.159 174.785 202.485 171.363 202.485H171.404ZM156.984 200.489C156.984 200.489 156.618 200.489 156.414 200.408C152.341 199.267 148.43 197.638 144.724 195.56C143.746 195.031 143.379 193.768 143.95 192.79C144.479 191.813 145.742 191.446 146.72 192.017C150.141 193.931 153.807 195.438 157.555 196.497C158.654 196.823 159.265 197.923 158.94 199.023C158.695 199.919 157.881 200.489 156.984 200.489ZM192.83 197.964C192.056 197.964 191.282 197.516 190.956 196.742C190.508 195.723 190.956 194.501 191.974 194.053C195.559 192.465 198.94 190.469 202.076 188.106C202.972 187.414 204.235 187.617 204.928 188.513C205.62 189.41 205.416 190.672 204.52 191.365C201.139 193.931 197.473 196.09 193.604 197.801C193.319 197.923 193.074 197.964 192.789 197.964H192.83ZM135.844 188.676C135.355 188.676 134.866 188.513 134.459 188.147C131.322 185.296 128.553 182.078 126.149 178.615C125.498 177.678 125.742 176.416 126.679 175.764C127.616 175.112 128.878 175.357 129.53 176.293C131.73 179.511 134.337 182.485 137.229 185.133C138.043 185.907 138.125 187.169 137.351 188.025C136.944 188.473 136.414 188.676 135.844 188.676V188.676ZM212.137 183.34C211.689 183.34 211.2 183.177 210.834 182.852C209.978 182.118 209.856 180.856 210.549 180C213.074 176.986 215.192 173.687 216.944 170.183C217.433 169.165 218.655 168.758 219.673 169.287C220.691 169.776 221.099 170.998 220.569 172.016C218.695 175.805 216.374 179.348 213.644 182.607C213.237 183.096 212.667 183.34 212.056 183.34H212.137ZM122.117 168.717C121.302 168.717 120.528 168.228 120.202 167.414C118.654 163.462 117.595 159.348 117.025 155.153C116.862 154.053 117.636 152.994 118.777 152.872C119.876 152.709 120.935 153.483 121.058 154.623C121.587 158.493 122.605 162.322 124.031 165.947C124.438 167.006 123.909 168.188 122.891 168.595C122.646 168.676 122.402 168.717 122.157 168.717H122.117ZM222.932 161.67C222.932 161.67 222.606 161.67 222.484 161.629C221.384 161.385 220.691 160.285 220.976 159.185C221.873 155.397 222.321 151.487 222.321 147.536C222.321 147.047 222.484 146.64 222.769 146.273C222.484 145.947 222.28 145.499 222.28 145.051C222.076 141.141 221.465 137.23 220.365 133.483C220.04 132.383 220.691 131.283 221.75 130.957C222.809 130.631 223.95 131.283 224.276 132.342C225.457 136.375 226.15 140.611 226.353 144.847C226.353 145.336 226.231 145.825 225.905 146.192C226.231 146.558 226.394 147.006 226.394 147.536C226.394 151.772 225.905 156.008 224.928 160.122C224.724 161.059 223.869 161.711 222.932 161.711V161.67ZM118.736 144.766C118.736 144.766 118.614 144.766 118.532 144.766C117.432 144.684 116.577 143.666 116.699 142.566C117.066 138.33 117.962 134.175 119.265 130.183C119.632 129.124 120.772 128.554 121.832 128.88C122.891 129.246 123.461 130.387 123.135 131.446C121.913 135.153 121.098 139.022 120.732 142.933C120.65 143.992 119.754 144.807 118.695 144.807L118.736 144.766ZM217.596 123.707C216.903 123.707 216.211 123.34 215.803 122.648C213.889 119.226 211.567 116.049 208.919 113.157C208.145 112.342 208.227 111.039 209.042 110.265C209.856 109.491 211.16 109.572 211.934 110.387C214.785 113.523 217.27 116.945 219.347 120.652C219.917 121.629 219.551 122.892 218.573 123.422C218.247 123.585 217.921 123.666 217.596 123.666V123.707ZM126.394 121.792C126.027 121.792 125.66 121.711 125.335 121.507C124.398 120.937 124.072 119.674 124.683 118.697C126.882 115.112 129.53 111.772 132.544 108.758C133.359 107.943 134.622 107.943 135.436 108.758C136.251 109.532 136.251 110.835 135.436 111.65C132.667 114.42 130.223 117.515 128.186 120.855C127.819 121.466 127.127 121.833 126.434 121.833L126.394 121.792ZM201.221 105.866C200.813 105.866 200.406 105.743 200.08 105.499C196.862 103.299 193.359 101.466 189.693 100.041C188.634 99.6333 188.105 98.4521 188.512 97.393C188.919 96.3339 190.101 95.8451 191.16 96.2117C195.111 97.7189 198.858 99.7148 202.361 102.118C203.298 102.77 203.543 104.033 202.891 104.929C202.484 105.499 201.873 105.825 201.221 105.825V105.866ZM143.502 104.644C142.809 104.644 142.157 104.318 141.791 103.666C141.18 102.729 141.506 101.466 142.443 100.855C146.027 98.615 149.897 96.782 153.889 95.4378C154.948 95.0712 156.129 95.6415 156.455 96.7005C156.821 97.7596 156.251 98.9409 155.192 99.2667C151.485 100.529 147.942 102.2 144.601 104.277C144.276 104.481 143.909 104.603 143.542 104.603L143.502 104.644ZM178.614 97.1486C178.614 97.1486 178.451 97.1486 178.329 97.1486C174.459 96.6191 170.467 96.5376 166.597 96.9042C165.498 97.0264 164.479 96.171 164.398 95.0712C164.276 93.9714 165.131 92.9531 166.231 92.8716C170.386 92.505 174.703 92.5457 178.899 93.116C179.999 93.2789 180.813 94.2973 180.65 95.3971C180.528 96.4154 179.632 97.1486 178.614 97.1486V97.1486Z" fill="#B3C0C4"/>
<path d="M716.132 181.548C713.321 181.548 710.47 181.304 707.7 180.856C706.6 180.693 705.826 179.634 706.03 178.534C706.193 177.434 707.252 176.66 708.352 176.864C712.18 177.516 716.172 177.638 720.042 177.353C721.142 177.271 722.16 178.086 722.242 179.227C722.323 180.367 721.508 181.345 720.368 181.426C718.983 181.548 717.557 181.589 716.132 181.589V181.548ZM732.14 178.901C731.284 178.901 730.51 178.371 730.225 177.516C729.859 176.457 730.429 175.276 731.488 174.909C735.195 173.646 738.698 171.895 741.997 169.777C742.934 169.166 744.197 169.41 744.808 170.347C745.419 171.284 745.174 172.546 744.238 173.157C740.694 175.479 736.865 177.353 732.832 178.738C732.629 178.819 732.384 178.86 732.181 178.86L732.14 178.901ZM696.335 177.434C696.05 177.434 695.765 177.394 695.521 177.271C691.651 175.561 687.985 173.361 684.604 170.754C683.708 170.062 683.545 168.799 684.237 167.903C684.93 167.007 686.193 166.844 687.089 167.536C690.184 169.939 693.565 171.935 697.109 173.524C698.128 173.972 698.616 175.194 698.168 176.212C697.842 176.986 697.068 177.434 696.294 177.434H696.335ZM752.344 165.662C751.855 165.662 751.366 165.5 750.959 165.133C750.144 164.359 750.062 163.096 750.836 162.241C753.484 159.349 755.765 156.172 757.639 152.75C758.168 151.772 759.39 151.406 760.409 151.935C761.386 152.465 761.753 153.687 761.223 154.705C759.187 158.412 756.743 161.915 753.851 165.011C753.443 165.459 752.914 165.662 752.344 165.662V165.662ZM677.231 162.567C676.62 162.567 676.009 162.282 675.643 161.793C673.036 158.453 670.836 154.787 669.125 150.917C668.677 149.899 669.125 148.677 670.184 148.229C671.203 147.781 672.425 148.229 672.873 149.288C674.421 152.872 676.457 156.212 678.861 159.308C679.553 160.204 679.39 161.467 678.494 162.159C678.127 162.445 677.679 162.607 677.231 162.607V162.567ZM763.871 144.4C763.871 144.4 763.545 144.4 763.382 144.318C762.282 144.033 761.631 142.933 761.916 141.833C762.853 138.045 763.342 134.176 763.342 130.224C763.342 129.084 764.238 128.188 765.378 128.188C766.519 128.188 767.415 129.084 767.415 130.224C767.415 134.501 766.885 138.697 765.867 142.811C765.623 143.748 764.808 144.359 763.912 144.359L763.871 144.4ZM667.496 140.449C666.518 140.449 665.663 139.756 665.5 138.738C665.052 135.968 664.808 133.117 664.808 130.265C664.808 128.84 664.848 127.455 664.971 126.07C665.052 124.97 666.03 124.114 667.17 124.196C668.311 124.277 669.125 125.255 669.044 126.396C668.922 127.658 668.881 128.962 668.881 130.265C668.881 132.872 669.085 135.52 669.533 138.045C669.736 139.145 668.962 140.204 667.863 140.408C667.74 140.408 667.618 140.408 667.537 140.408L667.496 140.449ZM765.175 128.188C764.115 128.188 763.219 127.373 763.138 126.314C762.812 122.404 761.997 118.575 760.735 114.868C760.368 113.809 760.938 112.628 761.997 112.261C763.056 111.894 764.238 112.465 764.604 113.524C765.989 117.516 766.845 121.711 767.211 125.947C767.293 127.047 766.478 128.066 765.338 128.147C765.297 128.147 765.215 128.147 765.175 128.147V128.188ZM669.492 116.334C669.288 116.334 669.044 116.334 668.84 116.212C667.781 115.846 667.211 114.705 667.578 113.605C668.962 109.613 670.836 105.744 673.158 102.2C673.769 101.263 675.032 100.978 675.969 101.589C676.905 102.2 677.191 103.463 676.539 104.4C674.38 107.658 672.669 111.202 671.406 114.909C671.121 115.764 670.307 116.294 669.492 116.294V116.334ZM757.313 105.336C756.661 105.336 756.01 105.011 755.602 104.4C753.443 101.141 750.918 98.1266 748.026 95.4789C747.211 94.705 747.13 93.4423 747.904 92.5869C748.678 91.7722 749.94 91.6907 750.796 92.4647C753.932 95.3567 756.702 98.5747 759.024 102.118C759.635 103.055 759.39 104.318 758.454 104.929C758.128 105.173 757.72 105.255 757.354 105.255L757.313 105.336ZM682.73 96.0899C682.201 96.0899 681.63 95.8863 681.223 95.4382C680.449 94.6235 680.531 93.3201 681.345 92.5461C684.482 89.6541 687.944 87.1693 691.651 85.1734C692.628 84.6439 693.891 85.0105 694.421 85.9881C694.95 86.9657 694.584 88.2284 693.606 88.7579C690.185 90.6317 686.967 92.9127 684.115 95.5604C683.708 95.927 683.219 96.0899 682.73 96.0899ZM739.513 88.9616C739.187 88.9616 738.861 88.8801 738.535 88.7172C735.113 86.8435 731.447 85.4178 727.659 84.4809C726.559 84.1958 725.908 83.096 726.193 81.9962C726.478 80.8964 727.578 80.2447 728.678 80.5298C732.792 81.5481 736.783 83.096 740.49 85.1327C741.468 85.6622 741.834 86.8842 741.305 87.9025C740.938 88.595 740.246 88.9616 739.513 88.9616V88.9616ZM703.952 84.5624C703.056 84.5624 702.201 83.9514 701.997 83.0145C701.712 81.9147 702.364 80.8149 703.464 80.5298C707.537 79.5115 711.773 78.9819 716.05 78.9819C717.191 78.9819 718.087 79.8781 718.087 81.0186C718.087 82.1591 717.191 83.0553 716.05 83.0553C712.14 83.0553 708.229 83.5441 704.441 84.4809C704.278 84.5217 704.115 84.5624 703.952 84.5624V84.5624Z" fill="#B3C0C4"/>
<path d="M939.147 234.705C936.418 234.705 933.729 234.542 931.041 234.216C929.941 234.094 929.126 233.076 929.249 231.935C929.371 230.835 930.389 230.021 931.53 230.143C935.399 230.632 939.432 230.713 943.342 230.469C944.442 230.387 945.42 231.243 945.501 232.383C945.583 233.524 944.727 234.461 943.587 234.542C942.12 234.624 940.613 234.705 939.106 234.705H939.147ZM955.521 232.628C954.625 232.628 953.77 232.017 953.566 231.121C953.281 230.021 953.933 228.921 955.033 228.636C958.862 227.658 962.568 226.273 966.153 224.603C967.171 224.114 968.393 224.562 968.882 225.581C969.371 226.599 968.923 227.821 967.904 228.31C964.116 230.102 960.124 231.569 956.092 232.628C955.929 232.668 955.766 232.709 955.562 232.709L955.521 232.628ZM919.35 231.65C919.147 231.65 918.943 231.65 918.739 231.569C914.747 230.306 910.837 228.636 907.171 226.64C906.193 226.11 905.827 224.848 906.356 223.87C906.886 222.892 908.149 222.526 909.126 223.055C912.589 224.929 916.255 226.518 920.002 227.699C921.061 228.025 921.672 229.206 921.305 230.265C921.02 231.121 920.246 231.691 919.35 231.691V231.65ZM977.436 222.2C976.825 222.2 976.173 221.915 975.807 221.345C975.155 220.448 975.359 219.145 976.255 218.493C979.432 216.171 982.405 213.524 985.094 210.672C985.868 209.858 987.131 209.817 987.986 210.591C988.801 211.365 988.841 212.668 988.067 213.483C985.216 216.538 982.039 219.349 978.658 221.833C978.291 222.078 977.884 222.241 977.477 222.241L977.436 222.2ZM898.006 220.041C897.558 220.041 897.11 219.878 896.703 219.593C893.444 216.945 890.43 213.972 887.741 210.754C887.008 209.898 887.13 208.595 887.986 207.903C888.841 207.169 890.145 207.292 890.837 208.147C893.362 211.161 896.214 213.972 899.228 216.457C900.083 217.149 900.246 218.452 899.513 219.308C899.106 219.797 898.536 220.041 897.925 220.041H898.006ZM994.055 204.481C993.689 204.481 993.322 204.399 992.955 204.155C992.019 203.544 991.733 202.281 992.304 201.344C994.422 198.004 996.214 194.461 997.68 190.795C998.088 189.735 999.269 189.247 1000.33 189.654C1001.39 190.061 1001.88 191.243 1001.47 192.302C999.921 196.171 998.006 199.96 995.766 203.503C995.359 204.114 994.707 204.44 994.055 204.44V204.481ZM882.405 201.467C881.672 201.467 880.979 201.1 880.613 200.408C878.576 196.742 876.865 192.872 875.521 188.88C875.155 187.821 875.725 186.68 876.825 186.314C877.884 185.947 879.024 186.518 879.391 187.617C880.613 191.365 882.242 194.99 884.157 198.412C884.727 199.389 884.36 200.652 883.383 201.182C883.057 201.344 882.731 201.426 882.405 201.426V201.467ZM1002.98 181.915C1002.98 181.915 1002.73 181.915 1002.61 181.915C1001.51 181.711 1000.78 180.652 1000.98 179.552C1001.71 175.682 1002.08 171.731 1002.08 167.78C1002.08 166.64 1002.98 165.744 1004.12 165.744C1005.26 165.744 1006.15 166.64 1006.15 167.78C1006.15 171.976 1005.75 176.212 1004.97 180.285C1004.81 181.263 1003.95 181.955 1002.98 181.955V181.915ZM874.707 178.412C873.688 178.412 872.833 177.678 872.67 176.66C872.263 173.727 872.1 170.713 872.1 167.739C872.1 166.517 872.1 165.295 872.181 164.114C872.222 162.974 873.199 162.078 874.34 162.2C875.48 162.24 876.336 163.218 876.254 164.359C876.173 165.499 876.173 166.64 876.173 167.78C876.173 170.591 876.377 173.401 876.743 176.171C876.906 177.271 876.092 178.289 874.992 178.452C874.91 178.452 874.829 178.452 874.707 178.452V178.412ZM1003.87 164.603C1002.81 164.603 1001.92 163.788 1001.84 162.729C1001.51 158.778 1000.86 154.868 999.799 151.08C999.513 149.98 1000.12 148.88 1001.22 148.595C1002.32 148.31 1003.42 148.961 1003.71 150.02C1004.81 154.053 1005.54 158.208 1005.87 162.403C1005.95 163.544 1005.13 164.522 1003.99 164.603C1003.95 164.603 1003.87 164.603 1003.83 164.603H1003.87ZM876.01 154.175C876.01 154.175 875.684 154.175 875.521 154.135C874.421 153.849 873.77 152.75 874.014 151.691C875.032 147.617 876.417 143.625 878.169 139.796C878.658 138.778 879.839 138.33 880.857 138.778C881.876 139.267 882.324 140.448 881.876 141.466C880.246 145.051 878.902 148.798 877.965 152.627C877.721 153.564 876.906 154.175 876.01 154.175ZM997.477 141.181C996.744 141.181 996.01 140.774 995.644 140.041C993.933 136.497 991.856 133.116 989.452 129.98C988.801 129.084 988.963 127.821 989.86 127.128C990.756 126.436 992.019 126.64 992.711 127.536C995.236 130.876 997.436 134.501 999.269 138.249C999.758 139.267 999.351 140.489 998.332 140.978C998.047 141.141 997.721 141.181 997.436 141.181H997.477ZM886.153 132.098C885.745 132.098 885.338 131.976 884.971 131.731C884.034 131.079 883.831 129.817 884.483 128.88C886.927 125.458 889.696 122.281 892.711 119.348C893.525 118.574 894.829 118.615 895.603 119.389C896.377 120.204 896.336 121.507 895.562 122.281C892.711 125.01 890.104 128.024 887.823 131.242C887.415 131.813 886.804 132.098 886.153 132.098ZM982.894 121.752C982.405 121.752 981.917 121.589 981.509 121.222C978.617 118.574 975.44 116.171 972.059 114.094C971.122 113.483 970.796 112.261 971.407 111.283C972.018 110.346 973.24 110.02 974.218 110.631C977.803 112.831 981.183 115.397 984.279 118.208C985.094 118.982 985.175 120.244 984.401 121.1C983.994 121.548 983.465 121.752 982.894 121.752ZM903.709 115.275C903.057 115.275 902.405 114.949 901.998 114.338C901.387 113.401 901.631 112.138 902.609 111.527C906.112 109.246 909.859 107.291 913.729 105.703C914.788 105.255 915.969 105.784 916.377 106.802C916.784 107.861 916.295 109.043 915.277 109.45C911.652 110.957 908.108 112.79 904.809 114.949C904.483 115.153 904.075 115.275 903.709 115.275V115.275ZM962.242 109.002C961.998 109.002 961.754 108.961 961.509 108.88C957.843 107.495 954.014 106.436 950.104 105.743C949.004 105.54 948.271 104.481 948.434 103.381C948.638 102.281 949.697 101.507 950.796 101.711C954.91 102.444 959.025 103.544 962.935 105.051C963.994 105.458 964.524 106.639 964.116 107.699C963.79 108.513 963.016 109.002 962.202 109.002H962.242ZM926.194 106.069C925.257 106.069 924.401 105.417 924.198 104.44C923.994 103.34 924.686 102.281 925.786 102.037C929.86 101.222 934.096 100.774 938.291 100.692C939.391 100.692 940.328 101.589 940.328 102.688C940.328 103.829 939.432 104.725 938.332 104.766C934.381 104.806 930.43 105.214 926.56 106.028C926.438 106.028 926.275 106.028 926.153 106.028L926.194 106.069Z" fill="#B3C0C4"/>
<path d="M1336.54 145.744C1335.48 145.744 1334.59 144.929 1334.5 143.87C1334.42 142.729 1335.24 141.752 1336.38 141.67C1340.25 141.344 1344.04 140.489 1347.66 139.063C1348.68 138.656 1349.9 139.145 1350.31 140.204C1350.72 141.263 1350.23 142.444 1349.17 142.852C1345.18 144.44 1341.02 145.418 1336.74 145.744C1336.7 145.744 1336.62 145.744 1336.58 145.744H1336.54ZM1324.4 144.929C1324.4 144.929 1324.12 144.929 1323.95 144.888C1319.76 143.951 1315.77 142.444 1312.02 140.326C1311.04 139.756 1310.72 138.534 1311.25 137.556C1311.82 136.579 1313.04 136.253 1314.02 136.782C1317.4 138.697 1321.02 140.082 1324.81 140.937C1325.91 141.181 1326.6 142.281 1326.36 143.381C1326.15 144.318 1325.3 144.97 1324.36 144.97L1324.4 144.929ZM1358.9 136.864C1358.29 136.864 1357.72 136.619 1357.32 136.09C1356.62 135.194 1356.74 133.931 1357.64 133.238C1360.66 130.794 1363.3 127.943 1365.5 124.725C1366.15 123.788 1367.42 123.544 1368.31 124.196C1369.25 124.847 1369.49 126.11 1368.84 127.006C1366.44 130.55 1363.51 133.727 1360.17 136.375C1359.8 136.66 1359.35 136.823 1358.9 136.823V136.864ZM1303.47 133.076C1302.94 133.076 1302.41 132.872 1302 132.424C1299.07 129.287 1296.58 125.784 1294.71 121.955C1294.22 120.937 1294.63 119.715 1295.64 119.226C1296.66 118.737 1297.89 119.145 1298.37 120.163C1300.08 123.625 1302.33 126.843 1304.97 129.654C1305.75 130.469 1305.71 131.772 1304.89 132.546C1304.48 132.913 1304 133.116 1303.51 133.116L1303.47 133.076ZM1372.43 116.945C1372.43 116.945 1372.02 116.945 1371.82 116.864C1370.76 116.538 1370.15 115.397 1370.47 114.338C1371.61 110.631 1372.18 106.803 1372.18 102.892C1372.18 102.729 1372.18 102.566 1372.22 102.403C1372.18 102.24 1372.14 102.077 1372.14 101.915C1372.06 98.0041 1371.37 94.1752 1370.15 90.5092C1369.78 89.4501 1370.35 88.2689 1371.41 87.943C1372.47 87.5764 1373.65 88.1467 1373.98 89.2057C1375.32 93.2383 1376.09 97.4746 1376.17 101.792C1376.17 101.996 1376.17 102.159 1376.13 102.322C1376.17 102.485 1376.22 102.688 1376.22 102.892C1376.22 107.21 1375.56 111.446 1374.34 115.519C1374.06 116.375 1373.28 116.945 1372.39 116.945H1372.43ZM1292.75 111.528C1291.78 111.528 1290.92 110.835 1290.76 109.817C1290.39 107.536 1290.19 105.214 1290.19 102.892C1290.19 100.937 1290.31 98.9817 1290.59 97.0673C1290.76 95.9675 1291.73 95.1528 1292.87 95.3157C1293.97 95.4787 1294.75 96.497 1294.63 97.5968C1294.38 99.3483 1294.26 101.141 1294.26 102.892C1294.26 105.01 1294.42 107.128 1294.75 109.165C1294.91 110.265 1294.18 111.324 1293.08 111.487C1292.96 111.487 1292.87 111.487 1292.75 111.487V111.528ZM1296.01 87.6579C1295.73 87.6579 1295.44 87.5764 1295.16 87.4542C1294.14 86.9654 1293.69 85.7841 1294.18 84.7658C1295.97 80.8961 1298.33 77.3116 1301.23 74.0937C1301.96 73.279 1303.26 73.1975 1304.12 73.9307C1304.97 74.6639 1305.01 75.9674 1304.28 76.8228C1301.67 79.7149 1299.56 82.9735 1297.89 86.4766C1297.56 87.2098 1296.83 87.6579 1296.05 87.6579H1296.01ZM1366.52 81.0183C1365.87 81.0183 1365.26 80.7332 1364.85 80.1629C1362.57 77.0265 1359.88 74.2159 1356.79 71.8533C1355.89 71.1609 1355.73 69.8981 1356.42 69.002C1357.11 68.1059 1358.37 67.9429 1359.27 68.6354C1362.69 71.2423 1365.67 74.3381 1368.15 77.8004C1368.8 78.6965 1368.6 80 1367.7 80.6517C1367.34 80.8961 1366.93 81.0183 1366.52 81.0183V81.0183ZM1312.1 69.7352C1311.41 69.7352 1310.76 69.3686 1310.35 68.7576C1309.78 67.78 1310.06 66.558 1311.04 65.947C1314.71 63.7474 1318.7 62.0773 1322.85 61.059C1323.95 60.7739 1325.05 61.4663 1325.34 62.5661C1325.62 63.6659 1324.93 64.7657 1323.83 65.0509C1320.08 65.9877 1316.46 67.4541 1313.16 69.4908C1312.83 69.6945 1312.47 69.7759 1312.1 69.7759V69.7352ZM1347.38 66.4358C1347.13 66.4358 1346.89 66.4358 1346.68 66.3136C1343.06 64.9694 1339.23 64.1955 1335.36 63.9918C1334.22 63.9511 1333.36 62.9735 1333.45 61.8329C1333.53 60.7331 1334.38 59.7963 1335.6 59.9185C1339.88 60.1629 1344.12 61.0183 1348.11 62.4847C1349.17 62.892 1349.7 64.0325 1349.33 65.0916C1349.05 65.9063 1348.23 66.4358 1347.42 66.4358H1347.38Z" fill="#B3C0C4"/>
</g>
</g>
<defs>
<clipPath id="clip0_2663_674">
<rect width="1531" height="611" fill="white"/>
</clipPath>
</defs>
</svg>
