<svg width="590" height="160" viewBox="0 0 590 160" fill="none" xmlns="http://www.w3.org/2000/svg">
<path d="M0 137V46.0758C0 33.74 9.73175 23.6007 22.0572 23.0951L569.96 0.617017C578.165 0.280418 585 6.84093 585 15.0524C585 23.0316 578.532 29.5 570.552 29.5H566.75C558.604 29.5 552 36.1038 552 44.25C552 52.3962 558.604 59 566.75 59H570.75C581.105 59 589.5 67.3947 589.5 77.75V88.25C589.5 96.1201 583.12 102.5 575.25 102.5H572C565.925 102.5 561 107.425 561 113.5C561 119.575 565.925 124.5 572 124.5H575.25C583.12 124.5 589.5 130.88 589.5 138.75V142.25C589.5 152.053 581.553 160 571.75 160H23C10.2975 160 0 149.703 0 137Z" fill="white"/>
</svg>
