<svg width="406" height="410" viewBox="0 0 406 410" fill="none" xmlns="http://www.w3.org/2000/svg">
<path d="M380.159 406.707L25.3053 407.756C12.5827 407.793 2.2536 397.495 2.2536 384.772L2.2536 32.1491C2.2536 19.4401 12.5607 9.13283 25.2693 9.13284L60.7611 9.13285C70.1861 9.13284 77.823 16.77 77.823 26.1952C77.823 35.7286 85.6296 43.4098 95.1617 43.2553L131.741 42.6625C142.841 42.4826 151.76 33.4488 151.799 22.3469C151.837 11.1399 160.92 2.06187 172.127 2.02874L244.367 1.81524C253.391 1.78856 260.708 9.10947 260.677 18.1331C260.645 27.2411 268.095 34.5964 277.201 34.4489L306.466 33.9746C311.585 33.8916 315.671 29.674 315.592 24.5542C315.513 19.4344 319.598 15.2167 324.718 15.1337L380.949 14.2225C393.82 14.0139 404.35 24.4099 404.305 37.2833L403.107 383.77C403.063 396.422 392.81 406.669 380.159 406.707Z" fill="white" stroke="#2E437C" stroke-width="3"/>
</svg>
