<svg width="629" height="245" viewBox="0 0 629 245" fill="none" xmlns="http://www.w3.org/2000/svg">
<path d="M15 0H614C622.284 0 629 6.71572 629 15V24.7765C629 33.0607 622.284 39.7765 614 39.7765H592.237C583.953 39.7765 577.237 46.4922 577.237 54.7765V78.3882C577.237 86.6725 583.953 93.3882 592.237 93.3882H614C622.284 93.3882 629 100.104 629 108.388V112.976C629 121.261 622.284 127.976 614 127.976H592.237C583.953 127.976 577.237 134.692 577.237 142.976V171.2C577.237 179.484 583.953 186.2 592.237 186.2H614C622.284 186.2 629 192.916 629 201.2V230C629 238.284 622.284 245 614 245H15C6.71576 245 0 238.284 0 230V15C0 6.71573 6.71576 0 15 0Z" fill="#1B1C57"/>
</svg>
