<svg width="487" height="631" viewBox="0 0 487 631" fill="none" xmlns="http://www.w3.org/2000/svg">
<g opacity="0.5">
<path d="M304.217 108.316L301.337 131.027C301.337 131.027 289.981 141.422 285.62 146.168C282.274 141.422 277.666 136.567 271.686 138.488C275.444 132.179 285.346 120.796 291.407 113.034C297.771 104.887 304.217 108.316 304.217 108.316Z" fill="#5C77BC"/>
<path d="M282.301 278.32C285.785 274.918 288.39 272.093 288.39 272.093L304.217 271.407V276.646C304.217 276.646 303.723 278.813 301.282 280.377C298.813 281.94 293.986 284.601 291.38 285.533C287.677 286.85 281.067 288.276 278.132 288.386C274.813 288.523 273.359 286.96 275.115 285.259C278.105 282.352 279.092 281.446 282.329 278.292L282.301 278.32Z" fill="#2C353A"/>
<path d="M329.754 278.62L344.044 277.002C344.044 277.002 346.047 286.081 342.7 295.434C339.354 304.788 333.484 304.897 331.427 304.157C329.37 303.416 328.41 297.464 328.794 290.717C329.178 283.969 329.754 278.62 329.754 278.62Z" fill="#2C353A"/>
<path d="M297.907 159.662C297.907 159.662 327.942 150.61 327.092 157.083C327.092 157.083 337.679 167.177 336.445 186.377C335.869 195.209 338.255 215.232 338.996 230.373C347.855 250.314 349.611 273.354 349.611 273.354C349.611 273.354 350.955 277.194 344.07 280.65C337.186 284.106 327.119 280.513 327.119 280.513C327.119 280.513 327.119 250.807 319.137 233.939C314.776 224.723 313.597 192.768 313.597 192.768L306.712 226.999L306.109 270.392C306.109 270.392 301.199 275.247 295.247 275.247C287.484 275.274 287.1 270.748 287.1 270.748C287.1 270.748 285.756 233.582 288.829 212.764C291.544 194.441 297.962 159.634 297.962 159.634L297.907 159.662Z" fill="#2C353A"/>
<path d="M324.541 95.0952L327.092 109.248C327.092 109.248 324.651 112.183 321.03 114.076C318.013 115.667 315.791 116.353 312.5 117.367C311.128 114.899 311.073 112.156 311.073 112.156L312.5 103.845L324.541 95.0952Z" fill="#FFAD97"/>
<path d="M325.941 79.5424C328.601 82.9435 329.424 91.4465 325.749 97.426C322.485 102.747 315.052 105.764 311.76 106.285C305.863 107.245 299.499 90.9527 306.247 80.9961C312.665 71.5057 322.512 75.1812 325.941 79.5424Z" fill="#FFC5B3"/>
<path d="M320.292 72.3289C328.164 73.618 331.593 83.1084 331.428 87.4421C331.181 94.3816 325.778 97.4262 325.778 97.4262C325.778 97.4262 326.628 93.9702 325.887 92.489C325.229 91.1999 323.199 90.9805 322.514 93.2571C321.746 93.5039 320.84 93.4216 320.84 93.4216L321.526 88.8684C321.526 88.8684 317.22 84.9461 312.694 84.5347C307.153 84.041 304.712 84.9735 304.712 82.3678C304.685 74.1117 312.42 71.0397 320.319 72.3289H320.292Z" fill="#2C353A"/>
<path d="M303.283 138.131C303.886 138.296 304.215 138.981 304.023 139.667C303.831 140.38 303.228 140.819 302.625 140.655C302.021 140.49 301.692 139.804 301.884 139.119C302.076 138.405 302.679 137.967 303.283 138.131Z" fill="#2C353A"/>
<path d="M313.957 141.45C314.56 141.614 314.889 142.3 314.697 142.986C314.505 143.699 313.902 144.138 313.298 143.973C312.695 143.809 312.366 143.123 312.558 142.437C312.75 141.724 313.353 141.285 313.957 141.45Z" fill="#2C353A"/>
<path d="M302.353 156.097C302.957 156.262 303.286 156.947 303.094 157.633C302.902 158.346 302.298 158.785 301.695 158.621C301.091 158.456 300.762 157.77 300.954 157.085C301.146 156.371 301.75 155.933 302.353 156.097Z" fill="#2C353A"/>
<path d="M312.996 159.388C313.599 159.553 313.928 160.238 313.736 160.924C313.544 161.637 312.941 162.076 312.337 161.912C311.734 161.747 311.405 161.061 311.597 160.376C311.789 159.662 312.392 159.224 312.996 159.388Z" fill="#2C353A"/>
<path d="M299.228 175.818C299.832 175.982 300.161 176.668 299.969 177.354C299.777 178.067 299.173 178.506 298.57 178.341C297.966 178.177 297.637 177.491 297.829 176.805C298.021 176.092 298.625 175.653 299.228 175.818Z" fill="#2C353A"/>
<path d="M309.869 179.11C310.472 179.274 310.801 179.96 310.609 180.646C310.417 181.359 309.814 181.798 309.21 181.633C308.607 181.469 308.278 180.783 308.47 180.097C308.662 179.384 309.265 178.945 309.869 179.11Z" fill="#2C353A"/>
<path d="M292.477 139.393C292.312 128.421 292.834 116.106 298.786 109.248C300.815 106.917 310.69 106.094 310.69 106.094L310.196 113.143L312.473 117.367L326.544 106.396C326.544 106.396 339.353 113.088 342.397 123.072C343.22 134.785 336.912 148.225 338.969 158.318C339.079 158.84 339.188 159.608 339.325 160.54C340.203 160.595 340.971 160.622 341.575 160.677C342.809 169.043 343.549 182.072 343.988 193.949C344.18 195.101 344.619 221.789 344.619 221.789C344.619 221.789 329.698 228.838 313.625 230.127C297.551 231.389 284.907 216.742 284.907 216.742C284.907 216.742 290.886 173.679 291.682 164.792C292.12 159.772 292.203 148.17 292.477 139.42V139.393Z" fill="#7A92DA"/>
<path d="M337.983 115.091C346.898 116.27 347.995 125.87 350.436 139.393C352.713 151.845 351.149 161.034 350.217 166.136C349.641 169.345 347.968 173.103 344.649 175.324C344.1 174.584 337.106 165.532 332.607 162.68L335.871 158.319C335.871 158.319 330.605 138.378 330.221 132.481C329.837 126.474 333.074 114.432 337.956 115.063L337.983 115.091Z" fill="#5C77BC"/>
<path d="M312.116 106.094C311.32 110.592 312.527 117.34 312.527 117.34L304.244 111.525L308.578 105.189C308.934 105.6 310.443 106.725 312.143 106.094H312.116Z" fill="#5C77BC"/>
<path d="M308.441 196.774C306.959 174.913 309.922 149.624 309.565 142.711C309.401 139.53 309.017 133.934 309.565 129.244C310.223 123.703 311.842 119.287 311.842 119.287C311.842 119.287 311.156 127.955 310.662 135.031C310.278 140.545 311.156 158.922 310.662 166.767C310.169 174.611 309.538 184.294 310.662 194.305C311.375 200.723 310.937 230.155 310.937 230.155L307.261 229.853C307.261 229.853 308.879 203.274 308.413 196.746L308.441 196.774Z" fill="#5C77BC"/>
<path d="M283.317 134.758C285.895 136.596 288.913 141.972 287.651 145.291C285.841 150.036 280.273 148.198 280.273 148.198C280.273 148.198 280.821 143.974 277.228 140.792C275.089 138.9 272.922 140.792 272.922 140.792C272.922 140.792 270.371 137.254 272.62 134.484C274.869 131.713 280.739 132.92 283.317 134.758Z" fill="#8FA9EA"/>
<path d="M310.251 189.917C310.525 189.807 310.662 189.725 310.662 189.725C310.662 189.725 310.8 189.807 310.251 189.917Z" fill="#FFC5B3"/>
<path d="M310.254 189.916C310.803 189.807 310.666 189.724 310.666 189.724C310.666 189.724 310.501 189.779 310.254 189.916C309.815 189.999 308.91 190.108 307.045 190.191C304.055 190.328 303.397 189.011 305.317 188.024C307.237 187.009 313.793 183.8 315.466 182.922C323.612 178.561 332.088 168.412 332.088 168.412L341.605 177.135C341.605 177.135 331.457 184.431 324.216 187.366C321.061 188.655 321.061 188.792 317.934 192.742C315.905 195.292 312.312 197.761 310.693 197.953C303.863 198.776 303.754 198.392 302.519 196.499C301.121 194.36 308.417 190.794 310.282 189.944L310.254 189.916Z" fill="#FFC5B3"/>
<path d="M334.744 159.745C334.744 159.745 344.234 163.311 346.155 170.552C348.075 177.793 342.424 181.551 341.19 178.945C337.679 171.622 332.413 171.732 330.136 168.358C329.45 167.343 328.902 165.149 330.136 163.695C332.44 160.98 334.744 159.745 334.744 159.745Z" fill="#8FA9EA"/>
<path d="M318.288 110.839C320.949 108.727 326.133 104.092 326.133 104.092C326.133 104.092 327.697 106.396 327.751 107.603C327.806 108.81 323.253 117.779 323.253 117.779L312.501 117.34C312.501 117.34 315.628 112.924 318.288 110.812V110.839Z" fill="#5C77BC"/>
<path d="M322.052 69.0926C328.361 72.9326 334.176 75.2092 336.041 80.503C337.906 85.7968 334.587 93.4494 332.53 95.3146C330.445 97.1797 327.099 97.0974 327.099 97.0974C327.099 97.0974 311.081 86.1808 304.223 84.2608C304.223 84.2608 299.259 79.6527 303.126 72.6858C306.994 65.6914 315.716 65.28 322.025 69.12L322.052 69.0926Z" fill="#7A92DA"/>
<path d="M318.207 89.39C324.927 93.4495 327.066 97.0975 327.066 97.0975L325.037 98.4141C325.037 98.4141 321.361 93.8061 318.042 91.3375C311.459 86.4003 303.999 86.0163 303.999 86.0163L304.191 84.2334C304.191 84.2334 309.677 84.2334 318.179 89.39H318.207Z" fill="#5C77BC"/>
<path d="M309.65 84.2337C310.061 85.6051 309.43 85.7422 309.43 85.7422C309.43 85.7422 307.154 83.5479 306.934 81.2439C306.715 78.9673 307.51 76.6359 307.51 76.6359C307.51 76.6359 309.211 82.8622 309.622 84.2062L309.65 84.2337Z" fill="#5C77BC"/>
<path d="M316.286 85.1662C316.231 87.1411 315.271 88.4851 315.271 88.4851H314.531C314.531 88.4851 313.9 87.0862 313.9 85.4679C313.9 83.8771 316.643 79.5159 316.643 79.5159C316.643 79.5159 316.341 83.1913 316.286 85.1662Z" fill="#5C77BC"/>
<path d="M325.311 84.754C325.311 84.754 323.912 88.1278 322.952 89.1701C321.992 90.2124 319.112 91.3644 319.112 91.3644L318.563 90.7061C318.563 90.7061 319.441 89.1152 320.593 88.1278C321.745 87.1403 325.311 84.754 325.311 84.754Z" fill="#5C77BC"/>
<path d="M325.311 93.0386C326.518 92.3528 330.688 90.6797 330.688 90.6797C330.688 90.6797 328.767 93.1209 327.78 94.218C326.793 95.3152 323.995 95.6169 323.995 95.6169L323.638 94.8214C323.638 94.8214 324.077 93.7243 325.284 93.0386H325.311Z" fill="#5C77BC"/>
<path d="M312.802 68.0229C314.997 68.0778 315.792 68.9829 320.126 70.2446C323.171 71.1224 324.816 72.3841 325.667 74.9075C326.078 76.1693 327.559 75.5384 329.26 75.7853C330.768 76.0047 332.359 77.2115 333.347 78.8847C334.8 81.4082 335.98 83.383 335.431 85.6322C334.883 87.9088 333.018 86.1808 331.07 85.7694C329.123 85.3579 331.235 81.0242 329.616 80.119C327.971 79.2139 323.911 80.9419 323.006 80.119C322.101 79.2961 323.061 74.935 320.784 74.2492C318.508 73.5635 315.984 75.8675 314.805 73.8927C313.625 71.9178 311.98 70.3269 309.813 70.7932C306.933 71.4241 305.89 70.6012 306.933 69.6686C308.386 68.3795 310.114 67.9406 312.83 68.0229H312.802Z" fill="#8FA9EA"/>
<path d="M277.723 120.577C280.493 127.708 283.099 134.593 284.196 140.161C285.265 145.619 284.607 146.908 282.852 149.13C282.139 150.035 280.932 150.776 278.353 149.569C276.241 148.609 273.636 147.594 272.429 144.577C270.125 138.735 267.903 125.048 267.958 119.205C268.04 113.336 269.713 101.843 269.713 101.843C269.713 101.843 274.925 113.445 277.695 120.604L277.723 120.577Z" fill="#FFC5B3"/>
<path d="M483.266 395.057L120.327 187.421L118.983 92.9559L483.266 303.253V395.057Z" fill="#2C353A"/>
<path d="M490.289 390.998L483.267 395.057V303.253L490.289 299.221V390.998Z" fill="#3A4449"/>
<path d="M490.289 299.221L483.267 303.253L118.985 92.9559L126.007 88.8965L490.289 299.221Z" fill="#525D60"/>
<path d="M472.573 300.865L473.424 301.359C477.373 303.608 479.814 307.832 479.814 312.386V313.675L468.788 320.148L436.285 339.238L429.044 326.457L454.086 311.727L472.573 300.838V300.865Z" fill="#E4E6EA"/>
<path d="M472.572 300.866L429.043 326.457L71.6176 121.015L115.147 95.4514L472.572 300.866Z" fill="#B8BCC1"/>
<path d="M479.814 326.429L436.285 352.021V339.239L479.814 313.675V326.429Z" fill="#89919B"/>
<path d="M436.287 337.949V352.048L71.6208 142.492V121.042L429.896 326.923C433.846 329.172 436.287 333.396 436.287 337.949Z" fill="#9EA4AD"/>
<path d="M468.047 298.232L424.133 323.604L420.348 321.41L464.262 296.038L468.047 298.232Z" fill="#525D60"/>
<path d="M447.527 286.548L403.614 311.892L399.829 309.698L443.742 284.354L447.527 286.548Z" fill="#525D60"/>
<path d="M427.012 274.836L383.098 300.18L379.313 298.013L423.227 272.642L427.012 274.836Z" fill="#525D60"/>
<path d="M406.717 263.014L362.776 288.385L358.991 286.191L402.904 260.847L406.717 263.014Z" fill="#525D60"/>
<path d="M386.279 251.275L342.338 276.62L338.553 274.453L382.467 249.081L386.279 251.275Z" fill="#525D60"/>
<path d="M365.768 239.562L321.827 264.934L318.041 262.74L361.982 237.396L365.768 239.562Z" fill="#525D60"/>
<path d="M345.246 227.878L301.333 253.222L297.547 251.028L341.461 225.683L345.246 227.878Z" fill="#525D60"/>
<path d="M324.924 216.056L281.01 241.4L277.198 239.233L321.139 213.861L324.924 216.056Z" fill="#525D60"/>
<path d="M304.486 204.316L260.573 229.66L256.76 227.494L300.701 202.122L304.486 204.316Z" fill="#525D60"/>
<path d="M284.08 192.55L240.057 217.949L236.272 215.782L280.295 190.355L284.08 192.55Z" fill="#525D60"/>
<path d="M263.645 180.783L219.539 206.264L215.754 204.07L259.859 178.616L263.645 180.783Z" fill="#525D60"/>
<path d="M243.154 169.098L199.213 194.442L195.428 192.275L239.342 166.903L243.154 169.098Z" fill="#525D60"/>
<path d="M222.691 157.331L178.778 182.703L174.993 180.508L218.906 155.164L222.691 157.331Z" fill="#525D60"/>
<path d="M202.178 145.645L158.264 170.99L154.479 168.823L198.42 143.451L202.178 145.645Z" fill="#525D60"/>
<path d="M181.688 133.934L137.747 159.305L133.961 157.111L177.902 131.739L181.688 133.934Z" fill="#525D60"/>
<path d="M161.363 122.112L117.45 147.484L113.637 145.29L157.578 119.945L161.363 122.112Z" fill="#525D60"/>
<path d="M140.93 110.372L96.9886 135.744L93.2035 133.549L137.144 108.205L140.93 110.372Z" fill="#525D60"/>
<path d="M118.986 97.6181L75.0453 122.99L71.2601 120.795L115.201 95.4512L118.986 97.6181Z" fill="#525D60"/>
<path d="M424.266 428.767L59.9834 221.268V126.639L424.266 336.963V428.767Z" fill="#2C353A"/>
<path d="M431.289 424.708L424.267 428.767V336.963L431.289 332.931V424.708Z" fill="#3A4449"/>
<path d="M431.289 332.931L424.267 336.963L59.985 126.638L67.0068 122.606L431.289 332.931Z" fill="#525D60"/>
<path d="M113.04 77.4042V76.2797L116.084 76.8282L119.129 76.2797V77.4042L120.281 77.6237C120.281 77.6237 125.41 93.6421 125.41 98.7164V120.358H106.704V98.7164C106.704 93.6421 111.833 77.6237 111.833 77.6237L112.985 77.4042H113.04Z" fill="white"/>
<path d="M116.086 76.1425C118.911 76.1425 121.215 77.4316 121.215 79.0225C121.215 80.6134 118.911 81.9025 116.086 81.9025C113.26 81.9025 110.956 80.6134 110.956 79.0225C110.956 77.4316 113.26 76.1425 116.086 76.1425Z" fill="#D3DBDD"/>
<path d="M116.247 75.649C118.524 75.649 120.389 76.6913 120.389 77.9805C120.389 79.2697 118.551 80.312 116.247 80.312C113.943 80.312 112.105 79.2697 112.105 77.9805C112.105 76.6913 113.943 75.649 116.247 75.649Z" fill="#E4E6EA"/>
<path d="M116.084 102.721C121.241 102.721 125.438 100.362 125.438 97.4548V120.358H125.41C125.41 120.358 125.438 120.468 125.438 120.522C125.438 123.43 121.241 125.789 116.084 125.789C110.928 125.789 106.731 123.43 106.731 120.522C106.731 120.468 106.731 120.413 106.758 120.358H106.731V97.4548C106.731 100.362 110.928 102.721 116.084 102.721Z" fill="#E4E6EA"/>
<path d="M112.133 73.9486H120.389V77.9532H112.133V73.9486Z" fill="#E4E6EA"/>
<path d="M116.247 71.6172C118.524 71.6172 120.389 72.6595 120.389 73.9486C120.389 75.2378 118.551 76.2801 116.247 76.2801C113.943 76.2801 112.105 75.2378 112.105 73.9486C112.105 72.6595 113.943 71.6172 116.247 71.6172Z" fill="white"/>
<path d="M116.251 72.0557C118.116 72.0557 119.625 72.906 119.625 73.9482C119.625 74.9905 118.116 75.8408 116.251 75.8408C114.386 75.8408 112.878 74.9905 112.878 73.9482C112.878 72.906 114.386 72.0557 116.251 72.0557Z" fill="#D3DBDD"/>
<path d="M122.448 105.684C122.914 105.437 123.353 105.19 123.71 104.888C124.779 104.038 125.438 102.996 125.438 101.871V117.451C125.438 120.331 121.323 122.662 116.249 122.717V107.137C117.977 107.137 119.595 106.808 120.967 106.342C121.488 106.15 122.009 105.958 122.448 105.711V105.684Z" fill="#7A92DA"/>
<path d="M241.468 154.013V152.889L244.512 153.437L247.557 152.889V154.013L248.709 154.233C248.709 154.233 253.838 170.251 253.838 175.325V196.967H235.131V175.325C235.131 170.251 240.261 154.233 240.261 154.233L241.413 154.013H241.468Z" fill="white"/>
<path d="M244.513 152.778C247.339 152.778 249.643 154.068 249.643 155.658C249.643 157.249 247.339 158.538 244.513 158.538C241.688 158.538 239.384 157.249 239.384 155.658C239.384 154.068 241.688 152.778 244.513 152.778Z" fill="#D3DBDD"/>
<path d="M244.675 152.258C246.951 152.258 248.816 153.3 248.816 154.589C248.816 155.878 246.979 156.921 244.675 156.921C242.371 156.921 240.533 155.878 240.533 154.589C240.533 153.3 242.371 152.258 244.675 152.258Z" fill="#E4E6EA"/>
<path d="M244.512 179.33C249.669 179.33 253.865 176.971 253.865 174.063V196.967H253.838C253.838 196.967 253.865 197.076 253.865 197.131C253.865 200.039 249.669 202.397 244.512 202.397C239.355 202.397 235.159 200.039 235.159 197.131C235.159 197.076 235.159 197.021 235.186 196.967H235.159V174.063C235.159 176.971 239.355 179.33 244.512 179.33Z" fill="#E4E6EA"/>
<path d="M240.537 150.585H248.793V154.59H240.537V150.585Z" fill="#E4E6EA"/>
<path d="M244.675 148.253C246.951 148.253 248.816 149.295 248.816 150.584C248.816 151.874 246.979 152.916 244.675 152.916C242.371 152.916 240.533 151.874 240.533 150.584C240.533 149.295 242.371 148.253 244.675 148.253Z" fill="white"/>
<path d="M244.679 148.691C246.544 148.691 248.053 149.542 248.053 150.584C248.053 151.626 246.544 152.477 244.679 152.477C242.814 152.477 241.305 151.626 241.305 150.584C241.305 149.542 242.814 148.691 244.679 148.691Z" fill="#D3DBDD"/>
<path d="M250.876 182.32C251.342 182.074 251.781 181.827 252.137 181.525C253.207 180.675 253.865 179.632 253.865 178.508V194.087C253.865 196.967 249.751 199.299 244.677 199.354V183.774C246.405 183.774 248.023 183.445 249.394 182.979C249.915 182.787 250.437 182.595 250.876 182.348V182.32Z" fill="#7A92DA"/>
<path d="M276.839 173.13V172.006L279.883 172.554L282.928 172.006V173.13L284.08 173.35C284.08 173.35 289.209 189.368 289.209 194.442V216.084H270.503V194.442C270.503 189.368 275.632 173.35 275.632 173.35L276.784 173.13H276.839Z" fill="white"/>
<path d="M279.884 171.896C282.71 171.896 285.014 173.186 285.014 174.776C285.014 176.367 282.71 177.656 279.884 177.656C277.059 177.656 274.755 176.367 274.755 174.776C274.755 173.186 277.059 171.896 279.884 171.896Z" fill="#D3DBDD"/>
<path d="M280.046 171.376C282.322 171.376 284.188 172.418 284.188 173.707C284.188 174.996 282.35 176.039 280.046 176.039C277.742 176.039 275.904 174.996 275.904 173.707C275.904 172.418 277.742 171.376 280.046 171.376Z" fill="#E4E6EA"/>
<path d="M279.883 198.448C285.04 198.448 289.236 196.089 289.236 193.181V216.084H289.209C289.209 216.084 289.236 216.194 289.236 216.249C289.236 219.157 285.04 221.515 279.883 221.515C274.726 221.515 270.53 219.157 270.53 216.249C270.53 216.194 270.53 216.139 270.557 216.084H270.53V193.181C270.53 196.089 274.726 198.448 279.883 198.448Z" fill="#E4E6EA"/>
<path d="M275.906 169.703H284.162V173.707H275.906V169.703Z" fill="#E4E6EA"/>
<path d="M280.046 167.371C282.322 167.371 284.188 168.413 284.188 169.702C284.188 170.991 282.35 172.034 280.046 172.034C277.742 172.034 275.904 170.991 275.904 169.702C275.904 168.413 277.742 167.371 280.046 167.371Z" fill="white"/>
<path d="M280.05 167.809C281.915 167.809 283.424 168.66 283.424 169.702C283.424 170.744 281.915 171.595 280.05 171.595C278.185 171.595 276.676 170.744 276.676 169.702C276.676 168.66 278.185 167.809 280.05 167.809Z" fill="#D3DBDD"/>
<path d="M286.247 201.438C286.713 201.191 287.152 200.944 287.508 200.642C288.578 199.792 289.236 198.75 289.236 197.625V213.205C289.236 216.085 285.122 218.416 280.048 218.471V202.891C281.776 202.891 283.394 202.562 284.765 202.096C285.287 201.904 285.808 201.712 286.247 201.465V201.438Z" fill="#7A92DA"/>
<path d="M309.018 191.152V190.027L312.063 190.576L315.108 190.027V191.152L316.259 191.371C316.259 191.371 321.389 207.39 321.389 212.464V234.105H302.682V212.464C302.682 207.39 307.811 191.371 307.811 191.371L308.963 191.152H309.018Z" fill="white"/>
<path d="M312.088 189.917C314.913 189.917 317.217 191.206 317.217 192.797C317.217 194.388 314.913 195.677 312.088 195.677C309.262 195.677 306.958 194.388 306.958 192.797C306.958 191.206 309.262 189.917 312.088 189.917Z" fill="#D3DBDD"/>
<path d="M312.225 189.396C314.502 189.396 316.367 190.439 316.367 191.728C316.367 193.017 314.529 194.059 312.225 194.059C309.921 194.059 308.084 193.017 308.084 191.728C308.084 190.439 309.921 189.396 312.225 189.396Z" fill="#E4E6EA"/>
<path d="M312.086 216.468C317.243 216.468 321.439 214.109 321.439 211.202V234.105H321.412C321.412 234.105 321.439 234.215 321.439 234.269C321.439 237.177 317.243 239.536 312.086 239.536C306.93 239.536 302.733 237.177 302.733 234.269C302.733 234.215 302.733 234.16 302.76 234.105H302.733V211.202C302.733 214.109 306.93 216.468 312.086 216.468Z" fill="#E4E6EA"/>
<path d="M308.111 187.724H316.367V191.728H308.111V187.724Z" fill="#E4E6EA"/>
<path d="M312.225 185.391C314.502 185.391 316.367 186.434 316.367 187.723C316.367 189.012 314.529 190.054 312.225 190.054C309.921 190.054 308.084 189.012 308.084 187.723C308.084 186.434 309.921 185.391 312.225 185.391Z" fill="white"/>
<path d="M312.224 185.802C314.089 185.802 315.598 186.653 315.598 187.695C315.598 188.737 314.089 189.588 312.224 189.588C310.359 189.588 308.85 188.737 308.85 187.695C308.85 186.653 310.359 185.802 312.224 185.802Z" fill="#D3DBDD"/>
<path d="M318.426 219.431C318.893 219.184 319.331 218.937 319.688 218.635C320.758 217.785 321.416 216.743 321.416 215.618V231.198C321.416 234.078 317.302 236.409 312.227 236.464V220.885C313.955 220.885 315.574 220.555 316.945 220.089C317.466 219.897 317.987 219.705 318.426 219.458V219.431Z" fill="#7A92DA"/>
<path d="M339.983 209.557V208.46L343.028 209.009L346.072 208.46V209.557L347.224 209.777C347.224 209.777 352.354 225.795 352.354 230.869V252.511H333.647V230.869C333.647 225.795 338.776 209.777 338.776 209.777L339.928 209.557H339.983Z" fill="white"/>
<path d="M343.06 208.295C345.885 208.295 348.189 209.584 348.189 211.175C348.189 212.766 345.885 214.055 343.06 214.055C340.235 214.055 337.931 212.766 337.931 211.175C337.931 209.584 340.235 208.295 343.06 208.295Z" fill="#D3DBDD"/>
<path d="M343.196 207.801C345.473 207.801 347.338 208.843 347.338 210.132C347.338 211.421 345.5 212.464 343.196 212.464C340.892 212.464 339.054 211.421 339.054 210.132C339.054 208.843 340.892 207.801 343.196 207.801Z" fill="#E4E6EA"/>
<path d="M343.057 234.874C348.214 234.874 352.41 232.515 352.41 229.607V252.51H352.383C352.383 252.51 352.41 252.62 352.41 252.675C352.41 255.582 348.214 257.941 343.057 257.941C337.9 257.941 333.704 255.582 333.704 252.675C333.704 252.62 333.704 252.565 333.731 252.51H333.704V229.607C333.704 232.515 337.9 234.874 343.057 234.874Z" fill="#E4E6EA"/>
<path d="M339.082 206.102H347.338V210.106H339.082V206.102Z" fill="#E4E6EA"/>
<path d="M343.196 203.77C345.473 203.77 347.338 204.812 347.338 206.101C347.338 207.39 345.5 208.432 343.196 208.432C340.892 208.432 339.054 207.39 339.054 206.101C339.054 204.812 340.892 203.77 343.196 203.77Z" fill="white"/>
<path d="M343.195 204.208C345.06 204.208 346.568 205.058 346.568 206.1C346.568 207.143 345.06 207.993 343.195 207.993C341.329 207.993 339.821 207.143 339.821 206.1C339.821 205.058 341.329 204.208 343.195 204.208Z" fill="#D3DBDD"/>
<path d="M349.42 237.836C349.887 237.589 350.326 237.342 350.682 237.041C351.752 236.19 352.41 235.148 352.41 234.023V249.603C352.41 252.483 348.296 254.815 343.222 254.869V239.29C344.95 239.29 346.568 238.961 347.939 238.494C348.46 238.302 348.982 238.11 349.42 237.863V237.836Z" fill="#7A92DA"/>
<path d="M372.52 227.934V226.81L375.565 227.358L378.609 226.81V227.934L379.761 228.154C379.761 228.154 384.891 244.172 384.891 249.246V270.888H366.184V249.246C366.184 244.172 371.313 228.154 371.313 228.154L372.465 227.934H372.52Z" fill="white"/>
<path d="M375.59 226.699C378.415 226.699 380.719 227.988 380.719 229.579C380.719 231.17 378.415 232.459 375.59 232.459C372.764 232.459 370.46 231.17 370.46 229.579C370.46 227.988 372.764 226.699 375.59 226.699Z" fill="#D3DBDD"/>
<path d="M375.727 226.179C378.004 226.179 379.869 227.221 379.869 228.51C379.869 229.799 378.031 230.842 375.727 230.842C373.423 230.842 371.586 229.799 371.586 228.51C371.586 227.221 373.423 226.179 375.727 226.179Z" fill="#E4E6EA"/>
<path d="M375.588 253.251C380.745 253.251 384.941 250.892 384.941 247.984V270.887H384.914C384.914 270.887 384.941 270.997 384.941 271.052C384.941 273.959 380.745 276.318 375.588 276.318C370.432 276.318 366.235 273.959 366.235 271.052C366.235 270.997 366.235 270.942 366.262 270.887H366.235V247.984C366.235 250.892 370.432 253.251 375.588 253.251Z" fill="#E4E6EA"/>
<path d="M371.613 224.506H379.869V228.51H371.613V224.506Z" fill="#E4E6EA"/>
<path d="M375.727 222.174C378.004 222.174 379.869 223.216 379.869 224.505C379.869 225.794 378.031 226.837 375.727 226.837C373.423 226.837 371.586 225.794 371.586 224.505C371.586 223.216 373.423 222.174 375.727 222.174Z" fill="white"/>
<path d="M375.726 222.612C377.591 222.612 379.1 223.463 379.1 224.505C379.1 225.547 377.591 226.397 375.726 226.397C373.861 226.397 372.352 225.547 372.352 224.505C372.352 223.463 373.861 222.612 375.726 222.612Z" fill="#D3DBDD"/>
<path d="M381.926 256.24C382.393 255.993 382.831 255.747 383.188 255.445C384.258 254.595 384.916 253.552 384.916 252.428V268.007C384.916 270.887 380.802 273.219 375.727 273.274V257.694C377.455 257.694 379.074 257.365 380.445 256.899C380.966 256.707 381.487 256.515 381.926 256.268V256.24Z" fill="#7A92DA"/>
<path d="M403.317 247.162V246.037L406.362 246.586L409.406 246.037V247.162L410.558 247.381C410.558 247.381 415.688 263.4 415.688 268.474V290.115H396.981V268.474C396.981 263.4 402.11 247.381 402.11 247.381L403.262 247.162H403.317Z" fill="white"/>
<path d="M406.363 245.927C409.188 245.927 411.492 247.216 411.492 248.807C411.492 250.398 409.188 251.687 406.363 251.687C403.538 251.687 401.234 250.398 401.234 248.807C401.234 247.216 403.538 245.927 406.363 245.927Z" fill="#D3DBDD"/>
<path d="M406.524 245.406C408.801 245.406 410.666 246.449 410.666 247.738C410.666 249.027 408.828 250.069 406.524 250.069C404.22 250.069 402.382 249.027 402.382 247.738C402.382 246.449 404.22 245.406 406.524 245.406Z" fill="#E4E6EA"/>
<path d="M406.362 272.505C411.518 272.505 415.715 270.147 415.715 267.239V290.142H415.687C415.687 290.142 415.715 290.252 415.715 290.307C415.715 293.214 411.518 295.573 406.362 295.573C401.205 295.573 397.008 293.214 397.008 290.307C397.008 290.252 397.008 290.197 397.036 290.142H397.008V267.239C397.008 270.147 401.205 272.505 406.362 272.505Z" fill="#E4E6EA"/>
<path d="M402.385 243.733H410.641V247.738H402.385V243.733Z" fill="#E4E6EA"/>
<path d="M406.524 241.401C408.801 241.401 410.666 242.444 410.666 243.733C410.666 245.022 408.828 246.064 406.524 246.064C404.22 246.064 402.382 245.022 402.382 243.733C402.382 242.444 404.22 241.401 406.524 241.401Z" fill="white"/>
<path d="M406.529 241.84C408.394 241.84 409.902 242.69 409.902 243.732C409.902 244.775 408.394 245.625 406.529 245.625C404.663 245.625 403.155 244.775 403.155 243.732C403.155 242.69 404.663 241.84 406.529 241.84Z" fill="#D3DBDD"/>
<path d="M412.725 275.468C413.191 275.221 413.63 274.974 413.987 274.672C415.057 273.822 415.715 272.78 415.715 271.655V287.235C415.715 290.115 411.601 292.446 406.526 292.501V276.922C408.254 276.922 409.872 276.592 411.244 276.126C411.765 275.934 412.286 275.742 412.725 275.495V275.468Z" fill="#7A92DA"/>
<path d="M208.483 133.962V132.865L211.528 133.414L214.572 132.865V133.962L215.724 134.182C215.724 134.182 220.854 150.2 220.854 155.274V176.916H202.147V155.274C202.147 150.2 207.276 134.182 207.276 134.182L208.428 133.962H208.483Z" fill="white"/>
<path d="M211.529 132.728C214.354 132.728 216.658 134.017 216.658 135.608C216.658 137.198 214.354 138.488 211.529 138.488C208.704 138.488 206.4 137.198 206.4 135.608C206.4 134.017 208.704 132.728 211.529 132.728Z" fill="#D3DBDD"/>
<path d="M211.667 132.206C213.943 132.206 215.809 133.248 215.809 134.537C215.809 135.827 213.971 136.869 211.667 136.869C209.363 136.869 207.525 135.827 207.525 134.537C207.525 133.248 209.363 132.206 211.667 132.206Z" fill="#E4E6EA"/>
<path d="M211.528 159.279C216.684 159.279 220.881 156.92 220.881 154.013V176.916H220.853C220.853 176.916 220.881 177.025 220.881 177.08C220.881 179.988 216.684 182.347 211.528 182.347C206.371 182.347 202.174 179.988 202.174 177.08C202.174 177.025 202.174 176.97 202.202 176.916H202.174V154.013C202.174 156.92 206.371 159.279 211.528 159.279Z" fill="#E4E6EA"/>
<path d="M207.552 130.534H215.809V134.539H207.552V130.534Z" fill="#E4E6EA"/>
<path d="M211.667 128.202C213.943 128.202 215.809 129.244 215.809 130.533C215.809 131.823 213.971 132.865 211.667 132.865C209.363 132.865 207.525 131.823 207.525 130.533C207.525 129.244 209.363 128.202 211.667 128.202Z" fill="white"/>
<path d="M211.665 128.641C213.53 128.641 215.039 129.491 215.039 130.533C215.039 131.575 213.53 132.426 211.665 132.426C209.8 132.426 208.292 131.575 208.292 130.533C208.292 129.491 209.8 128.641 211.665 128.641Z" fill="#D3DBDD"/>
<path d="M217.891 162.269C218.357 162.022 218.796 161.775 219.153 161.473C220.223 160.623 220.881 159.581 220.881 158.456V174.036C220.881 176.916 216.767 179.247 211.692 179.302V163.722C213.42 163.722 215.039 163.393 216.41 162.927C216.931 162.735 217.452 162.543 217.891 162.296V162.269Z" fill="#7A92DA"/>
<path d="M214.223 129.328C213.592 128.916 212.714 128.642 211.672 128.642C210.629 128.642 209.669 128.944 209.066 129.382V128.203H214.223V129.328Z" fill="#89919B"/>
<path d="M214.223 129.327V131.713C213.592 132.125 212.714 132.399 211.672 132.399C210.629 132.399 209.669 132.097 209.066 131.658V129.382C209.669 128.943 210.602 128.641 211.672 128.641C212.741 128.641 213.619 128.916 214.223 129.327Z" fill="#89919B"/>
<path d="M218.631 125.57C218.631 127.791 215.449 129.574 211.527 129.574C207.604 129.574 204.423 127.791 204.423 125.57V101.789H218.658V125.57H218.631Z" fill="#819396"/>
<path d="M176.299 114.105V112.98L179.344 113.529L182.389 112.98V114.105L183.541 114.324C183.541 114.324 188.67 130.343 188.67 135.417V157.059H169.963V135.417C169.963 130.343 175.093 114.324 175.093 114.324L176.245 114.105H176.299Z" fill="white"/>
<path d="M179.369 112.87C182.194 112.87 184.498 114.159 184.498 115.75C184.498 117.341 182.194 118.63 179.369 118.63C176.544 118.63 174.24 117.341 174.24 115.75C174.24 114.159 176.544 112.87 179.369 112.87Z" fill="#D3DBDD"/>
<path d="M179.507 112.35C181.783 112.35 183.648 113.392 183.648 114.681C183.648 115.97 181.811 117.013 179.507 117.013C177.203 117.013 175.365 115.97 175.365 114.681C175.365 113.392 177.203 112.35 179.507 112.35Z" fill="#E4E6EA"/>
<path d="M179.367 139.422C184.524 139.422 188.721 137.063 188.721 134.155V157.058H188.693C188.693 157.058 188.721 157.168 188.721 157.223C188.721 160.13 184.524 162.489 179.367 162.489C174.211 162.489 170.014 160.13 170.014 157.223C170.014 157.168 170.014 157.113 170.042 157.058H170.014V134.155C170.014 137.063 174.211 139.422 179.367 139.422Z" fill="#E4E6EA"/>
<path d="M175.392 110.677H183.648V114.681H175.392V110.677Z" fill="#E4E6EA"/>
<path d="M179.507 108.345C181.783 108.345 183.648 109.387 183.648 110.676C183.648 111.965 181.811 113.008 179.507 113.008C177.203 113.008 175.365 111.965 175.365 110.676C175.365 109.387 177.203 108.345 179.507 108.345Z" fill="white"/>
<path d="M179.505 108.783C181.37 108.783 182.879 109.633 182.879 110.676C182.879 111.718 181.37 112.568 179.505 112.568C177.64 112.568 176.131 111.718 176.131 110.676C176.131 109.633 177.64 108.783 179.505 108.783Z" fill="#D3DBDD"/>
<path d="M185.702 142.411C186.168 142.164 186.607 141.918 186.963 141.616C188.033 140.766 188.691 139.723 188.691 138.599V154.178C188.691 157.058 184.577 159.39 179.503 159.445V143.865C181.231 143.865 182.849 143.536 184.221 143.07C184.742 142.878 185.263 142.686 185.702 142.439V142.411Z" fill="#7A92DA"/>
<path d="M182.055 109.469C181.424 109.058 180.546 108.784 179.504 108.784C178.462 108.784 177.501 109.085 176.898 109.524V108.345H182.055V109.469Z" fill="#89919B"/>
<path d="M182.055 109.469V111.855C181.424 112.267 180.546 112.541 179.504 112.541C178.462 112.541 177.501 112.239 176.898 111.8V109.524C177.501 109.085 178.434 108.783 179.504 108.783C180.574 108.783 181.451 109.057 182.055 109.469Z" fill="#89919B"/>
<path d="M186.467 105.711C186.467 107.933 183.285 109.716 179.363 109.716C175.44 109.716 172.259 107.933 172.259 105.711V81.9307H186.494V105.711H186.467Z" fill="#819396"/>
<path d="M145.456 95.7808V94.6562L148.5 95.2048L151.545 94.6562V95.7808L152.697 96.0003C152.697 96.0003 157.826 112.019 157.826 117.093V138.734H139.12V117.093C139.12 112.019 144.249 96.0003 144.249 96.0003L145.401 95.7808H145.456Z" fill="white"/>
<path d="M148.527 94.5465C151.352 94.5465 153.656 95.8357 153.656 97.4265C153.656 99.0174 151.352 100.307 148.527 100.307C145.702 100.307 143.398 99.0174 143.398 97.4265C143.398 95.8357 145.702 94.5465 148.527 94.5465Z" fill="#D3DBDD"/>
<path d="M148.663 94.0258C150.94 94.0258 152.805 95.0681 152.805 96.3572C152.805 97.6464 150.967 98.6887 148.663 98.6887C146.359 98.6887 144.521 97.6464 144.521 96.3572C144.521 95.0681 146.359 94.0258 148.663 94.0258Z" fill="#E4E6EA"/>
<path d="M148.526 121.098C153.682 121.098 157.879 118.739 157.879 115.831V138.734H157.851C157.851 138.734 157.879 138.844 157.879 138.899C157.879 141.806 153.682 144.165 148.526 144.165C143.369 144.165 139.172 141.806 139.172 138.899C139.172 138.844 139.172 138.789 139.2 138.734H139.172V115.831C139.172 118.739 143.369 121.098 148.526 121.098Z" fill="#E4E6EA"/>
<path d="M144.549 92.3525H152.805V96.3572H144.549V92.3525Z" fill="#E4E6EA"/>
<path d="M148.663 90.021C150.94 90.021 152.805 91.0633 152.805 92.3524C152.805 93.6416 150.967 94.6839 148.663 94.6839C146.359 94.6839 144.521 93.6416 144.521 92.3524C144.521 91.0633 146.359 90.021 148.663 90.021Z" fill="white"/>
<path d="M148.663 90.46C150.528 90.46 152.037 91.3103 152.037 92.3525C152.037 93.3948 150.528 94.2451 148.663 94.2451C146.798 94.2451 145.29 93.3948 145.29 92.3525C145.29 91.3103 146.798 90.46 148.663 90.46Z" fill="#D3DBDD"/>
<path d="M154.864 124.088C155.33 123.841 155.769 123.594 156.125 123.293C157.195 122.442 157.854 121.4 157.854 120.275V135.855C157.854 138.735 153.739 141.066 148.665 141.121V125.542C150.393 125.542 152.011 125.213 153.383 124.746C153.904 124.554 154.425 124.362 154.864 124.115V124.088Z" fill="#7A92DA"/>
<path d="M151.215 91.1457C150.584 90.7343 149.706 90.46 148.664 90.46C147.622 90.46 146.662 90.7617 146.058 91.2006V90.0211H151.215V91.1457Z" fill="#89919B"/>
<path d="M151.215 91.1456V93.5319C150.584 93.9433 149.706 94.2176 148.664 94.2176C147.622 94.2176 146.662 93.9159 146.058 93.477V91.2004C146.662 90.7616 147.594 90.4598 148.664 90.4598C149.734 90.4598 150.611 90.7341 151.215 91.1456Z" fill="#89919B"/>
<path d="M155.633 87.3883C155.633 89.6101 152.451 91.393 148.529 91.393C144.606 91.393 141.425 89.6101 141.425 87.3883V63.6075H155.66V87.3883H155.633Z" fill="#819396"/>
<path d="M275.361 61.084L239.32 81.9299L132.238 20.8459L168.279 0L275.361 61.084Z" fill="#B8BCC1"/>
<path d="M275.361 116.902L239.32 137.693V81.9027L275.361 61.0842V116.902Z" fill="#89919B"/>
<path d="M239.318 137.693L132.236 76.6634V20.8457L239.318 81.9297V137.693Z" fill="#9EA4AD"/>
<path d="M235.67 131.11L191.784 106.122V69.0383L235.67 94.0534V131.11Z" fill="#525D60"/>
<path d="M188.713 57.354V104.97L135.748 74.7713L135.501 74.6341V26.9902L188.493 57.2168L188.74 57.354H188.713ZM187.698 57.9574L136.516 28.7731V74.0307L187.698 103.215V57.9574Z" fill="#2C353A"/>
<path d="M233.725 127.572L220.888 120.194V105.245L233.725 112.623V127.572Z" fill="white"/>
<path d="M233.723 83.8498C234.738 84.4258 235.561 86.0167 235.561 87.3607C235.561 88.7047 234.738 89.3356 233.723 88.7596C232.708 88.1835 231.885 86.5927 231.885 85.2487C231.885 83.9046 232.708 83.2738 233.723 83.8498Z" fill="#DD4545"/>
<path d="M224.043 78.4191C225.058 78.9951 225.881 80.586 225.881 81.93C225.881 83.274 225.058 83.9049 224.043 83.3289C223.028 82.7529 222.205 81.162 222.205 79.818C222.205 78.474 223.028 77.8431 224.043 78.4191Z" fill="#DD4545"/>
<path d="M214.387 73.0152C215.402 73.5912 216.225 75.1821 216.225 76.5261C216.225 77.8701 215.402 78.501 214.387 77.925C213.372 77.349 212.549 75.7581 212.549 74.4141C212.549 73.0701 213.372 72.4392 214.387 73.0152Z" fill="#DD4545"/>
<path d="M204.733 67.64C205.747 68.216 206.57 69.8068 206.57 71.1508C206.57 72.4949 205.747 73.1257 204.733 72.5497C203.718 71.9737 202.895 70.3828 202.895 69.0388C202.895 67.6948 203.718 67.0639 204.733 67.64Z" fill="#DD4545"/>
<path d="M195.053 62.2364C196.068 62.8124 196.891 64.4033 196.891 65.7473C196.891 67.0913 196.068 67.7222 195.053 67.1462C194.038 66.5701 193.215 64.9793 193.215 63.6353C193.215 62.2913 194.038 61.6604 195.053 62.2364Z" fill="#DD4545"/>
<path d="M208.299 81.1069C209.368 81.7378 210.246 83.4109 210.246 84.8646C210.246 86.3184 209.368 86.9767 208.299 86.3458C207.229 85.7149 206.351 84.0418 206.351 82.588C206.351 81.1343 207.229 80.476 208.299 81.1069Z" fill="#2C353A"/>
<path d="M209.121 85.7702L207.64 86.5931L205.747 82.5885L207.256 81.7382L209.121 85.7702Z" fill="#F43838"/>
<path d="M208.134 81.8476C208.93 82.3139 209.588 83.5481 209.588 84.6179C209.588 85.6876 208.93 86.1813 208.134 85.715C207.339 85.2487 206.68 84.0144 206.68 82.9447C206.68 81.875 207.339 81.3813 208.134 81.8476Z" fill="#F43838"/>
<path d="M206.685 82.6708C207.48 83.1371 208.139 84.3714 208.139 85.4411C208.139 86.5108 207.48 87.0046 206.685 86.5383C205.89 86.072 205.231 84.8377 205.231 83.768C205.231 82.6982 205.89 82.2045 206.685 82.6708Z" fill="#E52525"/>
<path d="M201.933 77.3492C203.003 77.9801 203.881 79.6532 203.881 81.1069C203.881 82.5607 203.003 83.219 201.933 82.5881C200.864 81.9572 199.986 80.2841 199.986 78.8303C199.986 77.3766 200.864 76.7183 201.933 77.3492Z" fill="#2C353A"/>
<path d="M202.754 82.0125L201.273 82.8354L199.38 78.8308L200.861 77.9805L202.754 82.0125Z" fill="#F43838"/>
<path d="M201.74 78.0899C202.535 78.5562 203.193 79.7905 203.193 80.8602C203.193 81.9299 202.535 82.4236 201.74 81.9573C200.944 81.4911 200.286 80.2568 200.286 79.187C200.286 78.1173 200.944 77.6236 201.74 78.0899Z" fill="#F43838"/>
<path d="M200.29 78.913C201.086 79.3793 201.744 80.6136 201.744 81.6833C201.744 82.753 201.086 83.2467 200.29 82.7805C199.495 82.3142 198.837 81.0799 198.837 80.0101C198.837 78.9404 199.495 78.4467 200.29 78.913Z" fill="#E52525"/>
<path d="M195.515 73.5918C196.585 74.2226 197.463 75.8958 197.463 77.3495C197.463 78.8032 196.585 79.4615 195.515 78.8307C194.446 78.1998 193.568 76.5266 193.568 75.0729C193.568 73.6192 194.446 72.9609 195.515 73.5918Z" fill="#2C353A"/>
<path d="M196.338 78.2549L194.857 79.1052L192.964 75.0732L194.445 74.2229L196.338 78.2549Z" fill="#F43838"/>
<path d="M195.324 74.3324C196.119 74.7987 196.777 76.033 196.777 77.1027C196.777 78.1725 196.119 78.6662 195.324 78.1999C194.528 77.7336 193.87 76.4993 193.87 75.4296C193.87 74.3599 194.528 73.8661 195.324 74.3324Z" fill="#F43838"/>
<path d="M193.9 75.1555C194.695 75.6218 195.354 76.8561 195.354 77.9259C195.354 78.9956 194.695 79.4893 193.9 79.023C193.104 78.5567 192.446 77.3224 192.446 76.2527C192.446 75.183 193.104 74.6893 193.9 75.1555Z" fill="#E52525"/>
<path d="M208.299 90.5704C209.368 91.2013 210.246 92.8744 210.246 94.3281C210.246 95.7819 209.368 96.4402 208.299 95.8093C207.229 95.1784 206.351 93.5053 206.351 92.0515C206.351 90.5978 207.229 89.9395 208.299 90.5704Z" fill="#2C353A"/>
<path d="M209.121 95.2334L207.64 96.0563L205.747 92.0517L207.256 91.2014L209.121 95.2334Z" fill="#F43838"/>
<path d="M208.134 91.3109C208.93 91.7772 209.588 93.0115 209.588 94.0812C209.588 95.151 208.93 95.6447 208.134 95.1784C207.339 94.7121 206.68 93.4778 206.68 92.4081C206.68 91.3384 207.339 90.8447 208.134 91.3109Z" fill="#F43838"/>
<path d="M206.685 92.1338C207.48 92.6001 208.139 93.8344 208.139 94.9041C208.139 95.9738 207.48 96.4676 206.685 96.0013C205.89 95.535 205.231 94.3007 205.231 93.231C205.231 92.1612 205.89 91.6675 206.685 92.1338Z" fill="#E52525"/>
<path d="M201.933 86.8126C203.003 87.4434 203.881 89.1166 203.881 90.5703C203.881 92.0241 203.003 92.6823 201.933 92.0515C200.864 91.4206 199.986 89.7475 199.986 88.2937C199.986 86.84 200.864 86.1817 201.933 86.8126Z" fill="#2C353A"/>
<path d="M202.754 91.4754L201.273 92.2983L199.38 88.2936L200.861 87.4434L202.754 91.4754Z" fill="#F43838"/>
<path d="M201.74 87.5532C202.535 88.0195 203.193 89.2538 203.193 90.3236C203.193 91.3933 202.535 91.887 201.74 91.4207C200.944 90.9544 200.286 89.7201 200.286 88.6504C200.286 87.5807 200.944 87.087 201.74 87.5532Z" fill="#F43838"/>
<path d="M200.29 88.3764C201.086 88.8427 201.744 90.077 201.744 91.1467C201.744 92.2164 201.086 92.7101 200.29 92.2438C199.495 91.7776 198.837 90.5433 198.837 89.4735C198.837 88.4038 199.495 87.9101 200.29 88.3764Z" fill="#E52525"/>
<path d="M195.515 83.0544C196.585 83.6853 197.463 85.3584 197.463 86.8121C197.463 88.2659 196.585 88.9242 195.515 88.2933C194.446 87.6624 193.568 85.9893 193.568 84.5356C193.568 83.0818 194.446 82.4235 195.515 83.0544Z" fill="#2C353A"/>
<path d="M196.338 87.7176L194.857 88.5405L192.964 84.5358L194.445 83.6855L196.338 87.7176Z" fill="#F43838"/>
<path d="M195.324 83.7951C196.119 84.2614 196.777 85.4957 196.777 86.5654C196.777 87.6351 196.119 88.1288 195.324 87.6625C194.528 87.1962 193.87 85.962 193.87 84.8922C193.87 83.8225 194.528 83.3288 195.324 83.7951Z" fill="#F43838"/>
<path d="M193.9 84.6183C194.695 85.0846 195.354 86.3189 195.354 87.3886C195.354 88.4584 194.695 88.9521 193.9 88.4858C193.104 88.0195 192.446 86.7852 192.446 85.7155C192.446 84.6457 193.104 84.152 193.9 84.6183Z" fill="#E52525"/>
<path d="M233.725 99.0729L220.888 91.5574V89.1162L233.725 96.6591V99.0729Z" fill="#9EA4AD"/>
<path d="M233.725 104.23L220.888 96.7142V94.2731L233.725 101.816V104.23Z" fill="#9EA4AD"/>
<path d="M233.725 109.55L220.888 102.007V99.5938L233.725 107.109V109.55Z" fill="#9EA4AD"/>
<path d="M200.291 108.289L193.982 104.587V102.2L200.291 105.903V108.289Z" fill="#2C353A"/>
<path d="M219.297 101.35L211.562 96.7966V83.7953L219.297 88.321V101.35Z" fill="white"/>
<path d="M196.748 92.4076C198.778 93.587 200.424 96.7414 200.424 99.4568C200.424 102.172 198.778 103.407 196.748 102.255C194.719 101.075 193.073 97.9208 193.073 95.2053C193.073 92.4899 194.719 91.2556 196.748 92.4076Z" fill="#2C353A"/>
<path d="M196.309 93.8888C197.735 94.7117 198.859 96.906 198.859 98.7986C198.859 100.691 197.707 101.541 196.309 100.746C194.882 99.9231 193.758 97.7288 193.758 95.8362C193.758 93.9436 194.91 93.0934 196.309 93.8888Z" fill="white"/>
<path d="M209.26 113.391L202.951 109.688V107.302L209.26 111.005V113.391Z" fill="#2C353A"/>
<path d="M205.75 97.4824C207.78 98.6619 209.426 101.816 209.426 104.532C209.426 107.247 207.78 108.481 205.75 107.329C203.721 106.15 202.075 102.996 202.075 100.28C202.075 97.5647 203.721 96.3304 205.75 97.4824Z" fill="#2C353A"/>
<path d="M205.31 98.9907C206.737 99.8136 207.861 102.008 207.861 103.9C207.861 105.793 206.709 106.643 205.31 105.848C203.884 105.025 202.76 102.831 202.76 100.938C202.76 99.0456 203.912 98.1953 205.31 98.9907Z" fill="white"/>
<path d="M218.367 118.493L212.059 114.817V112.431L218.367 116.134V118.493Z" fill="#2C353A"/>
<path d="M214.825 102.61C216.854 103.79 218.5 106.944 218.5 109.66C218.5 112.375 216.854 113.609 214.825 112.457C212.795 111.278 211.149 108.124 211.149 105.408C211.149 102.693 212.795 101.458 214.825 102.61Z" fill="#2C353A"/>
<path d="M214.412 104.091C215.838 104.914 216.963 107.109 216.963 109.001C216.963 110.894 215.811 111.744 214.412 110.949C213.013 110.153 211.861 107.931 211.861 106.039C211.861 104.146 213.013 103.296 214.412 104.091Z" fill="white"/>
<path d="M184.296 78.8308C185.119 79.2971 185.805 80.5862 185.805 81.7108C185.805 82.8354 185.119 83.3291 184.296 82.8354C183.473 82.3691 182.787 81.0799 182.787 79.9554C182.787 78.8308 183.446 78.3371 184.296 78.8308Z" fill="#2C353A"/>
<path d="M184.189 79.2965C184.71 79.5982 185.121 80.3937 185.121 81.0794C185.121 81.7651 184.71 82.0668 184.189 81.7925C183.667 81.4908 183.256 80.6954 183.256 80.0097C183.256 79.3239 183.667 79.0222 184.189 79.2965Z" fill="white"/>
<path d="M280.545 350.431L140.85 430.057V355.039L280.545 275.386V350.431Z" fill="#DD4545"/>
<path d="M422.215 411.488L75.9259 611.499V605.108L422.215 405.18V411.488Z" fill="#89919B"/>
<path d="M358.934 378.463L12.6721 578.447V572.056L358.934 372.154V378.463Z" fill="#89919B"/>
<path d="M13.2516 591.037C15.7476 591.037 17.7773 592.162 17.7773 593.588C17.7773 595.014 15.7476 596.139 13.2516 596.139C10.7556 596.139 8.72586 594.987 8.72586 593.588C8.72586 592.189 10.7556 591.037 13.2516 591.037Z" fill="#2C353A"/>
<path d="M8.75332 587.225H17.7773V593.588H8.75332V587.225Z" fill="#2C353A"/>
<path d="M13.2516 584.674C15.7476 584.674 17.7773 585.826 17.7773 587.225C17.7773 588.624 15.7476 589.776 13.2516 589.776C10.7556 589.776 8.72586 588.624 8.72586 587.225C8.72586 585.826 10.7556 584.674 13.2516 584.674Z" fill="#758182"/>
<path d="M13.2535 585.085C14.7072 585.085 15.9141 585.743 15.9141 586.594C15.9141 587.444 14.7346 588.075 13.2535 588.075C11.7723 588.075 10.5929 587.416 10.5929 586.594C10.5929 585.771 11.7723 585.085 13.2535 585.085Z" fill="#89919B"/>
<path d="M10.5929 522.85H15.9141V586.567H10.5929V522.85Z" fill="#89919B"/>
<path d="M13.2535 521.368C14.7072 521.368 15.9141 522.026 15.9141 522.849C15.9141 523.672 14.7346 524.358 13.2535 524.358C11.7723 524.358 10.5929 523.7 10.5929 522.849C10.5929 521.999 11.7723 521.368 13.2535 521.368Z" fill="#89919B"/>
<path d="M74.6871 625.899C77.1831 625.899 79.2129 627.051 79.2129 628.449C79.2129 629.848 77.1831 631 74.6871 631C72.191 631 70.1613 629.848 70.1613 628.449C70.1613 627.051 72.191 625.899 74.6871 625.899Z" fill="#2C353A"/>
<path d="M70.1614 622.059H79.1855V628.422H70.1614V622.059Z" fill="#2C353A"/>
<path d="M74.6871 619.508C77.1831 619.508 79.2129 620.632 79.2129 622.059C79.2129 623.485 77.1831 624.61 74.6871 624.61C72.191 624.61 70.1613 623.458 70.1613 622.059C70.1613 620.66 72.191 619.508 74.6871 619.508Z" fill="#758182"/>
<path d="M74.689 622.936C73.2196 622.936 72.0284 622.261 72.0284 621.428C72.0284 620.594 73.2196 619.919 74.689 619.919C76.1584 619.919 77.3496 620.594 77.3496 621.428C77.3496 622.261 76.1584 622.936 74.689 622.936Z" fill="#89919B"/>
<path d="M72.0284 557.684H77.3496V621.401H72.0284V557.684Z" fill="#89919B"/>
<path d="M74.689 559.164C73.2196 559.164 72.0284 558.501 72.0284 557.683C72.0284 556.865 73.2196 556.202 74.689 556.202C76.1584 556.202 77.3496 556.865 77.3496 557.683C77.3496 558.501 76.1584 559.164 74.689 559.164Z" fill="#89919B"/>
<path d="M138.185 520.325C140.681 520.325 142.711 521.45 142.711 522.876C142.711 524.302 140.681 525.427 138.185 525.427C135.689 525.427 133.659 524.275 133.659 522.876C133.659 521.477 135.689 520.325 138.185 520.325Z" fill="#2C353A"/>
<path d="M133.687 516.485H142.711V522.849H133.687V516.485Z" fill="#2C353A"/>
<path d="M138.185 513.934C140.681 513.934 142.711 515.086 142.711 516.485C142.711 517.884 140.681 519.036 138.185 519.036C135.689 519.036 133.659 517.884 133.659 516.485C133.659 515.086 135.689 513.934 138.185 513.934Z" fill="#758182"/>
<path d="M138.187 514.346C139.641 514.346 140.848 515.004 140.848 515.854C140.848 516.704 139.668 517.335 138.187 517.335C136.706 517.335 135.526 516.677 135.526 515.854C135.526 515.031 136.706 514.346 138.187 514.346Z" fill="#89919B"/>
<path d="M135.526 452.11H140.848V515.827H135.526V452.11Z" fill="#89919B"/>
<path d="M138.187 450.629C139.641 450.629 140.848 451.287 140.848 452.137C140.848 452.988 139.668 453.619 138.187 453.619C136.706 453.619 135.526 452.96 135.526 452.137C135.526 451.314 136.706 450.629 138.187 450.629Z" fill="#89919B"/>
<path d="M199.627 555.159C202.123 555.159 204.152 556.311 204.152 557.71C204.152 559.109 202.123 560.261 199.627 560.261C197.131 560.261 195.101 559.109 195.101 557.71C195.101 556.311 197.131 555.159 199.627 555.159Z" fill="#2C353A"/>
<path d="M195.128 551.319H204.152V557.683H195.128V551.319Z" fill="#2C353A"/>
<path d="M199.627 548.796C202.123 548.796 204.152 549.948 204.152 551.347C204.152 552.746 202.123 553.898 199.627 553.898C197.131 553.898 195.101 552.746 195.101 551.347C195.101 549.948 197.131 548.796 199.627 548.796Z" fill="#758182"/>
<path d="M199.628 549.18C201.082 549.18 202.289 549.838 202.289 550.688C202.289 551.539 201.11 552.197 199.628 552.197C198.147 552.197 196.968 551.539 196.968 550.688C196.968 549.838 198.147 549.18 199.628 549.18Z" fill="#89919B"/>
<path d="M196.968 486.972H202.289V550.689H196.968V486.972Z" fill="#89919B"/>
<path d="M199.628 485.463C201.082 485.463 202.289 486.121 202.289 486.944C202.289 487.767 201.11 488.453 199.628 488.453C198.147 488.453 196.968 487.794 196.968 486.944C196.968 486.094 198.147 485.463 199.628 485.463Z" fill="#89919B"/>
<path d="M260.711 449.778C263.207 449.778 265.236 450.903 265.236 452.329C265.236 453.755 263.207 454.88 260.711 454.88C258.215 454.88 256.185 453.728 256.185 452.329C256.185 450.93 258.215 449.778 260.711 449.778Z" fill="#2C353A"/>
<path d="M256.212 445.966H265.236V452.329H256.212V445.966Z" fill="#2C353A"/>
<path d="M260.711 443.415C263.207 443.415 265.236 444.567 265.236 445.966C265.236 447.365 263.207 448.517 260.711 448.517C258.215 448.517 256.185 447.365 256.185 445.966C256.185 444.567 258.215 443.415 260.711 443.415Z" fill="#758182"/>
<path d="M260.712 443.826C262.166 443.826 263.373 444.484 263.373 445.307C263.373 446.13 262.194 446.816 260.712 446.816C259.231 446.816 258.052 446.158 258.052 445.307C258.052 444.457 259.231 443.826 260.712 443.826Z" fill="#89919B"/>
<path d="M258.052 381.591H263.373V445.308H258.052V381.591Z" fill="#89919B"/>
<path d="M260.712 380.109C262.166 380.109 263.373 380.768 263.373 381.618C263.373 382.468 262.194 383.127 260.712 383.127C259.231 383.127 258.052 382.468 258.052 381.618C258.052 380.768 259.231 380.109 260.712 380.109Z" fill="#89919B"/>
<path d="M322.152 484.64C324.648 484.64 326.678 485.764 326.678 487.191C326.678 488.617 324.648 489.742 322.152 489.742C319.656 489.742 317.626 488.59 317.626 487.191C317.626 485.792 319.656 484.64 322.152 484.64Z" fill="#2C353A"/>
<path d="M317.654 480.8H326.678V487.163H317.654V480.8Z" fill="#2C353A"/>
<path d="M322.152 478.249C324.648 478.249 326.678 479.374 326.678 480.8C326.678 482.226 324.648 483.351 322.152 483.351C319.656 483.351 317.626 482.199 317.626 480.8C317.626 479.401 319.656 478.249 322.152 478.249Z" fill="#758182"/>
<path d="M322.154 478.66C323.608 478.66 324.814 479.318 324.814 480.169C324.814 481.019 323.635 481.65 322.154 481.65C320.673 481.65 319.493 480.992 319.493 480.169C319.493 479.346 320.673 478.66 322.154 478.66Z" fill="#89919B"/>
<path d="M319.493 416.425H324.814V480.142H319.493V416.425Z" fill="#89919B"/>
<path d="M322.154 414.943C323.608 414.943 324.814 415.602 324.814 416.425C324.814 417.247 323.635 417.906 322.154 417.906C320.673 417.906 319.493 417.247 319.493 416.425C319.493 415.602 320.673 414.943 322.154 414.943Z" fill="#89919B"/>
<path d="M360.824 392.616C363.32 392.616 365.35 393.768 365.35 395.167C365.35 396.566 363.32 397.718 360.824 397.718C358.328 397.718 356.298 396.566 356.298 395.167C356.298 393.768 358.328 392.616 360.824 392.616Z" fill="#2C353A"/>
<path d="M356.326 388.776H365.35V395.14H356.326V388.776Z" fill="#2C353A"/>
<path d="M360.824 386.226C363.32 386.226 365.35 387.378 365.35 388.777C365.35 390.175 363.32 391.327 360.824 391.327C358.328 391.327 356.298 390.175 356.298 388.777C356.298 387.378 358.328 386.226 360.824 386.226Z" fill="#758182"/>
<path d="M360.826 386.637C362.279 386.637 363.486 387.295 363.486 388.145C363.486 388.996 362.307 389.626 360.826 389.626C359.345 389.626 358.165 388.968 358.165 388.145C358.165 387.322 359.345 386.637 360.826 386.637Z" fill="#89919B"/>
<path d="M358.165 324.429H363.486V388.146H358.165V324.429Z" fill="#89919B"/>
<path d="M360.826 322.92C362.279 322.92 363.486 323.578 363.486 324.401C363.486 325.224 362.307 325.91 360.826 325.91C359.345 325.91 358.165 325.251 358.165 324.401C358.165 323.551 359.345 322.92 360.826 322.92Z" fill="#89919B"/>
<path d="M422.265 427.451C424.761 427.451 426.791 428.576 426.791 430.002C426.791 431.428 424.761 432.553 422.265 432.553C419.769 432.553 417.739 431.401 417.739 430.002C417.739 428.603 419.769 427.451 422.265 427.451Z" fill="#2C353A"/>
<path d="M417.767 423.639H426.791V430.002H417.767V423.639Z" fill="#2C353A"/>
<path d="M422.265 421.089C424.761 421.089 426.791 422.241 426.791 423.64C426.791 425.039 424.761 426.191 422.265 426.191C419.769 426.191 417.739 425.039 417.739 423.64C417.739 422.241 419.769 421.089 422.265 421.089Z" fill="#758182"/>
<path d="M422.267 421.5C423.721 421.5 424.928 422.158 424.928 423.009C424.928 423.859 423.748 424.517 422.267 424.517C420.786 424.517 419.607 423.859 419.607 423.009C419.607 422.158 420.786 421.5 422.267 421.5Z" fill="#89919B"/>
<path d="M419.607 359.264H424.928V422.981H419.607V359.264Z" fill="#89919B"/>
<path d="M422.267 357.755C423.721 357.755 424.928 358.413 424.928 359.263C424.928 360.114 423.748 360.745 422.267 360.745C420.786 360.745 419.607 360.086 419.607 359.263C419.607 358.441 420.786 357.755 422.267 357.755Z" fill="#89919B"/>
<path d="M369.963 340.31L7.02438 547.946V508.504L371.307 298.179L369.963 340.31Z" fill="#9EA4AD"/>
<path d="M7.02148 547.946L-0.000288486 543.887V504.472L7.02148 508.504V547.946Z" fill="#89919B"/>
<path d="M371.307 298.18L7.02435 508.504L0.00259399 504.472L364.285 294.147L371.307 298.18Z" fill="#B8BCC1"/>
<path d="M16.8682 506.583L17.7185 506.089L36.2055 516.978L61.248 531.708L54.0069 544.489L21.5037 525.399L10.4773 518.926V517.637C10.4773 513.083 12.9185 508.887 16.8682 506.61V506.583Z" fill="#E4E6EA"/>
<path d="M418.674 326.266L61.2487 531.708L17.7191 506.117L375.144 300.675L418.674 326.266Z" fill="#B8BCC1"/>
<path d="M54.0078 557.271L10.4783 531.68V518.898L54.0078 544.49V557.271Z" fill="#89919B"/>
<path d="M60.3984 532.146L418.674 326.266V347.715L53.9801 557.244V543.145C53.9801 538.592 56.4212 534.396 60.371 532.119L60.3984 532.146Z" fill="#9EA4AD"/>
<path d="M69.9414 526.661L66.1562 528.828L22.2426 503.483L26.0278 501.289L69.9414 526.661Z" fill="#525D60"/>
<path d="M90.459 514.949L86.6739 517.143L42.7603 491.772L46.5455 489.605L90.459 514.949Z" fill="#525D60"/>
<path d="M110.98 503.237L107.195 505.431L63.2818 480.087L67.0669 477.892L110.98 503.237Z" fill="#525D60"/>
<path d="M131.303 491.442L127.518 493.609L83.5766 468.265L87.3891 466.07L131.303 491.442Z" fill="#525D60"/>
<path d="M151.736 479.703L147.951 481.869L104.01 456.498L107.823 454.331L151.736 479.703Z" fill="#525D60"/>
<path d="M172.254 467.991L168.469 470.158L124.528 444.814L128.313 442.619L172.254 467.991Z" fill="#525D60"/>
<path d="M192.746 456.279L188.961 458.473L145.047 433.101L148.833 430.934L192.746 456.279Z" fill="#525D60"/>
<path d="M213.094 444.484L209.281 446.651L165.368 421.279L169.153 419.112L213.094 444.484Z" fill="#525D60"/>
<path d="M233.529 432.717L229.717 434.912L185.803 409.54L189.588 407.373L233.529 432.717Z" fill="#525D60"/>
<path d="M254.018 421.007L250.232 423.201L206.209 397.774L209.994 395.607L254.018 421.007Z" fill="#2C353A"/>
<path d="M274.539 409.322L270.754 411.489L226.648 386.035L230.433 383.868L274.539 409.322Z" fill="#2C353A"/>
<path d="M294.863 397.499L291.078 399.694L247.137 374.322L250.95 372.155L294.863 397.499Z" fill="#2C353A"/>
<path d="M315.295 385.76L311.51 387.927L267.596 362.583L271.381 360.389L315.295 385.76Z" fill="#2C353A"/>
<path d="M335.812 374.047L332.027 376.242L288.114 350.87L291.899 348.703L335.812 374.047Z" fill="#2C353A"/>
<path d="M356.33 362.363L352.545 364.53L308.604 339.186L312.389 336.991L356.33 362.363Z" fill="#495656"/>
<path d="M376.652 350.542L372.84 352.708L328.926 327.364L332.711 325.17L376.652 350.542Z" fill="#525D60"/>
<path d="M397.088 338.801L393.303 340.968L349.362 315.624L353.147 313.43L397.088 338.801Z" fill="#525D60"/>
<path d="M419.031 326.047L415.246 328.214L371.305 302.87L375.118 300.676L419.031 326.047Z" fill="#525D60"/>
<path d="M430.303 374.13L66.0205 581.629V542.214L430.303 331.89V374.13Z" fill="#9EA4AD"/>
<path d="M66.0176 581.629L58.9957 577.597V538.154L66.0176 542.214V581.629Z" fill="#89919B"/>
<path d="M430.303 331.889L66.0205 542.214L58.9987 538.154L423.281 327.857L430.303 331.889Z" fill="#B8BCC1"/>
<path d="M183.475 393.33V392.205L186.52 392.754L189.564 392.205V393.33L190.717 393.549C190.717 393.549 195.846 409.568 195.846 414.642V436.283H177.139V414.642C177.139 409.568 182.268 393.549 182.268 393.549L183.42 393.33H183.475Z" fill="white"/>
<path d="M186.513 392.096C189.339 392.096 191.643 393.385 191.643 394.976C191.643 396.567 189.339 397.856 186.513 397.856C183.688 397.856 181.384 396.567 181.384 394.976C181.384 393.385 183.688 392.096 186.513 392.096Z" fill="#D3DBDD"/>
<path d="M182.758 390.56C183.8 390.039 185.144 389.71 186.625 389.71C188.106 389.71 189.478 390.039 190.493 390.56C190.822 390.039 191.343 389.682 192.056 389.71C192.056 389.71 193.565 392.151 192.056 394.153C191.946 394.318 191.809 394.455 191.645 394.62C191.59 394.674 191.59 394.702 191.535 394.757C190.493 395.662 188.71 396.238 186.68 396.238C184.65 396.238 182.84 395.634 181.798 394.729C181.77 394.702 181.743 394.674 181.715 394.647C181.551 394.482 181.386 394.318 181.277 394.153C179.768 392.151 181.277 389.71 181.277 389.71C181.99 389.71 182.511 390.039 182.84 390.56H182.758Z" fill="#7A92DA"/>
<path d="M186.626 394.126C183.415 394.126 180.812 392.664 180.812 390.862C180.812 389.059 183.415 387.598 186.626 387.598C189.838 387.598 192.441 389.059 192.441 390.862C192.441 392.664 189.838 394.126 186.626 394.126Z" fill="#8FA9EA"/>
<path d="M177.19 436.283V413.38C177.19 416.287 181.387 418.646 186.543 418.646C191.7 418.646 195.896 416.287 195.896 413.38V436.283H195.869C195.869 436.283 195.896 436.393 195.896 436.448C195.896 439.355 191.7 441.714 186.543 441.714C181.387 441.714 177.19 439.355 177.19 436.448C177.19 436.393 177.19 436.338 177.217 436.283H177.19Z" fill="#E4E6EA"/>
<path d="M178.914 420.814C179.271 421.116 179.71 421.363 180.176 421.61C180.642 421.856 181.136 422.048 181.657 422.24C183.029 422.734 184.62 423.036 186.375 423.036V438.615C181.273 438.561 177.186 436.229 177.186 433.349V417.77C177.186 418.894 177.845 419.936 178.914 420.787V420.814Z" fill="#7A92DA"/>
<path d="M372.161 283.669V282.544L375.205 283.093L378.25 282.544V283.669L379.402 283.888C379.402 283.888 384.531 299.906 384.531 304.981V326.622H365.825V304.981C365.825 299.906 370.954 283.888 370.954 283.888L372.106 283.669H372.161Z" fill="white"/>
<path d="M375.207 282.435C378.032 282.435 380.336 283.724 380.336 285.315C380.336 286.905 378.032 288.195 375.207 288.195C372.382 288.195 370.077 286.905 370.077 285.315C370.077 283.724 372.382 282.435 375.207 282.435Z" fill="#D3DBDD"/>
<path d="M375.071 286.577C372.784 286.577 370.929 285.533 370.929 284.246C370.929 282.958 372.784 281.914 375.071 281.914C377.359 281.914 379.213 282.958 379.213 284.246C379.213 285.533 377.359 286.577 375.071 286.577Z" fill="#E4E6EA"/>
<path d="M365.852 326.623V303.72C365.852 306.627 370.049 308.986 375.205 308.986C380.362 308.986 384.559 306.627 384.559 303.72V326.623H384.531C384.531 326.623 384.559 326.733 384.559 326.787C384.559 329.695 380.362 332.054 375.205 332.054C370.049 332.054 365.852 329.695 365.852 326.787C365.852 326.733 365.852 326.678 365.88 326.623H365.852Z" fill="#E4E6EA"/>
<path d="M370.924 280.24H379.18V284.245H370.924V280.24Z" fill="#E4E6EA"/>
<path d="M375.071 282.572C372.784 282.572 370.929 281.528 370.929 280.241C370.929 278.953 372.784 277.909 375.071 277.909C377.359 277.909 379.213 278.953 379.213 280.241C379.213 281.528 377.359 282.572 375.071 282.572Z" fill="white"/>
<path d="M375.066 282.133C373.202 282.133 371.692 281.286 371.692 280.24C371.692 279.195 373.202 278.348 375.066 278.348C376.929 278.348 378.439 279.195 378.439 280.24C378.439 281.286 376.929 282.133 375.066 282.133Z" fill="#D3DBDD"/>
<path d="M367.576 311.153C367.933 311.455 368.372 311.701 368.838 311.948C369.305 312.195 369.798 312.387 370.319 312.579C371.691 313.073 373.282 313.375 375.037 313.375V328.954C369.935 328.899 365.849 326.568 365.849 323.688V308.108C365.849 309.233 366.507 310.275 367.576 311.125V311.153Z" fill="#7A92DA"/>
<path d="M339.626 302.075V300.95L342.67 301.499L345.715 300.95V302.075L346.867 302.294C346.867 302.294 351.996 318.312 351.996 323.387V345.028H333.29V323.387C333.29 318.312 338.419 302.294 338.419 302.294L339.571 302.075H339.626Z" fill="white"/>
<path d="M342.664 300.84C345.489 300.84 347.793 302.129 347.793 303.72C347.793 305.311 345.489 306.6 342.664 306.6C339.839 306.6 337.535 305.311 337.535 303.72C337.535 302.129 339.839 300.84 342.664 300.84Z" fill="#D3DBDD"/>
<path d="M342.526 304.955C340.239 304.955 338.384 303.911 338.384 302.623C338.384 301.336 340.239 300.292 342.526 300.292C344.814 300.292 346.668 301.336 346.668 302.623C346.668 303.911 344.814 304.955 342.526 304.955Z" fill="#E4E6EA"/>
<path d="M333.34 345.028V322.125C333.34 325.032 337.537 327.391 342.694 327.391C347.85 327.391 352.047 325.032 352.047 322.125V345.028H352.019C352.019 345.028 352.047 345.137 352.047 345.192C352.047 348.1 347.85 350.459 342.694 350.459C337.537 350.459 333.34 348.1 333.34 345.192C333.34 345.137 333.34 345.083 333.368 345.028H333.34Z" fill="#E4E6EA"/>
<path d="M338.412 298.619H346.668V302.624H338.412V298.619Z" fill="#E4E6EA"/>
<path d="M342.526 296.287C344.803 296.287 346.668 297.329 346.668 298.618C346.668 299.907 344.83 300.95 342.526 300.95C340.222 300.95 338.384 299.907 338.384 298.618C338.384 297.329 340.222 296.287 342.526 296.287Z" fill="white"/>
<path d="M342.531 296.725C344.396 296.725 345.904 297.576 345.904 298.618C345.904 299.66 344.396 300.511 342.531 300.511C340.665 300.511 339.157 299.66 339.157 298.618C339.157 297.576 340.665 296.725 342.531 296.725Z" fill="#D3DBDD"/>
<path d="M335.067 329.558C335.423 329.86 335.862 330.107 336.328 330.354C336.795 330.6 337.288 330.792 337.81 330.984C339.181 331.478 340.772 331.78 342.527 331.78V347.359C337.426 347.305 333.339 344.973 333.339 342.093V326.514C333.339 327.638 333.997 328.68 335.067 329.531V329.558Z" fill="#7A92DA"/>
<path d="M355.312 319.19L215.59 398.87L131.301 349.691L270.996 270.01L355.312 319.19Z" fill="#F99595"/>
<path d="M215.594 473.888L206.268 468.43L206.213 404.987L140.85 367.985V423.2L134.788 426.82L131.305 424.763V349.69L215.594 398.87V473.888Z" fill="#F77272"/>
<path d="M355.312 394.262L215.59 473.888V398.87L355.312 319.189V394.262Z" fill="#E85B5B"/>
<path d="M353.527 322.427V392.672L353.171 392.891L218.331 469.939V399.721L218.687 399.502L353.527 322.427ZM219.784 467.415L352.074 391.849V324.977L219.784 400.599V467.443V467.415Z" fill="#DD4545"/>
<path d="M349.688 389.133L301.687 416.206V355.643L349.688 328.543V389.133Z" fill="#B8BCC1"/>
<path d="M297.572 421.335L222.362 463.932V401.668L297.572 359.044V421.307V421.335ZM296.091 361.595L223.816 402.546V461.436L296.091 420.485V361.595Z" fill="#DD4545"/>
<path d="M346.619 387.652L304.214 411.79V370.262L346.619 346.125V387.652Z" fill="#9EA4AD"/>
<path d="M319.076 374.623L305.526 382.358V371.633L319.076 363.898V374.623Z" fill="white"/>
<path d="M319.076 401.339L305.526 409.047V384.416L319.076 376.681V401.339Z" fill="#2C353A"/>
<path d="M345.029 372.401L321.029 385.512V362.884L345.029 349.745V372.374V372.401ZM344.289 351.007L321.77 363.322V384.278L344.289 371.962V351.007Z" fill="#2C353A"/>
<path d="M306.823 354.957C308.689 353.887 310.197 355.012 310.197 357.508C310.197 360.004 308.689 362.856 306.823 363.926C304.958 364.996 303.45 363.871 303.45 361.375C303.45 358.879 304.958 356.026 306.823 354.957Z" fill="#2C353A"/>
<path d="M307.12 356.246C307.696 355.917 308.217 355.89 308.629 356.082L311.18 357.508L307.943 364.393L305.392 362.966C304.926 362.637 304.624 361.951 304.624 361.019C304.624 359.181 305.749 357.069 307.12 356.274V356.246Z" fill="#5C77BC"/>
<path d="M309.617 357.645C310.989 356.85 312.113 357.7 312.113 359.538C312.113 361.375 310.989 363.487 309.617 364.283C308.246 365.078 307.121 364.228 307.121 362.39C307.121 360.553 308.246 358.44 309.617 357.645Z" fill="#7A92DA"/>
<path d="M318.667 348.703C320.532 347.633 322.041 348.758 322.041 351.254C322.041 353.75 320.532 356.602 318.667 357.672C316.802 358.742 315.293 357.617 315.293 355.121C315.293 352.625 316.802 349.773 318.667 348.703Z" fill="#2C353A"/>
<path d="M318.966 349.992C319.542 349.663 320.063 349.636 320.475 349.828L323.025 351.254L319.789 358.166L317.238 356.74C316.772 356.411 316.47 355.725 316.47 354.792C316.47 352.955 317.594 350.843 318.966 350.047V349.992Z" fill="#5C77BC"/>
<path d="M321.463 351.391C322.834 350.596 323.959 351.446 323.959 353.284C323.959 355.121 322.834 357.233 321.463 358.029C320.092 358.824 318.967 357.974 318.967 356.136C318.967 354.299 320.092 352.187 321.463 351.391Z" fill="#7A92DA"/>
<path d="M330.732 341.489C332.597 340.419 334.105 341.544 334.105 344.04C334.105 346.536 332.597 349.389 330.732 350.458C328.867 351.528 327.358 350.403 327.358 347.907C327.358 345.411 328.867 342.559 330.732 341.489Z" fill="#2C353A"/>
<path d="M331.06 342.751C331.636 342.422 332.157 342.395 332.568 342.587L335.119 344.013L331.883 350.925L329.332 349.499C328.865 349.17 328.564 348.484 328.564 347.551C328.564 345.714 329.688 343.602 331.06 342.806V342.751Z" fill="#5C77BC"/>
<path d="M333.557 344.15C334.928 343.355 336.053 344.205 336.053 346.043C336.053 347.88 334.928 349.992 333.557 350.788C332.185 351.583 331.061 350.733 331.061 348.895C331.061 347.057 332.185 344.945 333.557 344.15Z" fill="#7A92DA"/>
<path d="M342.64 335.209C344.505 334.139 346.014 335.263 346.014 337.759C346.014 340.256 344.505 343.108 342.64 344.178C340.775 345.248 339.266 344.123 339.266 341.627C339.266 339.131 340.775 336.278 342.64 335.209Z" fill="#2C353A"/>
<path d="M342.941 336.498C343.517 336.169 344.038 336.142 344.449 336.334L347 337.76L343.763 344.672L341.213 343.246C340.746 342.917 340.445 342.231 340.445 341.298C340.445 339.461 341.569 337.349 342.941 336.553V336.498Z" fill="#5C77BC"/>
<path d="M345.438 337.897C346.809 337.102 347.934 337.952 347.934 339.79C347.934 341.627 346.809 343.739 345.438 344.535C344.066 345.33 342.942 344.48 342.942 342.642C342.942 340.804 344.066 338.692 345.438 337.897Z" fill="#7A92DA"/>
<path d="M327.033 396.622L321.739 399.721V397.719L327.033 394.619V396.622Z" fill="#2C353A"/>
<path d="M328.045 363.35L322.751 366.449V364.447L328.045 361.348V363.35Z" fill="white"/>
<path d="M328.045 368.452L322.751 371.552V369.55L328.045 366.45V368.452Z" fill="white"/>
<path d="M328.045 373.774L322.751 376.873V374.871L328.045 371.771V373.774Z" fill="white"/>
<path d="M328.045 378.875L322.751 381.975V379.972L328.045 376.873V378.875Z" fill="white"/>
<path d="M343.104 355.588L337.81 358.688V356.685L343.104 353.586V355.588Z" fill="white"/>
<path d="M343.104 360.69L337.81 363.789V361.814L343.104 358.688V360.69Z" fill="white"/>
<path d="M343.104 366.01L337.81 369.11V367.107L343.104 364.008V366.01Z" fill="white"/>
<path d="M343.104 371.113L337.81 374.212V372.21L343.104 369.11V371.113Z" fill="white"/>
<path d="M324.699 386.39C326.4 385.403 327.799 386.445 327.799 388.722C327.799 390.998 326.427 393.632 324.699 394.619C322.971 395.606 321.6 394.564 321.6 392.288C321.6 390.011 322.971 387.378 324.699 386.39Z" fill="#2C353A"/>
<path d="M325.054 387.652C326.233 386.966 327.193 387.707 327.193 389.27C327.193 390.834 326.233 392.699 325.054 393.385C323.874 394.07 322.914 393.33 322.914 391.766C322.914 390.203 323.874 388.338 325.054 387.652Z" fill="white"/>
<path d="M335.895 391.136L330.601 394.236V392.233L335.895 389.134V391.136Z" fill="#2C353A"/>
<path d="M333.559 380.905C335.259 379.917 336.658 380.96 336.658 383.236C336.658 385.513 335.287 388.146 333.559 389.134C331.858 390.121 330.459 389.079 330.459 386.802C330.459 384.525 331.831 381.892 333.559 380.905Z" fill="#2C353A"/>
<path d="M333.913 382.167C335.093 381.481 336.053 382.221 336.053 383.785C336.053 385.348 335.093 387.214 333.913 387.899C332.734 388.585 331.774 387.844 331.774 386.281C331.774 384.718 332.734 382.852 333.913 382.167Z" fill="white"/>
<path d="M345.029 386.117L339.736 389.216V387.214L345.029 384.114V386.117Z" fill="#2C353A"/>
<path d="M342.668 375.885C344.369 374.898 345.768 375.94 345.768 378.217C345.768 380.493 344.396 383.127 342.668 384.114C340.968 385.101 339.569 384.059 339.569 381.783C339.569 379.506 340.94 376.873 342.668 375.885Z" fill="#2C353A"/>
<path d="M343.052 377.12C344.231 376.434 345.191 377.174 345.191 378.738C345.191 380.301 344.231 382.167 343.052 382.852C341.873 383.538 340.912 382.797 340.912 381.234C340.912 379.671 341.873 377.805 343.052 377.12Z" fill="white"/>
<path d="M55.739 466.291V465.166L58.7836 465.715L61.8281 465.166V466.291L62.9802 466.51C62.9802 466.51 68.1094 482.529 68.1094 487.603V509.244H49.4029V487.603C49.4029 482.529 54.5322 466.51 54.5322 466.51L55.6841 466.291H55.739Z" fill="white"/>
<path d="M58.8083 465.056C61.6335 465.056 63.9375 466.345 63.9375 467.936C63.9375 469.527 61.6335 470.816 58.8083 470.816C55.9832 470.816 53.6791 469.527 53.6791 467.936C53.6791 466.345 55.9832 465.056 58.8083 465.056Z" fill="#D3DBDD"/>
<path d="M55.0195 463.52C56.0618 462.999 57.4058 462.67 58.8869 462.67C60.3681 462.67 61.7396 462.999 62.7544 463.52C63.0836 462.999 63.6046 462.642 64.3178 462.67C64.3178 462.67 65.8264 465.111 64.3178 467.113C64.2081 467.278 64.071 467.415 63.9064 467.58C63.8515 467.634 63.8515 467.662 63.7966 467.717C62.7543 468.622 60.9715 469.198 58.9418 469.198C56.912 469.198 55.1017 468.594 54.0594 467.689C54.032 467.662 54.0046 467.634 53.9772 467.607C53.8126 467.442 53.648 467.278 53.5383 467.113C52.0297 465.111 53.5383 462.67 53.5383 462.67C54.2514 462.67 54.7726 462.999 55.1018 463.52H55.0195Z" fill="#7A92DA"/>
<path d="M58.8882 460.558C62.0974 460.558 64.7031 462.011 64.7031 463.822C64.7031 465.632 62.0974 467.086 58.8882 467.086C55.6791 467.086 53.0733 465.632 53.0733 463.822C53.0733 462.011 55.6791 460.558 58.8882 460.558Z" fill="#8FA9EA"/>
<path d="M49.4537 509.244V486.341C49.4537 489.248 53.6503 491.607 58.8069 491.607C63.9635 491.607 68.1602 489.248 68.1602 486.341V509.244H68.1327C68.1327 509.244 68.1602 509.353 68.1602 509.408C68.1602 512.316 63.9635 514.675 58.8069 514.675C53.6503 514.675 49.4537 512.316 49.4537 509.408C49.4537 509.353 49.4536 509.299 49.481 509.244H49.4537Z" fill="#E4E6EA"/>
<path d="M51.18 493.774C51.5366 494.076 51.9754 494.323 52.4417 494.57C52.908 494.816 53.4017 495.008 53.9229 495.2C55.2943 495.694 56.8852 495.996 58.6406 495.996V511.575C53.5389 511.521 49.452 509.189 49.452 506.309V490.729C49.452 491.854 50.1103 492.896 51.18 493.747V493.774Z" fill="#7A92DA"/>
<path d="M86.7839 447.885V446.761L89.8285 447.309L92.8731 446.761V447.885L94.0251 448.105C94.0251 448.105 99.1543 464.123 99.1543 469.198V490.839H80.4478V469.198C80.4478 464.123 85.577 448.105 85.577 448.105L86.729 447.885H86.7839Z" fill="white"/>
<path d="M89.8298 446.65C92.655 446.65 94.959 447.94 94.959 449.53C94.959 451.121 92.655 452.41 89.8298 452.41C87.0046 452.41 84.7006 451.121 84.7006 449.53C84.7006 447.94 87.0046 446.65 89.8298 446.65Z" fill="#D3DBDD"/>
<path d="M86.0703 445.142C87.1125 444.621 88.4565 444.292 89.9376 444.292C91.4188 444.292 92.7903 444.621 93.8051 445.142C94.1343 444.621 94.6554 444.264 95.3686 444.292C95.3686 444.292 96.8772 446.733 95.3686 448.735C95.2589 448.9 95.1217 449.037 94.9572 449.202C94.9023 449.256 94.9023 449.284 94.8474 449.339C94.8474 449.339 94.8475 449.339 94.8201 449.339C93.7778 450.244 91.9948 450.82 89.9651 450.82C87.9354 450.82 86.1251 450.216 85.0828 449.311C85.0553 449.284 85.0279 449.256 85.0005 449.229C84.8359 449.064 84.6713 448.9 84.5616 448.735C83.053 446.733 84.5616 444.292 84.5616 444.292C85.2748 444.292 85.7959 444.621 86.1251 445.142H86.0703Z" fill="#7A92DA"/>
<path d="M89.9389 448.708C86.7274 448.708 84.124 447.246 84.124 445.444C84.124 443.641 86.7274 442.18 89.9389 442.18C93.1504 442.18 95.7539 443.641 95.7539 445.444C95.7539 447.246 93.1504 448.708 89.9389 448.708Z" fill="#8FA9EA"/>
<path d="M80.4752 490.839V467.936C80.4752 470.843 84.6718 473.202 89.8284 473.202C94.985 473.202 99.1816 470.843 99.1816 467.936V490.839H99.1542C99.1542 490.839 99.1816 490.948 99.1816 491.003C99.1816 493.911 94.985 496.27 89.8284 496.27C84.6718 496.27 80.4752 493.911 80.4752 491.003C80.4752 490.948 80.4752 490.893 80.5026 490.839H80.4752Z" fill="#E4E6EA"/>
<path d="M82.2015 475.396C82.558 475.698 82.9969 475.945 83.4632 476.192C83.9295 476.438 84.4232 476.63 84.9443 476.822C86.3158 477.316 87.9067 477.618 89.6621 477.618V493.197C84.5603 493.143 80.4734 490.811 80.4734 487.931V472.352C80.4734 473.476 81.1317 474.518 82.2015 475.369V475.396Z" fill="#7A92DA"/>
<path d="M119.071 429.481V428.356L122.116 428.905L125.16 428.356V429.481L126.312 429.7C126.312 429.7 131.441 445.719 131.441 450.793V472.434H112.735V450.793C112.735 445.719 117.864 429.7 117.864 429.7L119.016 429.481H119.071Z" fill="white"/>
<path d="M122.117 428.246C124.942 428.246 127.246 429.535 127.246 431.126C127.246 432.717 124.942 434.006 122.117 434.006C119.292 434.006 116.988 432.717 116.988 431.126C116.988 429.535 119.292 428.246 122.117 428.246Z" fill="#D3DBDD"/>
<path d="M118.326 426.739C119.368 426.217 120.712 425.888 122.194 425.888C123.675 425.888 125.046 426.217 126.061 426.739C126.39 426.217 126.911 425.861 127.624 425.888C127.624 425.888 129.133 428.329 127.624 430.332C127.515 430.496 127.378 430.633 127.213 430.798C127.158 430.853 127.158 430.88 127.103 430.935C126.061 431.84 124.278 432.416 122.248 432.416C120.219 432.416 118.408 431.813 117.366 430.908C117.339 430.88 117.311 430.853 117.284 430.826C117.119 430.661 116.955 430.496 116.845 430.332C115.336 428.329 116.845 425.888 116.845 425.888C117.558 425.888 118.079 426.217 118.408 426.739H118.326Z" fill="#7A92DA"/>
<path d="M122.222 430.304C119.011 430.304 116.407 428.843 116.407 427.04C116.407 425.238 119.011 423.776 122.222 423.776C125.434 423.776 128.037 425.238 128.037 427.04C128.037 428.843 125.434 430.304 122.222 430.304Z" fill="#8FA9EA"/>
<path d="M112.762 472.434V449.531C112.762 452.439 116.959 454.798 122.116 454.798C127.272 454.798 131.469 452.439 131.469 449.531V472.434H131.441C131.441 472.434 131.469 472.544 131.469 472.599C131.469 475.506 127.272 477.865 122.116 477.865C116.959 477.865 112.762 475.506 112.762 472.599C112.762 472.544 112.762 472.489 112.79 472.434H112.762Z" fill="#E4E6EA"/>
<path d="M114.487 456.993C114.843 457.294 115.282 457.541 115.748 457.788C116.215 458.035 116.708 458.227 117.23 458.419C118.601 458.913 120.192 459.214 121.947 459.214V474.794C116.846 474.739 112.759 472.408 112.759 469.528V453.948C112.759 455.073 113.417 456.115 114.487 456.965V456.993Z" fill="#7A92DA"/>
<path d="M151.27 411.24V410.115L154.315 410.664L157.359 410.115V411.24L158.511 411.459C158.511 411.459 163.641 427.478 163.641 432.552V454.193H144.934V432.552C144.934 427.478 150.063 411.459 150.063 411.459L151.215 411.24H151.27Z" fill="white"/>
<path d="M154.316 410.006C157.141 410.006 159.445 411.295 159.445 412.886C159.445 414.477 157.141 415.766 154.316 415.766C151.491 415.766 149.187 414.477 149.187 412.886C149.187 411.295 151.491 410.006 154.316 410.006Z" fill="#D3DBDD"/>
<path d="M150.555 408.498C151.597 407.976 152.941 407.647 154.422 407.647C155.903 407.647 157.275 407.976 158.289 408.498C158.619 407.976 159.14 407.62 159.853 407.647C159.853 407.647 161.362 410.088 159.853 412.091C159.743 412.255 159.606 412.392 159.442 412.557C159.387 412.612 159.387 412.639 159.332 412.694C158.29 413.599 156.507 414.175 154.477 414.175C152.447 414.175 150.637 413.572 149.595 412.667C149.567 412.639 149.54 412.612 149.512 412.584C149.348 412.42 149.183 412.255 149.073 412.091C147.565 410.088 149.073 407.647 149.073 407.647C149.787 407.647 150.308 407.976 150.637 408.498H150.555Z" fill="#7A92DA"/>
<path d="M154.423 405.535C157.633 405.535 160.238 406.989 160.238 408.799C160.238 410.609 157.633 412.063 154.423 412.063C151.214 412.063 148.608 410.609 148.608 408.799C148.608 406.989 151.214 405.535 154.423 405.535Z" fill="#8FA9EA"/>
<path d="M144.962 454.194V431.291C144.962 434.198 149.158 436.557 154.315 436.557C159.471 436.557 163.668 434.198 163.668 431.291V454.194H163.641C163.641 454.194 163.668 454.304 163.668 454.359C163.668 457.266 159.471 459.625 154.315 459.625C149.158 459.625 144.962 457.266 144.962 454.359C144.962 454.304 144.962 454.249 144.989 454.194H144.962Z" fill="#E4E6EA"/>
<path d="M146.684 438.752C147.04 439.053 147.479 439.3 147.946 439.547C148.412 439.794 148.906 439.986 149.427 440.178C150.798 440.671 152.389 440.973 154.145 440.973V456.553C149.043 456.498 144.956 454.166 144.956 451.286V435.707C144.956 436.831 145.614 437.874 146.684 438.724V438.752Z" fill="#7A92DA"/>
<path d="M151.27 411.57V410.445L154.315 410.994L157.359 410.445V411.57L158.511 411.789C158.511 411.789 163.641 427.808 163.641 432.882V454.523H144.934V432.882C144.934 427.808 150.063 411.789 150.063 411.789L151.215 411.57H151.27Z" fill="white"/>
<path d="M154.316 410.335C157.141 410.335 159.445 411.624 159.445 413.215C159.445 414.806 157.141 416.095 154.316 416.095C151.491 416.095 149.187 414.806 149.187 413.215C149.187 411.624 151.491 410.335 154.316 410.335Z" fill="#D3DBDD"/>
<path d="M150.555 408.799C151.597 408.278 152.941 407.949 154.422 407.949C155.903 407.949 157.275 408.278 158.289 408.799C158.619 408.278 159.14 407.922 159.853 407.949C159.853 407.949 161.362 410.39 159.853 412.392C159.743 412.557 159.606 412.694 159.442 412.859C159.387 412.914 159.387 412.941 159.332 412.996C158.29 413.901 156.507 414.477 154.477 414.477C152.447 414.477 150.637 413.874 149.595 412.968C149.567 412.941 149.54 412.914 149.512 412.886C149.348 412.722 149.183 412.557 149.073 412.392C147.565 410.39 149.073 407.949 149.073 407.949C149.787 407.949 150.308 408.278 150.637 408.799H150.555Z" fill="#7A92DA"/>
<path d="M154.423 405.837C157.633 405.837 160.238 407.291 160.238 409.101C160.238 410.911 157.633 412.365 154.423 412.365C151.214 412.365 148.608 410.911 148.608 409.101C148.608 407.291 151.214 405.837 154.423 405.837Z" fill="#8FA9EA"/>
<path d="M144.962 454.522V431.619C144.962 434.527 149.158 436.885 154.315 436.885C159.471 436.885 163.668 434.527 163.668 431.619V454.522H163.641C163.641 454.522 163.668 454.632 163.668 454.687C163.668 457.594 159.471 459.953 154.315 459.953C149.158 459.953 144.962 457.594 144.962 454.687C144.962 454.632 144.962 454.577 144.989 454.522H144.962Z" fill="#E4E6EA"/>
<path d="M146.684 439.053C147.04 439.355 147.479 439.602 147.946 439.849C148.412 440.096 148.906 440.288 149.427 440.48C150.798 440.973 152.389 441.275 154.145 441.275V456.855C149.043 456.8 144.956 454.468 144.956 451.588V436.009C144.956 437.133 145.614 438.176 146.684 439.026V439.053Z" fill="#7A92DA"/>
<path d="M259.234 468.512L239.65 479.62L228.596 445.005L248.208 433.896L259.234 468.512Z" fill="#2C353A"/>
<path d="M259.973 468.156L240.361 479.265L229.335 444.65L248.946 433.541L259.973 468.156Z" fill="#758182"/>
<path d="M257.697 464.864L241.021 474.327L231.613 444.868L248.289 435.405L257.697 464.864Z" fill="white"/>
<path d="M255.586 454.551C255.586 454.551 254.653 451.616 254.352 450.711C257.451 450.135 261.291 453.07 261.291 453.07L258.932 457.129C258.932 457.129 258.027 457.403 257.232 457.65C256.436 457.897 254.598 457.65 253.611 457.65C252.624 457.65 251.965 456.964 252.761 456.306C253.556 455.62 255.558 454.523 255.558 454.523L255.586 454.551Z" fill="#FFC4B2"/>
<path d="M233.863 461.545L235.756 466.729C235.756 466.729 237.457 465.934 239.432 465.769C240.556 465.687 240.748 466.18 240.446 466.729C240.227 467.14 239.761 467.552 239.24 467.771C238.801 467.963 237.868 469.253 236.826 470.514C235.674 471.886 235.509 473.449 235.509 473.449C235.509 473.449 236.606 478.277 234.275 476.137C231.45 473.531 229.447 468.1 230.791 465.495C232.135 462.889 233.863 461.518 233.863 461.518V461.545Z" fill="#FFC4B2"/>
<path d="M295.193 441.385C298.567 447.419 296.016 456.718 293.794 459.872C291.6 463.026 282.685 453.509 282.685 453.509L285.538 437.326C285.538 437.326 291.792 435.351 295.193 441.385Z" fill="#5C77BC"/>
<path d="M275.17 596.495C278.269 597.51 279.833 598.223 279.833 598.223C279.833 598.223 279.503 564.02 278.187 556.531C277.748 554.063 289.515 553.981 289.515 553.981C289.926 555.709 290.31 587.032 289.515 596.276C289.241 599.375 289.405 601.405 289.652 602.886C288.857 603.243 287.184 603.956 285.949 604.504C284.276 605.272 281.506 605.272 278.132 603.599C274.758 601.926 271.577 599.869 272.591 597.922C273.058 597.044 274.127 596.66 275.17 596.495Z" fill="#FFC4B2"/>
<path d="M273.632 596.002C274.181 596.167 274.702 596.331 275.168 596.496C274.126 596.661 273.056 597.045 272.59 597.922C271.575 599.842 274.757 601.899 278.131 603.6C281.504 605.273 284.247 605.273 285.948 604.505C287.182 603.957 288.828 603.216 289.651 602.887C289.98 605.136 290.474 606.178 289.788 607.797C288.663 610.485 286.058 610.238 280.819 608.345C276.156 606.672 272.316 604.779 268.997 602.311C265.678 599.842 265.651 599.541 265.212 597.867C264.608 595.536 267.982 594.247 273.605 596.002H273.632Z" fill="#2C353A"/>
<path d="M258.799 606.013C261.899 607.028 263.462 607.741 263.462 607.741C263.462 607.741 262.585 563.279 261.268 555.791C260.829 553.322 272.651 557.025 272.651 557.025C273.062 558.753 273.94 596.55 273.145 605.794C272.87 608.893 273.035 610.923 273.282 612.404C272.486 612.761 270.813 613.474 269.579 614.022C267.906 614.79 265.136 614.79 261.762 613.117C258.388 611.444 255.206 609.387 256.221 607.439C256.687 606.562 257.757 606.178 258.799 606.013Z" fill="#FFC4B2"/>
<path d="M257.232 605.492C257.781 605.657 258.302 605.821 258.768 605.986C257.726 606.151 256.656 606.534 256.19 607.412C255.175 609.332 258.357 611.389 261.73 613.09C265.104 614.763 267.847 614.763 269.548 613.995C270.782 613.447 272.428 612.706 273.25 612.377C273.58 614.626 274.073 615.668 273.388 617.287C272.263 619.975 269.657 619.728 264.418 617.835C259.755 616.162 255.915 614.269 252.597 611.801C249.278 609.36 249.25 609.031 248.811 607.357C248.208 605.026 251.582 603.737 257.205 605.492H257.232Z" fill="#2C353A"/>
<path d="M274.073 407.894C277.858 405.261 285.127 406.084 288.281 412.749C290.037 416.425 287.568 426.354 287.157 433.321C286.855 438.944 288.72 442.181 288.72 442.181L283.893 444.155C279.065 446.13 274.046 444.155 274.046 444.155L274.21 435.598C274.21 435.598 270.151 435.598 269.026 435.131C266.969 434.281 264.72 431.62 266.009 421.499C267.463 410.061 272.647 408.854 274.046 407.894H274.073Z" fill="#FFC4B2"/>
<path d="M263.156 488.755C264.528 478.332 263.76 469.746 263.76 469.746C263.76 469.746 259.371 459.68 262.827 452.741C266.283 445.801 269.246 444.128 272.537 443.003C276.048 441.824 288.885 438.505 288.885 438.505C288.885 438.505 293.438 439.328 295.577 456.087C296.62 464.37 290.119 482.501 294.535 493.472C300.953 509.409 298.54 554.968 298.54 554.968C298.54 554.968 280.629 565.857 270.096 565.144C254.708 564.102 250.128 557.135 250.128 557.135C250.868 538.867 256.711 515.47 258.301 509.134C261.319 497.093 262.142 496.435 263.156 488.809V488.755Z" fill="#7A92DA"/>
<path d="M282.852 404.247C287.927 405.317 292.836 409.815 296.484 415.822C294.29 425.751 290.011 431.264 280.027 431.155C279.177 428.467 276.406 427.534 273.554 424.572C270.674 421.582 266.971 419.196 266.614 415.246C265.846 407.182 270.592 401.641 282.852 404.22V404.247Z" fill="#703434"/>
<path d="M251.969 472.901C251.969 472.901 262.419 448.846 267.85 448.352C270.676 448.078 273.638 453.235 273.336 459.68C272.952 467.936 255.782 481.98 255.782 481.98C254.52 482.721 252.655 483.022 250.515 483.077C250.076 479.786 250.159 476.467 250.735 473.148C251.53 473.011 251.969 472.901 251.969 472.901Z" fill="#FFC4B2"/>
<path d="M273.359 423.199C274.566 427.999 270.397 429.59 270.397 429.59L269.08 423.199C269.08 423.199 272.097 418.042 273.386 423.199H273.359Z" fill="#FFC4B2"/>
<path d="M281.176 399.803C291.462 402.217 295.467 408.854 297.496 415.931C299.526 423.008 298.758 429.81 292.943 431.565C287.128 433.321 277.72 434.281 274.429 429.399C270.095 422.98 265.624 419.195 265.624 419.195C265.624 419.195 263.238 415.19 263.759 408.937C264.28 402.683 270.863 397.362 281.149 399.775L281.176 399.803Z" fill="#7A92DA"/>
<path d="M268.418 421.883C268.418 421.883 267.513 420.21 267.184 417.412C266.965 415.437 266.718 411.433 266.718 411.433C266.718 411.433 268.007 414.477 268.912 416.672C269.817 418.866 268.418 421.883 268.418 421.883Z" fill="#5C77BC"/>
<path d="M272.566 416.096C272.566 416.096 274.129 420.073 273.581 422.322C273.032 424.571 271.03 424.791 271.03 424.791C271.03 424.791 271.03 423.776 271.304 421.828C271.606 419.881 272.538 416.068 272.538 416.068L272.566 416.096Z" fill="#5C77BC"/>
<path d="M278.16 427.287C279.998 428.137 282.686 428.027 282.686 428.027C282.686 428.027 282.274 428.85 279.065 429.207C275.883 429.563 272.948 426.519 272.948 426.519C272.948 426.519 276.322 426.437 278.16 427.287Z" fill="#5C77BC"/>
<path d="M272.973 427.287C272.973 427.287 270.477 425.12 269.05 423.2C267.651 421.307 265.676 420.183 265.676 420.183L264.881 417.385C264.881 417.385 265.567 417.632 267.789 419.469C269.983 421.335 273 427.259 273 427.259L272.973 427.287Z" fill="#5C77BC"/>
<path d="M273.358 401.202C278.049 401.202 273.249 404.247 275.992 406.962C278.734 409.678 282.245 411.241 283.535 417.385C284.824 423.502 289.925 422.981 294.698 420.21C296.947 418.894 297.276 421.527 296.481 425.257C295.686 428.96 293.436 429.618 289.541 429.591C285.647 429.591 281.148 425.751 280.024 420.457C278.899 415.163 275.443 410.336 272.947 408.965C270.451 407.566 268.284 406.88 267.955 405.07C267.626 403.259 269.244 401.23 273.331 401.23L273.358 401.202Z" fill="#8FA9EA"/>
<path d="M279.12 437.628C285.346 436.229 287.184 435.488 287.184 435.488L288.885 438.45C288.885 438.45 279.477 442.016 269.218 444.54C269.218 444.54 272.894 439.026 279.12 437.628Z" fill="#5C77BC"/>
<path d="M237.404 469.335C237.404 469.335 241.985 469.802 243.466 470.24C244.947 470.707 245.742 471.091 247.745 470.021C249.774 468.951 250.131 470.542 251.228 470.021C252.325 469.5 259.676 454.743 262.09 451.781C264.504 448.791 266.671 446.652 269.221 447.667C275.448 450.108 275.832 458.611 274.543 464.234C273.281 469.856 261.706 481.185 258.414 483.05C255.123 484.915 252.133 484.284 248.403 483.05C242.506 481.102 237.075 478.579 234.387 477.564C231.562 471.338 237.376 469.308 237.376 469.308L237.404 469.335Z" fill="#5C77BC"/>
</g>
</svg>
