<svg width="629" height="253" viewBox="0 0 629 253" fill="none" xmlns="http://www.w3.org/2000/svg">
<path d="M50.919 25.0929V15C50.919 6.71573 57.6348 0 65.9191 0H614C622.284 0 629 6.71574 629 15V238C629 246.284 622.284 253 614 253H65.919C57.6348 253 50.919 246.284 50.919 238V207.63C50.919 199.346 44.2033 192.63 35.9191 192.63H15C6.71573 192.63 0 185.915 0 177.63V146.8C0 138.515 6.71572 131.8 15 131.8H35.919C44.2033 131.8 50.919 125.084 50.919 116.8V111.315C50.919 103.031 44.2033 96.3151 35.9191 96.3151H15C6.71573 96.3151 0 89.5994 0 81.3151V55.0929C0 46.8086 6.71572 40.0929 15 40.0929H35.919C44.2033 40.0929 50.919 33.3772 50.919 25.0929Z" fill="#1B1C57"/>
</svg>
