<svg width="404" height="407" viewBox="0 0 404 407" fill="none" xmlns="http://www.w3.org/2000/svg">
<path d="M380.08 405.707L25.2243 406.756C12.5333 406.793 2.2174 396.544 2.17271 383.852L0.972302 42.9282C0.928986 30.6259 10.5739 20.461 22.8617 19.8586L65.0301 17.7913C72.0335 17.448 77.8905 23.0442 77.8662 30.0559C77.8425 36.9097 83.4483 42.4446 90.3012 42.3336L131.741 41.662C142.841 41.4821 151.76 32.4483 151.799 21.3464C151.837 10.1394 160.92 1.06138 172.127 1.02825L244.367 0.814752C253.391 0.788073 260.708 8.10898 260.677 17.1326C260.645 26.2406 268.095 33.596 277.201 33.4484L306.464 32.9741C311.585 32.8912 315.671 28.673 315.592 23.5525C315.512 18.433 319.598 14.2152 324.717 14.1309L379.665 13.2266C392.508 13.0153 403.027 23.3633 403.027 36.2078L403.027 382.69C403.027 395.373 392.762 405.669 380.08 405.707Z" fill="white"/>
</svg>
