<svg width="1530" height="871" viewBox="0 0 1530 871" fill="none" xmlns="http://www.w3.org/2000/svg">
<path d="M0 202L1530 202V871H0V202Z" fill="#181945"/>
<ellipse cx="765" cy="197.5" rx="765" ry="120.5" fill="#F6FAFF"/>
<path d="M1409.74 690.074L1402 687.463L1402.42 681.534L1410.45 680.031C1410.78 678.406 1411.21 676.798 1411.75 675.208L1405.46 669.832L1408.08 664.491L1416.16 666.168C1417.18 664.612 1418.31 663.16 1419.5 661.812L1415.86 654.483L1420.35 650.576L1427.08 655.191C1428.47 654.275 1429.92 653.446 1431.39 652.702L1430.78 644.544L1436.41 642.625L1440.91 649.453C1442.69 649.09 1444.51 648.848 1446.35 648.744L1448.96 641L1454.88 641.415L1456.38 649.453C1457.99 649.781 1459.6 650.213 1461.2 650.749L1466.56 644.457L1471.89 647.067L1470.21 655.174C1471.76 656.194 1473.21 657.318 1474.58 658.527L1481.88 654.898L1485.78 659.392L1481.15 666.133C1482.07 667.533 1482.9 668.968 1483.65 670.454L1491.8 669.849L1493.72 675.467L1486.9 679.979C1487.26 681.776 1487.51 683.591 1487.61 685.424L1495.35 688.034L1494.93 693.963L1486.9 695.467C1486.57 697.091 1486.14 698.699 1485.6 700.289L1491.89 705.665L1489.27 711.006L1481.19 709.33C1480.17 710.885 1479.04 712.337 1477.85 713.686L1481.48 720.997L1477 724.904L1470.27 720.289C1468.88 721.205 1467.43 722.034 1465.94 722.778L1466.55 730.936L1460.94 732.855L1456.42 726.027C1454.64 726.39 1452.82 726.632 1450.98 726.753L1448.39 734.497L1442.47 734.082L1440.96 726.045C1439.34 725.716 1437.74 725.284 1436.15 724.748L1430.78 731.04L1425.45 728.43L1427.13 720.34C1425.59 719.321 1424.14 718.197 1422.77 716.987L1415.47 720.617L1411.57 716.123L1416.18 709.381C1415.26 707.999 1414.43 706.547 1413.7 705.06L1405.55 705.665L1403.63 700.047L1410.45 695.536C1410.08 693.738 1409.84 691.923 1409.72 690.091M1448.68 702.052C1456.58 702.052 1462.96 695.657 1462.96 687.757C1462.96 679.858 1456.58 673.462 1448.68 673.462C1440.79 673.462 1434.4 679.858 1434.4 687.757C1434.4 695.657 1440.79 702.052 1448.68 702.052Z" fill="#B3B3B3" fill-opacity="0.5"/>
<path d="M1463.2 765.006L1455.42 762.569L1455.69 756.64L1463.69 754.963C1463.98 753.338 1464.38 751.713 1464.88 750.106L1458.48 744.868L1460.97 739.475L1469.09 740.979C1470.08 739.406 1471.17 737.937 1472.34 736.554L1468.55 729.311L1472.95 725.318L1479.79 729.778C1481.15 728.827 1482.57 727.963 1484.04 727.202L1483.25 719.061L1488.82 717.021L1493.48 723.745C1495.26 723.348 1497.08 723.054 1498.9 722.916L1501.34 715.103L1507.27 715.379L1508.95 723.382C1510.58 723.676 1512.19 724.074 1513.8 724.575L1519.03 718.179L1524.41 720.668L1522.92 728.81C1524.5 729.795 1525.97 730.884 1527.35 732.06L1534.59 728.257L1538.58 732.665L1534.12 739.51C1535.07 740.875 1535.94 742.31 1536.7 743.779L1544.83 742.984L1546.88 748.567L1540.16 753.234C1540.56 755.015 1540.85 756.83 1540.99 758.662L1548.78 761.099L1548.5 767.045L1540.51 768.722C1540.21 770.347 1539.81 771.972 1539.31 773.579L1545.72 778.817L1543.22 784.21L1535.11 782.706C1534.12 784.279 1533.03 785.748 1531.85 787.148L1535.64 794.391L1531.25 798.384L1524.41 793.924C1523.04 794.875 1521.6 795.739 1520.15 796.5L1520.93 804.641L1515.36 806.681L1510.7 799.957C1508.92 800.372 1507.1 800.648 1505.28 800.804L1502.84 808.617L1496.9 808.34L1495.23 800.337C1493.6 800.043 1491.99 799.646 1490.38 799.145L1485.15 805.54L1479.77 803.034L1481.26 794.91C1479.68 793.924 1478.21 792.835 1476.83 791.66L1469.59 795.463L1465.59 791.072L1470.06 784.227C1469.11 782.862 1468.24 781.427 1467.48 779.958L1459.34 780.753L1457.3 775.17L1464.02 770.503C1463.62 768.722 1463.33 766.907 1463.19 765.075L1463.2 765.006ZM1480.57 760.529H1488.68C1488.94 757.798 1490.03 755.291 1491.7 753.269L1485.95 747.53C1482.83 751.039 1480.86 755.551 1480.57 760.529ZM1487.78 745.715L1493.53 751.454C1495.54 749.795 1498.05 748.706 1500.8 748.446V740.322C1495.81 740.616 1491.3 742.604 1487.78 745.698V745.715ZM1503.38 740.339V748.464C1506.11 748.723 1508.62 749.812 1510.65 751.471L1516.39 745.732C1512.88 742.621 1508.36 740.651 1503.38 740.357V740.339ZM1518.21 747.547L1512.47 753.286C1514.13 755.291 1515.22 757.798 1515.48 760.546H1523.6C1523.3 755.568 1521.31 751.056 1518.21 747.547V747.547ZM1523.6 763.122H1515.48C1515.22 765.853 1514.13 768.359 1512.47 770.382L1518.21 776.12C1521.33 772.611 1523.3 768.1 1523.6 763.122ZM1503.36 783.328C1508.35 783.035 1512.86 781.047 1516.38 777.953L1510.63 772.214C1508.62 773.873 1506.11 774.962 1503.36 775.221V783.328V783.328ZM1512.95 761.825C1512.95 755.844 1508.07 750.97 1502.08 750.97C1496.09 750.97 1491.21 755.844 1491.21 761.825C1491.21 767.806 1496.09 772.681 1502.08 772.681C1508.07 772.681 1512.95 767.806 1512.95 761.825V761.825ZM1500.78 783.328V775.221C1498.05 774.962 1495.54 773.873 1493.51 772.214L1487.77 777.953C1491.28 781.064 1495.8 783.035 1500.78 783.328V783.328ZM1485.95 776.12L1491.7 770.382C1490.03 768.376 1488.94 765.87 1488.68 763.122H1480.57C1480.86 768.1 1482.85 772.611 1485.95 776.12Z" fill="#B3B3B3" fill-opacity="0.5"/>
<path d="M1505.85 691.993L1502.18 690.852L1502.32 688.052L1506.08 687.256C1506.22 686.496 1506.41 685.735 1506.63 684.975L1503.62 682.52L1504.8 679.979L1508.62 680.688C1509.09 679.945 1509.59 679.253 1510.15 678.596L1508.36 675.191L1510.42 673.307L1513.64 675.416C1514.28 674.966 1514.96 674.569 1515.65 674.206L1515.29 670.368L1517.92 669.401L1520.12 672.564C1520.95 672.374 1521.81 672.235 1522.66 672.166L1523.8 668.484L1526.59 668.623L1527.39 672.391C1528.15 672.529 1528.91 672.719 1529.67 672.961L1532.13 669.954L1534.66 671.129L1533.95 674.966C1534.69 675.433 1535.38 675.952 1536.02 676.505L1539.42 674.724L1541.3 676.799L1539.21 680.014C1539.66 680.653 1540.06 681.327 1540.42 682.019L1544.24 681.639L1545.21 684.266L1542.05 686.461C1542.24 687.308 1542.38 688.155 1542.44 689.02L1546.11 690.16L1545.98 692.961L1542.22 693.756C1542.08 694.516 1541.89 695.277 1541.67 696.037L1544.68 698.492L1543.5 701.033L1539.67 700.324C1539.21 701.068 1538.71 701.759 1538.15 702.416L1539.93 705.821L1537.87 707.705L1534.66 705.596C1534.01 706.046 1533.34 706.443 1532.65 706.806L1533.01 710.644L1530.4 711.612L1528.2 708.448C1527.37 708.639 1526.5 708.777 1525.65 708.846L1524.51 712.511L1521.73 712.372L1520.93 708.604C1520.17 708.466 1519.41 708.276 1518.64 708.034L1516.19 711.041L1513.66 709.866L1514.37 706.046C1513.62 705.579 1512.93 705.06 1512.29 704.507L1508.88 706.288L1507 704.213L1509.09 700.998C1508.64 700.359 1508.24 699.685 1507.88 698.993L1504.05 699.374L1503.08 696.746L1506.25 694.551C1506.06 693.704 1505.92 692.857 1505.85 691.993V691.993Z" fill="#B3B3B3" fill-opacity="0.5"/>
<path d="M1530.92 937.273C1529.08 937.152 1527.25 936.927 1525.46 936.547L1520.95 943.358L1515.32 941.439L1515.93 933.297C1514.44 932.571 1512.98 931.742 1511.6 930.826L1504.85 935.424L1500.37 931.534L1504 924.24C1502.79 922.892 1501.66 921.44 1500.64 919.884L1492.54 921.561L1489.93 916.237L1496.23 910.878C1495.69 909.288 1495.26 907.68 1494.93 906.073L1486.88 904.569L1486.47 898.657L1494.22 896.064C1494.34 894.232 1494.57 892.417 1494.95 890.637L1488.11 886.125L1490.03 880.525L1498.2 881.13C1498.95 879.643 1499.78 878.209 1500.7 876.808L1496.07 870.084L1499.99 865.607L1507.31 869.237C1508.67 868.027 1510.13 866.921 1511.67 865.901L1509.99 857.829L1515.34 855.219L1520.72 861.493C1522.31 860.958 1523.94 860.525 1525.55 860.197L1527.06 852.177L1532.99 851.762L1535.61 859.488C1537.44 859.592 1539.26 859.851 1541.06 860.214L1545.58 853.404L1551.2 855.323L1550.6 863.464C1552.09 864.207 1553.54 865.02 1554.92 865.953L1561.67 861.338L1566.17 865.227L1562.54 872.522C1563.75 873.87 1564.88 875.339 1565.9 876.878L1574.02 875.201L1576.63 880.525L1570.33 885.883C1570.87 887.474 1571.32 889.081 1571.63 890.689L1579.68 892.193L1580.09 898.104L1572.34 900.714C1572.23 902.547 1571.99 904.361 1571.63 906.142L1578.46 910.636L1576.54 916.254L1568.37 915.649C1567.63 917.135 1566.82 918.57 1565.88 919.953L1570.5 926.677L1566.59 931.154L1559.25 927.524C1557.88 928.734 1556.43 929.84 1554.89 930.86L1556.57 938.932L1551.22 941.543L1545.84 935.268C1544.24 935.804 1542.63 936.236 1541.01 936.564L1539.5 944.585L1533.56 945L1530.95 937.273M1518.97 898.363C1518.97 906.228 1525.38 912.624 1533.29 912.624C1541.2 912.624 1547.6 906.246 1547.6 898.363C1547.6 890.481 1541.2 884.103 1533.29 884.103C1525.38 884.103 1518.97 890.481 1518.97 898.363Z" fill="#B3B3B3" fill-opacity="0.5"/>
<path d="M1450.46 883.048L1445.79 889.755L1440.2 887.716L1441 879.591C1439.53 878.831 1438.09 877.966 1436.72 877.016L1429.87 881.475L1425.47 877.483L1429.28 870.257C1428.1 868.874 1427.01 867.405 1426.02 865.832L1417.89 867.319L1415.38 861.943L1421.78 856.723C1421.28 855.115 1420.88 853.508 1420.59 851.883L1412.58 850.206L1412.3 844.277L1420.12 841.84C1420.28 840.008 1420.56 838.21 1420.97 836.429L1414.24 831.78L1416.28 826.214L1424.43 826.992C1425.21 825.522 1426.06 824.105 1427.01 822.739L1422.55 815.912L1426.54 811.521L1433.8 815.307C1435.18 814.131 1436.67 813.042 1438.24 812.057L1436.74 803.95L1442.14 801.461L1447.38 807.857C1448.99 807.355 1450.62 806.958 1452.25 806.664L1453.93 798.678L1459.88 798.401L1462.32 806.18C1464.16 806.335 1465.97 806.612 1467.76 807.01L1472.43 800.303L1478.02 802.342L1477.22 810.467C1478.7 811.227 1480.13 812.091 1481.5 813.042L1488.35 808.583L1492.77 812.575L1488.96 819.801C1490.14 821.184 1491.23 822.653 1492.21 824.226L1500.37 822.739L1502.86 828.115L1496.45 833.335C1496.96 834.943 1497.35 836.55 1497.65 838.175L1505.66 839.852L1505.94 845.781L1498.12 848.218C1497.96 850.05 1497.68 851.848 1497.29 853.629L1504.02 858.278L1501.98 863.844L1493.82 863.049C1493.06 864.518 1492.2 865.936 1491.24 867.301L1495.71 874.129L1491.71 878.52L1484.46 874.734C1483.07 875.91 1481.59 876.999 1480.01 877.984L1481.52 886.091L1476.12 888.58L1470.87 882.184C1469.26 882.685 1467.64 883.083 1466.01 883.377L1464.33 891.363L1458.39 891.639L1455.95 883.861C1454.12 883.705 1452.3 883.429 1450.52 883.031L1450.46 883.048ZM1473.4 861.165L1467.65 855.426C1465.64 857.086 1463.14 858.175 1460.38 858.434V866.541C1465.37 866.247 1469.89 864.259 1473.4 861.165V861.165ZM1480.62 846.334H1472.48C1472.22 849.065 1471.13 851.572 1469.47 853.594L1475.22 859.333C1478.33 855.824 1480.31 851.312 1480.6 846.334H1480.62ZM1475.23 830.76L1469.49 836.499C1471.15 838.504 1472.24 841.01 1472.5 843.759H1480.63C1480.34 838.78 1478.35 834.269 1475.25 830.76H1475.23ZM1460.4 823.552V831.659C1463.13 831.918 1465.64 833.007 1467.67 834.666L1473.42 828.928C1469.9 825.816 1465.39 823.846 1460.4 823.552ZM1444.8 828.928L1450.55 834.666C1452.56 833.007 1455.07 831.918 1457.82 831.659V823.552C1452.84 823.846 1448.32 825.833 1444.8 828.928ZM1445.7 843.759C1445.96 841.027 1447.06 838.521 1448.72 836.499L1442.97 830.76C1439.85 834.269 1437.88 838.78 1437.59 843.759H1445.7ZM1448.23 845.055C1448.23 851.036 1453.11 855.91 1459.1 855.91C1465.09 855.91 1469.97 851.036 1469.97 845.055C1469.97 839.074 1465.09 834.2 1459.1 834.2C1453.11 834.2 1448.23 839.074 1448.23 845.055ZM1442.97 859.35L1448.72 853.611C1447.06 851.606 1445.96 849.1 1445.7 846.351H1437.59C1437.88 851.33 1439.87 855.841 1442.97 859.35ZM1457.8 866.558V858.451C1455.07 858.192 1452.56 857.103 1450.53 855.444L1444.79 861.182C1448.3 864.294 1452.82 866.264 1457.8 866.558Z" fill="#B3B3B3" fill-opacity="0.5"/>
<path d="M1529.01 841.304L1530.15 844.968L1532.96 844.83L1533.75 841.079C1534.52 840.941 1535.28 840.751 1536.04 840.526L1538.5 843.534L1541.04 842.358L1540.33 838.538C1541.08 838.071 1541.77 837.57 1542.43 837.017L1545.84 838.797L1547.72 836.74L1545.61 833.525C1546.06 832.886 1546.46 832.212 1546.82 831.52L1550.67 831.883L1551.63 829.256L1548.47 827.06C1548.66 826.231 1548.8 825.366 1548.87 824.519L1552.55 823.379L1552.41 820.596L1548.64 819.801C1548.5 819.04 1548.31 818.279 1548.07 817.519L1551.08 815.064L1549.9 812.541L1546.08 813.249C1545.61 812.506 1545.09 811.815 1544.54 811.175L1546.32 807.787L1544.24 805.903L1541.02 807.995C1540.38 807.545 1539.71 807.148 1539.02 806.785L1539.4 802.964L1536.77 801.996L1534.57 805.16C1533.72 804.97 1532.87 804.831 1532.01 804.762L1530.86 801.098L1528.06 801.236L1527.26 804.987C1526.5 805.125 1525.74 805.315 1524.98 805.54L1522.52 802.532L1519.98 803.708L1520.69 807.528C1519.94 807.995 1519.25 808.496 1518.59 809.049L1515.18 807.269L1513.3 809.326L1515.41 812.541C1514.96 813.18 1514.56 813.854 1514.2 814.546L1510.35 814.183L1509.38 816.793L1512.55 818.988C1512.36 819.818 1512.22 820.682 1512.15 821.529L1508.48 822.67L1508.62 825.453L1512.4 826.248C1512.53 827.009 1512.72 827.769 1512.97 828.53L1509.96 830.984L1511.13 833.508L1514.96 832.799C1515.42 833.543 1515.94 834.234 1516.5 834.874L1514.71 838.279L1516.79 840.163L1520.01 838.071C1520.65 838.521 1521.33 838.918 1522.02 839.281L1521.64 843.101L1524.27 844.069L1526.47 840.906C1527.32 841.096 1528.16 841.235 1529.03 841.304H1529.01Z" fill="#B3B3B3" fill-opacity="0.5"/>
</svg>
